# vtk DataFile Version 3.0
VolumeMesh
ASCII
DATASET UNSTRUCTURED_GRID

POINTS 948 float
0.116648 -0.024486 0.086349
0.116646 -0.025646 0.085546
0.116278 -0.028625 0.084982
0.116684 -0.023392 0.083906
0.117007 -0.022907 0.078071
0.118123 -0.021755 0.069597
0.119846 -0.015552 0.059415
0.117345 -0.031425 0.074132
0.117349 -0.019115 0.057976
0.117209 -0.025856 0.072832
0.117888 -0.014972 0.057584
0.114330 -0.016266 0.081797
0.116214 -0.017187 0.074996
0.117635 -0.016997 0.067479
0.118989 -0.013542 0.060653
0.104986 -0.018972 0.083397
0.109187 -0.022000 0.083313
0.109210 -0.023623 0.082003
0.104210 -0.012920 0.079706
0.106119 -0.013780 0.074078
0.107706 -0.014228 0.068106
0.110280 -0.008357 0.059898
0.108896 -0.027122 0.072588
0.110963 -0.012473 0.056312
0.108646 -0.020605 0.071375
0.109481 -0.009175 0.056595
0.107546 -0.012011 0.078721
0.108429 -0.012058 0.074907
0.110179 -0.012632 0.068549
0.111923 -0.008537 0.060507
0.102345 -0.011938 0.055432
0.099653 -0.009300 0.056143
0.100268 -0.008312 0.060776
0.100110 -0.009603 0.068191
0.099543 -0.009878 0.074001
0.099671 -0.009276 0.077092
0.127255 -0.016034 0.083816
0.129586 -0.016818 0.075400
0.129194 -0.017485 0.066076
0.128849 -0.016823 0.061580
0.129876 -0.019605 0.086422
0.131355 -0.020592 0.077751
0.131501 -0.020387 0.068116
0.131989 -0.020482 0.062687
0.102593 -0.020241 0.075901
0.101675 -0.022378 0.065868
0.100327 -0.013746 0.066992
0.101530 -0.017208 0.076224
0.100262 -0.016586 0.080340
0.095647 -0.010638 0.055101
0.093973 -0.007991 0.057177
0.094782 -0.006668 0.061761
0.095078 -0.010539 0.064706
0.094911 -0.016895 0.060759
0.094791 -0.007827 0.069091
0.094624 -0.008909 0.072658
0.096301 -0.014654 0.072036
0.096470 -0.017028 0.069687
0.094609 -0.008821 0.075737
0.095224 -0.014408 0.077260
0.130336 -0.026434 0.061140
0.129973 -0.022514 0.061243
0.129251 -0.031799 0.077521
0.129754 -0.025679 0.075665
0.127944 -0.027188 0.084909
0.128844 -0.032007 0.083203
0.127901 -0.024474 0.087057
0.123542 -0.017413 0.091157
0.127577 -0.018943 0.093330
0.112136 -0.016448 0.086643
0.106232 -0.011470 0.083766
0.103057 -0.012573 0.082117
0.099123 -0.010633 0.081264
0.096087 -0.009494 0.078787
0.113349 -0.022053 0.089758
0.102985 -0.018503 0.086724
0.115791 -0.023729 0.092407
0.099909 -0.016775 0.084678
0.095952 -0.014616 0.081239
0.127331 -0.021736 0.093996
0.089046 -0.008183 0.055718
0.088885 -0.006702 0.057985
0.089303 -0.005829 0.062465
0.089361 -0.005410 0.069290
0.089196 -0.006499 0.073490
0.089478 -0.007089 0.076367
0.089911 -0.008243 0.079709
0.089213 -0.011494 0.058232
0.090320 -0.008115 0.063429
0.091213 -0.011756 0.069129
0.091166 -0.012532 0.065824
0.090236 -0.011372 0.076516
0.091269 -0.012368 0.081185
0.091424 -0.009170 0.082873
0.093051 -0.015017 0.086067
0.128472 -0.008022 0.093583
0.122253 -0.008581 0.092831
0.130275 -0.008590 0.083764
0.126689 -0.009131 0.082915
0.130165 -0.009093 0.074805
0.126556 -0.009063 0.074390
0.128523 -0.009274 0.065927
0.124835 -0.008883 0.066903
0.102556 -0.007538 0.075569
0.106863 -0.007634 0.077133
0.107410 -0.007101 0.071749
0.104099 -0.007041 0.071172
0.108879 -0.007293 0.066410
0.105867 -0.006757 0.066069
0.110057 -0.006118 0.060032
0.109285 -0.005607 0.059613
0.110114 -0.006347 0.053538
0.102155 -0.006566 0.053141
0.110178 -0.006537 0.055216
0.100282 -0.005652 0.055606
0.100739 -0.004321 0.060277
0.100435 -0.005778 0.065939
0.099682 -0.006382 0.070322
0.098731 -0.006888 0.074630
0.126351 -0.008770 0.060015
0.122277 -0.008204 0.059113
0.095763 -0.006008 0.053285
0.094768 -0.004573 0.056292
0.095479 -0.003425 0.061062
0.095542 -0.004962 0.066028
0.095187 -0.005423 0.070150
0.094430 -0.006131 0.073641
0.105117 -0.006885 0.083345
0.100635 -0.007144 0.081268
0.097436 -0.007190 0.079145
0.093532 -0.006550 0.077300
0.088828 -0.005381 0.054336
0.088486 -0.003371 0.057032
0.088477 -0.002469 0.061895
0.088496 -0.003673 0.066035
0.088266 -0.003837 0.069896
0.087391 -0.004429 0.073507
0.087217 -0.005395 0.075844
0.089449 -0.006391 0.081660
0.091441 -0.006613 0.084964
0.092644 -0.010782 0.086470
0.097338 -0.021793 0.100171
0.100394 -0.014950 0.113033
0.101479 -0.006843 0.113443
0.093358 -0.006313 0.089937
0.099496 -0.006956 0.110463
0.094221 -0.010740 0.090539
0.097250 -0.019500 0.101774
0.099263 -0.014171 0.109767
0.085218 -0.005803 0.085061
0.087161 -0.010219 0.087209
0.084478 -0.016867 0.098612
0.083090 -0.010423 0.112513
0.083700 -0.004727 0.113435
0.086023 -0.004897 0.089594
0.084747 -0.004631 0.109269
0.086225 -0.010547 0.091162
0.084504 -0.015004 0.098901
0.083886 -0.009793 0.109321
0.107582 -0.018187 0.085217
0.108073 -0.013954 0.084294
0.122449 -0.023146 0.085008
0.109158 -0.017931 0.082080
0.086656 -0.014304 0.092392
0.082629 -0.016390 0.107773
0.095441 -0.017490 0.091728
0.099163 -0.019643 0.107535
0.112654 -0.029399 0.073391
0.112181 -0.023663 0.071414
0.112936 -0.011457 0.057585
0.113271 -0.016477 0.057231
0.112131 -0.025904 0.083209
0.112981 -0.024355 0.084675
0.112969 -0.019346 0.069534
0.114697 -0.013339 0.059995
0.111092 -0.018816 0.077397
0.110402 -0.021549 0.085019
0.109130 -0.013783 0.081709
0.110823 -0.014290 0.075130
0.112144 -0.013721 0.068601
0.112886 -0.011318 0.063174
0.125238 -0.016840 0.060213
0.126317 -0.018964 0.059440
0.123819 -0.017788 0.066475
0.125862 -0.022116 0.068539
0.122659 -0.017716 0.074633
0.123808 -0.023291 0.077198
0.120253 -0.017476 0.082956
0.122175 -0.027686 0.074904
0.123761 -0.031963 0.076281
0.123643 -0.023915 0.058567
0.124106 -0.020548 0.059191
0.122243 -0.029020 0.087940
0.122285 -0.031834 0.086196
0.121853 -0.026116 0.088145
0.117848 -0.017949 0.089828
0.119927 -0.022669 0.091778
0.120276 -0.024404 0.094437
0.106096 -0.019540 0.087548
0.094584 -0.014715 0.093272
0.097532 -0.018573 0.105487
0.085591 -0.013498 0.092802
0.082696 -0.013393 0.104901
0.112221 -0.006642 0.060288
0.114981 -0.007205 0.060500
0.118613 -0.007999 0.059210
0.113496 -0.008676 0.060509
0.115648 -0.009585 0.060382
0.120808 -0.012753 0.060385
0.113862 -0.010414 0.061772
0.117292 -0.012507 0.062325
0.121719 -0.014655 0.061383
0.111657 -0.007569 0.066443
0.115178 -0.008196 0.066752
0.120074 -0.008790 0.067186
0.113091 -0.012692 0.067902
0.116855 -0.013399 0.067679
0.122204 -0.014892 0.067289
0.113266 -0.013528 0.068161
0.117601 -0.015188 0.067583
0.122149 -0.016200 0.066298
0.111717 -0.007445 0.072389
0.115941 -0.007962 0.073029
0.121103 -0.008785 0.073660
0.112684 -0.013252 0.074941
0.117461 -0.014491 0.074861
0.123842 -0.015314 0.074306
0.112470 -0.014680 0.075316
0.116838 -0.016114 0.075254
0.122081 -0.016438 0.074191
0.111604 -0.007921 0.078604
0.116405 -0.008518 0.080043
0.121609 -0.009311 0.081572
0.112120 -0.013036 0.080584
0.116778 -0.013759 0.080917
0.123269 -0.014646 0.082105
0.112233 -0.014104 0.081476
0.114863 -0.015033 0.081513
0.120166 -0.016163 0.082374
0.109664 -0.007405 0.085674
0.113897 -0.008028 0.088003
0.118047 -0.008560 0.090351
0.109802 -0.012124 0.084044
0.114765 -0.014594 0.086462
0.120274 -0.014905 0.089063
0.110373 -0.013356 0.083825
0.112649 -0.015339 0.086401
0.117018 -0.016887 0.088967
0.095004 -0.006292 0.095881
0.096395 -0.006477 0.100982
0.097790 -0.006941 0.105871
0.095267 -0.011511 0.095386
0.096384 -0.012423 0.100547
0.097823 -0.013293 0.105909
0.095276 -0.015309 0.097558
0.096300 -0.017065 0.101575
0.097239 -0.016627 0.105034
0.086360 -0.004764 0.094162
0.086152 -0.004585 0.099370
0.085639 -0.004586 0.104469
0.085840 -0.009036 0.095530
0.085251 -0.009674 0.099965
0.084581 -0.009702 0.104663
0.084743 -0.011058 0.096937
0.084300 -0.011383 0.099888
0.083114 -0.011705 0.102929
0.092052 -0.005933 0.054139
0.091347 -0.003867 0.056579
0.091929 -0.009454 0.055541
0.090732 -0.007031 0.057626
0.091879 -0.002859 0.061541
0.091284 -0.006260 0.062378
0.091893 -0.004211 0.066256
0.091951 -0.006217 0.068994
0.091215 -0.004436 0.069936
0.091882 -0.007555 0.073161
0.090665 -0.005288 0.073300
0.091854 -0.008001 0.075736
0.090347 -0.005908 0.076626
0.093114 -0.009826 0.079186
0.091340 -0.013519 0.058747
0.092184 -0.009040 0.063754
0.093297 -0.013580 0.070385
0.093162 -0.014170 0.067018
0.092591 -0.013317 0.076367
0.093762 -0.013970 0.081901
0.093720 -0.006673 0.080751
0.095335 -0.009506 0.082280
0.098408 -0.017070 0.086857
0.096586 -0.006305 0.083671
0.101134 -0.006474 0.089056
0.113638 -0.007677 0.102035
0.117483 -0.007224 0.106439
0.099343 -0.012446 0.086900
0.101321 -0.010475 0.088923
0.115821 -0.016145 0.100988
0.118658 -0.016903 0.105849
0.103437 -0.019027 0.091225
0.104192 -0.014015 0.092398
0.108021 -0.022125 0.095766
0.108727 -0.016977 0.096683
0.115662 -0.022496 0.102566
0.113877 -0.017491 0.099340
0.104169 -0.006719 0.092320
0.107254 -0.007239 0.095441
0.110542 -0.007606 0.098812
0.105489 -0.012733 0.091207
0.109579 -0.014128 0.094695
0.114056 -0.014997 0.099678
0.105511 -0.014304 0.092981
0.109463 -0.015892 0.095946
0.112797 -0.016345 0.099309
0.079783 -0.004566 0.086124
0.080798 -0.009605 0.088394
0.079648 -0.011754 0.092756
0.076927 -0.013311 0.097505
0.073263 -0.012486 0.103893
0.071894 -0.007721 0.107409
0.071934 -0.003353 0.108085
0.079418 -0.004437 0.090049
0.079476 -0.008459 0.091874
0.079294 -0.011093 0.093769
0.076941 -0.012100 0.097620
0.074258 -0.010177 0.102997
0.073667 -0.005845 0.105285
0.074016 -0.003207 0.104119
0.078742 -0.004060 0.093852
0.077587 -0.003626 0.097539
0.075831 -0.003553 0.100811
0.078735 -0.007169 0.095033
0.077423 -0.006290 0.098853
0.075889 -0.005930 0.102188
0.078732 -0.009465 0.095731
0.077710 -0.010133 0.099152
0.076465 -0.008880 0.101976
0.072041 -0.003429 0.091810
0.073582 -0.007340 0.091817
0.073574 -0.009963 0.093787
0.069468 -0.010048 0.096420
0.068629 -0.010040 0.100154
0.067304 -0.005904 0.101501
0.067276 -0.002621 0.101840
0.073998 -0.003471 0.092051
0.075546 -0.007350 0.092587
0.075497 -0.009555 0.093914
0.071810 -0.009751 0.095873
0.069366 -0.008574 0.100243
0.069151 -0.004853 0.101097
0.070029 -0.002678 0.101008
0.075824 -0.004328 0.093438
0.075968 -0.005766 0.093530
0.076176 -0.007637 0.094481
0.073891 -0.008000 0.096423
0.073105 -0.007016 0.099323
0.073067 -0.003956 0.099784
0.073361 -0.003220 0.099723
0.073271 -0.003372 0.095721
0.073238 -0.004198 0.095787
0.069726 -0.002886 0.095486
0.067528 -0.003461 0.095164
0.070369 -0.005797 0.094751
0.068334 -0.006447 0.094417
0.084641 -0.006440 0.057635
0.083580 -0.005802 0.059339
0.083909 -0.005037 0.062631
0.084154 -0.006019 0.067120
0.084090 -0.005853 0.072142
0.083910 -0.005813 0.075880
0.082512 -0.006568 0.079149
0.086179 -0.008216 0.061078
0.085125 -0.006451 0.063644
0.086555 -0.008039 0.066753
0.086536 -0.008510 0.064231
0.085732 -0.008208 0.076041
0.085554 -0.009910 0.081436
0.082016 -0.008488 0.082632
0.083176 -0.011095 0.085422
0.086513 -0.007190 0.056089
0.086790 -0.006273 0.058519
0.086847 -0.005602 0.063017
0.086812 -0.005657 0.067704
0.086798 -0.006117 0.073459
0.086508 -0.006732 0.076570
0.086625 -0.008078 0.079627
0.087480 -0.009618 0.059562
0.087923 -0.007467 0.063488
0.088680 -0.009499 0.067701
0.088892 -0.010414 0.064569
0.086739 -0.009187 0.075835
0.087684 -0.010321 0.080960
0.087537 -0.009449 0.083339
0.087749 -0.012973 0.086209
0.085919 -0.004951 0.054641
0.085654 -0.003034 0.057752
0.081870 -0.004131 0.055845
0.082271 -0.002624 0.059024
0.085534 -0.002344 0.062079
0.081885 -0.001755 0.062409
0.085372 -0.003278 0.065789
0.081436 -0.001681 0.065270
0.085162 -0.003444 0.069174
0.081024 -0.001780 0.068139
0.084730 -0.003493 0.072538
0.080861 -0.001601 0.071222
0.084091 -0.004356 0.075716
0.080913 -0.001903 0.073750
0.083970 -0.005859 0.081344
0.079554 -0.003223 0.081607
0.121968 -0.018932 0.101411
0.120161 -0.024097 0.100815
0.110505 -0.023321 0.094789
0.104160 -0.019711 0.090436
0.101266 -0.018565 0.088741
0.116656 0.024502 0.086348
0.116656 0.025662 0.085547
0.116288 0.028642 0.084983
0.116693 0.023408 0.083906
0.117009 0.022924 0.078071
0.118124 0.021774 0.069595
0.119849 0.015572 0.059411
0.117358 0.031442 0.074134
0.117351 0.019133 0.057970
0.117216 0.025874 0.072831
0.117888 0.014990 0.057579
0.114335 0.016284 0.081798
0.116218 0.017205 0.074995
0.117637 0.017015 0.067477
0.118989 0.013562 0.060649
0.104991 0.018991 0.083401
0.109194 0.022018 0.083317
0.109217 0.023641 0.082008
0.104213 0.012940 0.079708
0.106122 0.013802 0.074078
0.107709 0.014248 0.068107
0.110280 0.008377 0.059895
0.108903 0.027142 0.072590
0.110963 0.012493 0.056310
0.108651 0.020626 0.071377
0.109481 0.009193 0.056592
0.107550 0.012031 0.078722
0.108432 0.012078 0.074908
0.110181 0.012652 0.068548
0.111924 0.008556 0.060505
0.102347 0.011960 0.055431
0.099654 0.009324 0.056144
0.100268 0.008335 0.060776
0.100112 0.009626 0.068192
0.099546 0.009900 0.074002
0.099674 0.009298 0.077093
0.127259 0.016048 0.083815
0.129590 0.016833 0.075397
0.129195 0.017503 0.066072
0.128848 0.016842 0.061575
0.129881 0.019618 0.086421
0.131360 0.020604 0.077748
0.131504 0.020404 0.068111
0.131990 0.020502 0.062681
0.102599 0.020263 0.075905
0.101681 0.022401 0.065871
0.100331 0.013769 0.066994
0.101535 0.017230 0.076228
0.100266 0.016607 0.080343
0.095649 0.010664 0.055103
0.093975 0.008017 0.057178
0.094784 0.006693 0.061761
0.095080 0.010564 0.064707
0.094915 0.016920 0.060761
0.094793 0.007852 0.069091
0.094627 0.008933 0.072660
0.096306 0.014678 0.072039
0.096475 0.017052 0.069690
0.094611 0.008845 0.075738
0.095228 0.014431 0.077263
0.130345 0.026450 0.061132
0.129973 0.022534 0.061235
0.129260 0.031810 0.077519
0.129761 0.025690 0.075660
0.127953 0.027197 0.084907
0.128855 0.032016 0.083202
0.127908 0.024486 0.087056
0.123547 0.017427 0.091157
0.127582 0.018956 0.093331
0.112142 0.016466 0.086644
0.106235 0.011488 0.083767
0.103061 0.012593 0.082118
0.099126 0.010655 0.081266
0.096089 0.009517 0.078788
0.113355 0.022070 0.089759
0.102991 0.018523 0.086727
0.115797 0.023745 0.092408
0.099914 0.016796 0.084680
0.095956 0.014639 0.081242
0.127336 0.021749 0.093997
0.089049 0.008211 0.055719
0.088887 0.006730 0.057986
0.089303 0.005857 0.062468
0.089362 0.005437 0.069290
0.089198 0.006525 0.073491
0.089480 0.007114 0.076368
0.089913 0.008268 0.079710
0.089216 0.011522 0.058233
0.090322 0.008143 0.063430
0.091216 0.011782 0.069132
0.091170 0.012558 0.065827
0.090239 0.011397 0.076518
0.091273 0.012392 0.081187
0.091427 0.009194 0.082875
0.093055 0.015040 0.086069
0.128474 0.008035 0.093583
0.122255 0.008596 0.092831
0.130277 0.008604 0.083764
0.126691 0.009146 0.082914
0.130166 0.009110 0.074802
0.126558 0.009080 0.074388
0.128524 0.009291 0.065925
0.124834 0.008901 0.066901
0.102558 0.007560 0.075569
0.106865 0.007654 0.077133
0.107412 0.007122 0.071749
0.104101 0.007063 0.071173
0.108880 0.007314 0.066409
0.105868 0.006779 0.066069
0.110058 0.006138 0.060030
0.109285 0.005627 0.059611
0.110114 0.006365 0.053536
0.102156 0.006587 0.053140
0.110178 0.006555 0.055214
0.100283 0.005675 0.055606
0.100740 0.004344 0.060277
0.100436 0.005801 0.065939
0.099683 0.006405 0.070322
0.098733 0.006911 0.074631
0.126349 0.008789 0.060013
0.122277 0.008222 0.059112
0.095764 0.006033 0.053286
0.094769 0.004599 0.056293
0.095480 0.003450 0.061062
0.095544 0.004987 0.066029
0.095189 0.005448 0.070150
0.094432 0.006155 0.073641
0.105119 0.006905 0.083346
0.100637 0.007165 0.081269
0.097438 0.007213 0.079146
0.093534 0.006574 0.077301
0.088830 0.005410 0.054337
0.088487 0.003400 0.057032
0.088478 0.002497 0.061895
0.088497 0.003700 0.066036
0.088267 0.003864 0.069896
0.087393 0.004456 0.073508
0.087219 0.005421 0.075845
0.089450 0.006415 0.081662
0.091443 0.006636 0.084965
0.092647 0.010805 0.086472
0.097343 0.021812 0.100174
0.100398 0.014966 0.113036
0.101481 0.006860 0.113444
0.093360 0.006335 0.089938
0.099498 0.006974 0.110464
0.094224 0.010762 0.090541
0.097255 0.019520 0.101777
0.099266 0.014188 0.109769
0.085219 0.005828 0.085062
0.087164 0.010243 0.087211
0.084482 0.016890 0.098615
0.083092 0.010444 0.112515
0.083702 0.004748 0.113436
0.086024 0.004921 0.089594
0.084748 0.004652 0.109270
0.086228 0.010571 0.091164
0.084508 0.015026 0.098903
0.083888 0.009815 0.109323
0.107587 0.018205 0.085220
0.108077 0.013972 0.084295
0.122455 0.023159 0.085008
0.109164 0.017949 0.082081
0.086660 0.014328 0.092394
0.082633 0.016411 0.107775
0.095445 0.017511 0.091730
0.099168 0.019661 0.107538
0.112661 0.029418 0.073393
0.112186 0.023683 0.071415
0.112936 0.011475 0.057582
0.113271 0.016496 0.057230
0.112138 0.025922 0.083210
0.112988 0.024372 0.084677
0.112973 0.019365 0.069534
0.114697 0.013359 0.059991
0.111097 0.018835 0.077399
0.110409 0.021567 0.085022
0.109134 0.013802 0.081710
0.110827 0.014309 0.075131
0.112147 0.013740 0.068600
0.112887 0.011338 0.063172
0.125239 0.016860 0.060208
0.126317 0.018984 0.059435
0.123821 0.017806 0.066471
0.125866 0.022132 0.068535
0.122663 0.017733 0.074631
0.123814 0.023306 0.077196
0.120258 0.017492 0.082956
0.122183 0.027702 0.074902
0.123771 0.031976 0.076281
0.123643 0.023933 0.058560
0.124106 0.020568 0.059185
0.122253 0.029033 0.087940
0.122296 0.031847 0.086197
0.121861 0.026128 0.088145
0.117853 0.017964 0.089829
0.119933 0.022684 0.091779
0.120282 0.024419 0.094439
0.106102 0.019559 0.087551
0.094588 0.014736 0.093274
0.097536 0.018591 0.105490
0.085594 0.013522 0.092804
0.082699 0.013416 0.104903
0.112221 0.006662 0.060286
0.114981 0.007225 0.060497
0.118613 0.008018 0.059208
0.113496 0.008696 0.060507
0.115648 0.009604 0.060379
0.120808 0.012772 0.060382
0.113862 0.010434 0.061769
0.117293 0.012526 0.062322
0.121719 0.014675 0.061379
0.111658 0.007590 0.066442
0.115179 0.008216 0.066750
0.120075 0.008809 0.067184
0.113093 0.012711 0.067901
0.116857 0.013419 0.067677
0.122205 0.014911 0.067286
0.113268 0.013548 0.068160
0.117603 0.015207 0.067580
0.122151 0.016219 0.066294
0.111718 0.007465 0.072389
0.115943 0.007981 0.073029
0.121105 0.008803 0.073659
0.112688 0.013272 0.074941
0.117465 0.014509 0.074860
0.123845 0.015330 0.074305
0.112473 0.014699 0.075316
0.116842 0.016132 0.075254
0.122085 0.016455 0.074190
0.111606 0.007940 0.078604
0.116407 0.008536 0.080043
0.121612 0.009327 0.081571
0.112123 0.013054 0.080585
0.116782 0.013776 0.080917
0.123272 0.014662 0.082104
0.112237 0.014122 0.081477
0.114867 0.015050 0.081513
0.120171 0.016179 0.082374
0.109666 0.007423 0.085675
0.113899 0.008045 0.088004
0.118049 0.008576 0.090351
0.109805 0.012143 0.084045
0.114769 0.014611 0.086463
0.120278 0.014920 0.089063
0.110377 0.013375 0.083826
0.112653 0.015356 0.086403
0.117023 0.016903 0.088968
0.095006 0.006313 0.095882
0.096396 0.006496 0.100983
0.097791 0.006960 0.105872
0.095270 0.011532 0.095388
0.096388 0.012443 0.100549
0.097827 0.013312 0.105911
0.095280 0.015330 0.097560
0.096304 0.017085 0.101578
0.097243 0.016645 0.105036
0.086361 0.004787 0.094163
0.086153 0.004607 0.099370
0.085640 0.004608 0.104470
0.085842 0.009059 0.095531
0.085253 0.009696 0.099966
0.084583 0.009724 0.104664
0.084746 0.011081 0.096939
0.084303 0.011406 0.099890
0.083117 0.011728 0.102931
0.092054 0.005960 0.054140
0.091348 0.003894 0.056580
0.091932 0.009481 0.055542
0.090734 0.007058 0.057627
0.091880 0.002886 0.061541
0.091285 0.006287 0.062380
0.091894 0.004237 0.066257
0.091953 0.006243 0.068994
0.091216 0.004462 0.069936
0.091884 0.007580 0.073163
0.090667 0.005314 0.073300
0.091857 0.008025 0.075737
0.090348 0.005933 0.076627
0.093117 0.009850 0.079187
0.091343 0.013546 0.058749
0.092186 0.009067 0.063756
0.093301 0.013606 0.070387
0.093166 0.014196 0.067020
0.092595 0.013341 0.076369
0.093766 0.013993 0.081904
0.093722 0.006696 0.080752
0.095338 0.009529 0.082281
0.098413 0.017091 0.086860
0.096587 0.006328 0.083672
0.101135 0.006495 0.089057
0.113640 0.007692 0.102036
0.117486 0.007238 0.106439
0.099347 0.012467 0.086902
0.101323 0.010495 0.088925
0.115825 0.016160 0.100989
0.118662 0.016918 0.105851
0.103443 0.019047 0.091228
0.104197 0.014034 0.092401
0.108028 0.022143 0.095770
0.108731 0.016994 0.096685
0.115664 0.022510 0.102566
0.113882 0.017506 0.099342
0.104170 0.006738 0.092321
0.107256 0.007257 0.095442
0.110544 0.007622 0.098813
0.105493 0.012752 0.091208
0.109583 0.014146 0.094696
0.114060 0.015012 0.099679
0.105515 0.014322 0.092983
0.109467 0.015909 0.095948
0.112801 0.016360 0.099311
0.079784 0.004592 0.086125
0.080800 0.009631 0.088396
0.079651 0.011779 0.092758
0.076931 0.013336 0.097507
0.073266 0.012511 0.103895
0.071896 0.007745 0.107410
0.071935 0.003378 0.108086
0.079419 0.004462 0.090050
0.079478 0.008485 0.091876
0.079297 0.011118 0.093771
0.076944 0.012124 0.097622
0.074260 0.010202 0.102998
0.073669 0.005870 0.105286
0.074017 0.003232 0.104120
0.078743 0.004085 0.093852
0.077588 0.003650 0.097539
0.075832 0.003578 0.100811
0.078737 0.007194 0.095034
0.077425 0.006315 0.098854
0.075891 0.005955 0.102189
0.078735 0.009490 0.095733
0.077712 0.010157 0.099154
0.076468 0.008904 0.101977
0.072042 0.003456 0.091810
0.073584 0.007366 0.091818
0.073576 0.009989 0.093789
0.069470 0.010075 0.096422
0.068631 0.010067 0.100156
0.067305 0.005931 0.101502
0.067276 0.002647 0.101841
0.073999 0.003498 0.092052
0.075548 0.007376 0.092588
0.075499 0.009581 0.093915
0.071812 0.009778 0.095875
0.069368 0.008600 0.100244
0.069152 0.004879 0.101098
0.070029 0.002704 0.101009
0.075825 0.004354 0.093438
0.075969 0.005792 0.093531
0.076178 0.007663 0.094482
0.073893 0.008026 0.096425
0.073107 0.007042 0.099324
0.073068 0.003981 0.099785
0.073362 0.003246 0.099724
0.073271 0.003399 0.095722
0.073239 0.004224 0.095787
0.069726 0.002913 0.095487
0.067529 0.003488 0.095164
0.070370 0.005824 0.094752
0.068336 0.006475 0.094418
0.084643 0.006470 0.057637
0.083582 0.005832 0.059340
0.083911 0.005067 0.062632
0.084155 0.006047 0.067121
0.084092 0.005880 0.072143
0.083912 0.005840 0.075881
0.082513 0.006594 0.079151
0.086182 0.008246 0.061079
0.085127 0.006481 0.063645
0.086558 0.008067 0.066755
0.086538 0.008538 0.064233
0.085734 0.008234 0.076042
0.085557 0.009935 0.081438
0.082019 0.008514 0.082634
0.083178 0.011121 0.085424
0.086515 0.007220 0.056090
0.086791 0.006302 0.058521
0.086849 0.005630 0.063019
0.086813 0.005684 0.067705
0.086800 0.006144 0.073460
0.086510 0.006758 0.076571
0.086627 0.008104 0.079629
0.087483 0.009647 0.059563
0.087925 0.007496 0.063490
0.088683 0.009527 0.067703
0.088895 0.010442 0.064571
0.086741 0.009214 0.075837
0.087687 0.010346 0.080961
0.087540 0.009473 0.083341
0.087752 0.012997 0.086211
0.085921 0.004982 0.054643
0.085654 0.003064 0.057753
0.081871 0.004163 0.055846
0.082272 0.002654 0.059024
0.085534 0.002374 0.062080
0.081885 0.001785 0.062410
0.085373 0.003307 0.065790
0.081437 0.001711 0.065270
0.085163 0.003472 0.069174
0.081024 0.001810 0.068139
0.084731 0.003520 0.072538
0.080862 0.001629 0.071223
0.084092 0.004383 0.075717
0.080914 0.001931 0.073751
0.083972 0.005885 0.081345
0.079555 0.003250 0.081608
0.121972 0.018947 0.101412
0.120164 0.024110 0.100814
0.110512 0.023338 0.094792
0.104166 0.019730 0.090439
0.101272 0.018585 0.088744
0.106029 0.000010 0.076126
0.106781 0.000011 0.070469
0.107230 0.000011 0.065488
0.110020 0.000010 0.060032
0.108897 0.000010 0.059984
0.108657 0.000009 0.055241
0.108331 0.000009 0.052038
0.101585 0.000011 0.074861
0.102704 0.000011 0.069491
0.103520 0.000011 0.065411
0.099932 0.000012 0.065209
0.101059 0.000011 0.060302
0.101450 0.000011 0.055283
0.101550 0.000011 0.051845
0.099154 0.000012 0.069164
0.097918 0.000012 0.073675
0.123895 0.000008 0.082180
0.123603 0.000009 0.073548
0.121432 0.000009 0.066382
0.117905 0.000009 0.059298
0.127236 0.000009 0.066261
0.121879 0.000008 0.059061
0.095907 0.000012 0.053192
0.095594 0.000012 0.055905
0.095417 0.000013 0.060742
0.095200 0.000013 0.065221
0.094927 0.000012 0.069050
0.094158 0.000012 0.072852
0.093163 0.000012 0.077143
0.097134 0.000011 0.079053
0.100560 0.000011 0.081307
0.104384 0.000010 0.083458
0.120028 0.000008 0.092179
0.126493 0.000007 0.092417
0.088656 0.000014 0.056611
0.088551 0.000015 0.053540
0.088557 0.000014 0.061188
0.088150 0.000014 0.065273
0.087787 0.000014 0.068967
0.086551 0.000013 0.073234
0.086109 0.000013 0.076110
0.088267 0.000013 0.080093
0.091113 0.000012 0.084597
0.100759 0.000008 0.112813
0.093176 0.000011 0.089543
0.099564 0.000009 0.109889
0.084012 0.000013 0.083369
0.084243 0.000010 0.112821
0.085663 0.000012 0.088228
0.084733 0.000011 0.109081
0.112279 0.000010 0.060093
0.114014 0.000010 0.060048
0.115747 0.000010 0.060002
0.110693 0.000011 0.065716
0.113809 0.000010 0.066233
0.117327 0.000010 0.066653
0.110337 0.000010 0.071427
0.114816 0.000010 0.072335
0.119295 0.000009 0.073136
0.110578 0.000010 0.077637
0.115050 0.000009 0.079206
0.119391 0.000009 0.080851
0.108005 0.000009 0.085425
0.112112 0.000009 0.087793
0.115955 0.000008 0.089820
0.094781 0.000010 0.094646
0.096306 0.000010 0.100444
0.097676 0.000009 0.105287
0.086298 0.000012 0.093535
0.086270 0.000011 0.098632
0.085739 0.000011 0.104240
0.091668 0.000013 0.065469
0.092138 0.000013 0.060958
0.092091 0.000014 0.053004
0.092138 0.000014 0.056321
0.091267 0.000013 0.068839
0.090212 0.000013 0.072693
0.089742 0.000013 0.076511
0.092301 0.000012 0.079323
0.097151 0.000011 0.084500
0.100128 0.000010 0.087972
0.111745 0.000008 0.101750
0.115911 0.000007 0.106433
0.105648 0.000009 0.094850
0.108557 0.000009 0.098294
0.079011 0.000013 0.085378
0.072021 0.000012 0.107246
0.078996 0.000013 0.089672
0.074296 0.000012 0.104048
0.078574 0.000013 0.093912
0.077499 0.000012 0.097335
0.075934 0.000012 0.100647
0.071642 0.000014 0.089604
0.067368 0.000013 0.101391
0.073643 0.000013 0.091889
0.070168 0.000013 0.100754
0.075407 0.000013 0.094023
0.073585 0.000013 0.099565
0.073546 0.000013 0.095939
0.069670 0.000014 0.095925
0.066607 0.000014 0.096194
0.128583 0.000007 0.083921
0.128796 0.000008 0.075011
0.102624 0.000010 0.091197
0.080171 0.000016 0.055389
0.080820 0.000016 0.058123
0.080453 0.000015 0.061699
0.080300 0.000015 0.064953
0.080127 0.000015 0.067725
0.079897 0.000015 0.070994
0.079694 0.000014 0.073455
0.079405 0.000014 0.080983
0.085370 0.000015 0.057202
0.085178 0.000015 0.053647
0.085038 0.000015 0.061348
0.084524 0.000014 0.065232
0.084402 0.000014 0.068373
0.083631 0.000014 0.072195
0.083223 0.000014 0.076118
0.083227 0.000013 0.079472
0.151840 0.035891 0.125000
0.151840 -0.035891 0.125000

CELLS 740 6660
8 9 10 8 7 168 169 170 167
8 168 169 170 167 24 25 23 22
8 1 9 7 2 172 168 167 171
8 172 168 167 171 16 24 22 17
8 5 6 10 9 173 174 169 168
8 173 174 169 168 20 21 25 24
8 4 5 9 1 175 173 168 172
8 175 173 168 172 19 20 24 16
8 3 4 1 0 162 175 172 176
8 162 175 172 176 18 19 16 15
8 11 12 4 3 177 178 175 162
8 177 178 175 162 26 27 19 18
8 12 13 5 4 178 179 173 175
8 178 179 173 175 27 28 20 19
8 13 14 6 5 179 180 174 173
8 179 180 174 173 28 29 21 20
8 26 27 19 18 104 105 106 103
8 104 105 106 103 826 827 834 833
8 27 28 20 19 105 107 108 106
8 105 107 108 106 827 828 835 834
8 28 29 21 20 107 109 110 108
8 107 109 110 108 828 829 830 835
8 111 112 30 23 113 114 31 25
8 832 839 112 111 831 838 114 113
8 113 114 31 25 110 115 32 21
8 831 838 114 113 830 837 115 110
8 110 115 32 21 108 116 33 20
8 830 837 115 110 835 836 116 108
8 108 116 33 20 106 117 34 19
8 835 836 116 108 834 840 117 106
8 106 117 34 19 103 118 35 18
8 834 840 117 106 833 841 118 103
8 119 120 39 43 101 102 38 42
8 847 845 120 119 846 844 102 101
8 101 102 38 42 99 100 37 41
8 846 844 102 101 928 843 100 99
8 99 100 37 41 97 98 36 40
8 928 843 100 99 927 842 98 97
8 39 181 182 43 38 183 184 42
8 181 14 6 182 183 13 5 184
8 38 183 184 42 37 185 186 41
8 183 13 5 184 185 12 4 186
8 37 185 186 41 36 187 161 40
8 185 12 4 186 187 11 3 161
8 23 30 45 22 25 31 46 24
8 25 31 46 24 21 32 33 20
8 33 46 24 20 34 47 16 19
8 34 47 16 19 35 48 15 18
8 22 45 44 17 24 46 47 16
8 112 114 838 839 121 122 849 848
8 30 31 114 112 49 50 122 121
8 114 122 50 31 115 123 51 32
8 838 849 122 114 837 850 123 115
8 31 50 49 30 46 52 53 45
8 31 50 52 46 32 51 54 33
8 32 115 123 51 33 116 124 54
8 115 837 850 123 116 836 851 124
8 116 124 54 33 117 125 55 34
8 836 851 124 116 840 852 125 117
8 33 54 52 46 34 55 56 47
8 46 52 53 45 47 56 57 44
8 117 125 55 34 118 126 58 35
8 840 852 125 117 841 853 126 118
8 34 55 56 47 35 58 59 48
8 7 8 10 9 189 190 191 188
8 189 190 191 188 62 60 61 63
8 5 9 10 6 184 188 191 182
8 184 188 191 182 42 63 61 43
8 184 188 63 42 186 192 64 41
8 5 9 188 184 4 1 192 186
8 188 189 62 63 192 193 65 64
8 9 7 189 188 1 2 193 192
8 186 192 64 41 161 194 66 40
8 4 1 192 186 3 0 194 161
8 842 98 97 927 858 96 95 859
8 98 36 40 97 96 67 68 95
8 104 103 18 26 127 128 71 70
8 826 833 103 104 857 856 128 127
8 103 118 35 18 128 129 72 71
8 833 841 118 103 856 855 129 128
8 118 126 58 35 129 130 73 72
8 841 853 126 118 855 854 130 129
8 36 187 161 40 67 195 196 68
8 187 11 3 161 195 69 74 196
8 11 177 162 3 69 160 159 74
8 177 26 18 162 160 70 71 159
8 40 161 194 66 68 196 197 79
8 161 3 0 194 196 74 76 197
8 3 162 176 0 74 159 198 76
8 162 18 15 176 159 71 75 198
8 18 35 48 15 71 72 77 75
8 35 58 59 48 72 73 78 77
8 266 121 848 899 267 122 849 900
8 131 266 899 861 132 267 900 860
8 268 49 121 266 269 50 122 267
8 80 268 266 131 81 269 267 132
8 394 392 939 930 395 393 938 931
8 362 377 392 394 363 378 393 395
8 269 50 122 267 271 51 123 270
8 81 269 267 132 82 271 270 133
8 267 122 849 900 270 123 850 898
8 132 267 900 860 133 270 898 862
8 363 378 393 395 364 379 396 397
8 395 393 938 931 397 396 940 932
8 271 51 123 270 273 54 124 272
8 82 271 270 133 83 273 272 134
8 270 123 850 898 272 124 851 897
8 133 270 898 862 134 272 897 863
8 364 379 396 397 365 380 398 399
8 397 396 940 932 399 398 941 933
8 273 54 124 272 275 55 125 274
8 83 273 272 134 84 275 274 135
8 272 124 851 897 274 125 852 901
8 134 272 897 863 135 274 901 864
8 365 380 398 399 366 381 400 401
8 399 398 941 933 401 400 942 934
8 275 55 125 274 277 58 126 276
8 84 275 274 135 85 277 276 136
8 274 125 852 901 276 126 853 902
8 135 274 901 864 136 276 902 865
8 366 381 400 401 367 382 402 403
8 401 400 942 934 403 402 943 935
8 277 58 126 276 279 73 130 278
8 85 277 276 136 86 279 278 137
8 276 126 853 902 278 130 854 903
8 136 276 902 865 137 278 903 866
8 367 382 402 403 368 383 404 405
8 403 402 943 935 405 404 944 936
8 280 53 49 268 281 52 50 269
8 87 280 268 80 88 281 269 81
8 369 384 377 362 370 385 378 363
8 281 52 50 269 273 54 51 271
8 81 269 271 82 88 281 273 83
8 363 378 379 364 370 385 380 365
8 281 52 54 273 282 56 55 275
8 88 281 273 83 89 282 275 84
8 370 385 380 365 371 386 381 366
8 372 387 384 369 371 386 385 370
8 90 283 280 87 89 282 281 88
8 283 57 53 280 282 56 52 281
8 282 56 55 275 284 59 58 277
8 89 282 275 84 91 284 277 85
8 371 386 381 366 373 388 382 367
8 284 59 58 277 285 78 73 279
8 91 284 277 85 92 285 279 86
8 373 388 382 367 374 389 383 368
8 279 73 130 278 287 72 129 286
8 86 279 278 137 93 287 286 138
8 278 130 854 903 286 129 855 904
8 137 278 903 866 138 286 904 867
8 368 383 404 405 375 390 406 407
8 405 404 944 936 407 406 945 937
8 285 78 73 279 288 77 72 287
8 92 285 279 86 94 288 287 93
8 374 389 383 368 376 391 390 375
8 128 127 857 856 289 290 906 905
8 289 290 906 905 139 144 870 868
8 96 95 859 858 291 292 908 907
8 291 292 908 907 145 143 869 871
8 71 70 127 128 293 294 290 289
8 293 294 290 289 140 146 144 139
8 67 68 95 96 295 296 292 291
8 295 296 292 291 148 142 143 145
8 71 159 160 70 293 297 298 294
8 293 297 298 294 140 165 199 146
8 159 74 69 160 297 299 300 298
8 297 299 300 298 165 141 147 199
8 74 196 195 69 299 301 302 300
8 299 301 302 300 141 166 200 147
8 196 68 67 195 301 296 295 302
8 301 296 295 302 166 142 148 200
8 139 144 870 868 149 154 874 872
8 145 143 869 871 155 153 873 875
8 140 146 144 139 150 156 154 149
8 148 142 143 145 158 152 153 155
8 140 165 199 146 150 163 201 156
8 165 141 147 199 163 151 157 201
8 141 166 200 147 151 164 202 157
8 166 142 148 200 164 152 158 202
8 138 286 904 867 139 289 905 868
8 286 129 855 904 289 128 856 905
8 407 406 945 937 312 149 872 911
8 93 287 286 138 140 293 289 139
8 287 72 129 286 293 71 128 289
8 375 390 406 407 313 150 149 312
8 109 203 876 829 107 212 879 828
8 203 204 877 876 212 213 880 879
8 204 205 878 877 213 214 881 880
8 205 120 845 878 214 102 844 881
8 29 206 203 109 28 215 212 107
8 206 207 204 203 215 216 213 212
8 207 208 205 204 216 217 214 213
8 208 39 120 205 217 38 102 214
8 180 209 206 29 179 218 215 28
8 209 210 207 206 218 219 216 215
8 210 211 208 207 219 220 217 216
8 211 181 39 208 220 183 38 217
8 180 14 210 209 179 13 219 218
8 14 181 211 210 13 183 220 219
8 107 212 879 828 105 221 882 827
8 212 213 880 879 221 222 883 882
8 213 214 881 880 222 223 884 883
8 214 102 844 881 223 100 843 884
8 28 215 212 107 27 224 221 105
8 215 216 213 212 224 225 222 221
8 216 217 214 213 225 226 223 222
8 217 38 102 214 226 37 100 223
8 179 218 215 28 178 227 224 27
8 218 219 216 215 227 228 225 224
8 219 220 217 216 228 229 226 225
8 220 183 38 217 229 185 37 226
8 179 13 219 218 178 12 228 227
8 13 183 220 219 12 185 229 228
8 105 221 882 827 104 230 885 826
8 221 222 883 882 230 231 886 885
8 222 223 884 883 231 232 887 886
8 223 100 843 884 232 98 842 887
8 27 224 221 105 26 233 230 104
8 224 225 222 221 233 234 231 230
8 225 226 223 222 234 235 232 231
8 226 37 100 223 235 36 98 232
8 178 227 224 27 177 236 233 26
8 227 228 225 224 236 237 234 233
8 228 229 226 225 237 238 235 234
8 229 185 37 226 238 187 36 235
8 178 12 228 227 177 11 237 236
8 12 185 229 228 11 187 238 237
8 104 230 885 826 127 239 888 857
8 230 231 886 885 239 240 889 888
8 231 232 887 886 240 241 890 889
8 232 98 842 887 241 96 858 890
8 26 233 230 104 70 242 239 127
8 233 234 231 230 242 243 240 239
8 234 235 232 231 243 244 241 240
8 235 36 98 232 244 67 96 241
8 177 236 233 26 160 245 242 70
8 236 237 234 233 245 246 243 242
8 237 238 235 234 246 247 244 243
8 238 187 36 235 247 195 67 244
8 177 11 237 236 160 69 246 245
8 11 187 238 237 69 195 247 246
8 127 239 888 857 290 303 929 906
8 290 303 929 906 144 248 891 870
8 239 240 889 888 303 304 909 929
8 303 304 909 929 248 249 892 891
8 240 241 890 889 304 305 910 909
8 304 305 910 909 249 250 893 892
8 241 96 858 890 305 291 907 910
8 305 291 907 910 250 145 871 893
8 70 242 239 127 294 306 303 290
8 294 306 303 290 146 251 248 144
8 242 243 240 239 306 307 304 303
8 306 307 304 303 251 252 249 248
8 243 244 241 240 307 308 305 304
8 307 308 305 304 252 253 250 249
8 244 67 96 241 308 295 291 305
8 308 295 291 305 253 148 145 250
8 160 245 242 70 298 309 306 294
8 298 309 306 294 199 254 251 146
8 245 246 243 242 309 310 307 306
8 309 310 307 306 254 255 252 251
8 246 247 244 243 310 311 308 307
8 310 311 308 307 255 256 253 252
8 247 195 67 244 311 302 295 308
8 311 302 295 308 256 200 148 253
8 160 69 246 245 298 300 310 309
8 298 300 310 309 199 147 255 254
8 69 195 247 246 300 302 311 310
8 300 302 311 310 147 200 256 255
8 144 248 891 870 154 257 894 874
8 248 249 892 891 257 258 895 894
8 249 250 893 892 258 259 896 895
8 250 145 871 893 259 155 875 896
8 146 251 248 144 156 260 257 154
8 251 252 249 248 260 261 258 257
8 252 253 250 249 261 262 259 258
8 253 148 145 250 262 158 155 259
8 199 254 251 146 201 263 260 156
8 254 255 252 251 263 264 261 260
8 255 256 253 252 264 265 262 261
8 256 200 148 253 265 202 158 262
8 199 147 255 254 201 157 264 263
8 147 200 256 255 157 202 265 264
8 312 149 872 911 319 154 874 913
8 313 150 149 312 320 156 154 319
8 163 201 156 150 314 321 320 313
8 151 157 201 163 315 322 321 314
8 164 202 157 151 316 323 322 315
8 152 158 202 164 317 324 323 316
8 153 155 158 152 318 325 324 317
8 873 875 155 153 912 914 325 318
8 154 257 894 874 319 326 915 913
8 257 258 895 894 326 327 916 915
8 258 259 896 895 327 328 917 916
8 259 155 875 896 328 325 914 917
8 156 260 257 154 320 329 326 319
8 260 261 258 257 329 330 327 326
8 261 262 259 258 330 331 328 327
8 262 158 155 259 331 324 325 328
8 201 263 260 156 321 332 329 320
8 263 264 261 260 332 333 330 329
8 264 265 262 261 333 334 331 330
8 265 202 158 262 334 323 324 331
8 201 157 264 263 321 322 333 332
8 157 202 265 264 322 323 334 333
8 312 319 913 911 335 342 920 918
8 313 320 319 312 336 343 342 335
8 314 321 320 313 337 344 343 336
8 315 322 321 314 338 345 344 337
8 316 323 322 315 339 346 345 338
8 317 324 323 316 340 347 346 339
8 318 325 324 317 341 348 347 340
8 912 914 325 318 919 921 348 341
8 319 326 915 913 342 349 922 920
8 320 329 326 319 343 350 349 342
8 321 332 329 320 344 351 350 343
8 322 333 332 321 345 352 351 344
8 323 334 333 322 346 353 352 345
8 324 331 334 323 347 354 353 346
8 325 328 331 324 348 355 354 347
8 914 917 328 325 921 923 355 348
8 326 327 916 915 349 356 924 922
8 327 328 917 916 356 355 923 924
8 329 330 327 326 350 357 356 349
8 330 331 328 327 357 354 355 356
8 332 333 330 329 351 352 357 350
8 333 334 331 330 352 353 354 357
8 358 356 924 925 348 355 923 921
8 359 358 925 926 341 348 921 919
8 360 357 356 358 347 354 355 348
8 361 360 358 359 340 347 348 341
8 345 352 357 360 346 353 354 347
8 338 345 360 361 339 346 347 340
8 343 344 351 350 360 345 352 357
8 342 343 350 349 358 360 357 356
8 920 342 349 922 925 358 356 924
8 336 337 344 343 361 338 345 360
8 335 336 343 342 359 361 360 358
8 918 335 342 920 926 359 358 925
8 390 93 138 406 150 140 139 149
8 406 138 867 945 149 139 868 872
8 389 92 86 383 391 94 93 390
8 383 86 137 404 390 93 138 406
8 404 137 866 944 406 138 867 945
8 388 91 85 382 389 92 86 383
8 382 85 136 402 383 86 137 404
8 402 136 865 943 404 137 866 944
8 386 89 84 381 388 91 85 382
8 381 84 135 400 382 85 136 402
8 400 135 864 942 402 136 865 943
8 385 88 83 380 386 89 84 381
8 380 83 134 398 381 84 135 400
8 398 134 863 941 400 135 864 942
8 378 81 82 379 385 88 83 380
8 379 82 133 396 380 83 134 398
8 396 133 862 940 398 134 863 941
8 378 81 132 393 379 82 133 396
8 393 132 860 938 396 133 862 940
8 387 90 87 384 386 89 88 385
8 384 87 80 377 385 88 81 378
8 377 80 131 392 378 81 132 393
8 392 131 861 939 393 132 860 938
8 391 390 375 376 163 150 313 314
8 94 93 390 391 165 140 150 163
8 79 68 196 197 408 296 301 409
8 197 196 74 76 409 301 299 410
8 76 74 159 198 410 299 297 411
8 198 159 71 75 411 297 293 412
8 75 71 72 77 412 293 287 288
8 288 287 93 94 297 293 140 165
8 420 421 423 422 580 583 582 581
8 580 583 582 581 435 436 438 437
8 415 420 422 414 584 580 581 585
8 584 580 581 585 430 435 437 429
8 422 423 419 418 581 582 587 586
8 581 582 587 586 437 438 434 433
8 414 422 418 417 585 581 586 588
8 585 581 586 588 429 437 433 432
8 413 414 417 416 589 585 588 575
8 589 585 588 575 428 429 432 431
8 416 417 425 424 575 588 591 590
8 575 588 591 590 431 432 440 439
8 417 418 426 425 588 586 592 591
8 588 586 592 591 432 433 441 440
8 418 419 427 426 586 587 593 592
8 586 587 593 592 433 434 442 441
8 431 432 440 439 516 519 518 517
8 516 519 518 517 833 834 827 826
8 432 433 441 440 519 521 520 518
8 519 521 520 518 834 835 828 827
8 433 434 442 441 521 523 522 520
8 521 523 522 520 835 830 829 828
8 436 443 525 524 438 444 527 526
8 524 525 839 832 526 527 838 831
8 438 444 527 526 434 445 528 523
8 526 527 838 831 523 528 837 830
8 434 445 528 523 433 446 529 521
8 523 528 837 830 521 529 836 835
8 433 446 529 521 432 447 530 519
8 521 529 836 835 519 530 840 834
8 432 447 530 519 431 448 531 516
8 519 530 840 834 516 531 841 833
8 456 452 533 532 455 451 515 514
8 532 533 845 847 514 515 844 846
8 455 451 515 514 454 450 513 512
8 514 515 844 846 512 513 843 928
8 454 450 513 512 453 449 511 510
8 512 513 843 928 510 511 842 927
8 456 595 594 452 455 597 596 451
8 595 419 427 594 597 418 426 596
8 455 597 596 451 454 599 598 450
8 597 418 426 596 599 417 425 598
8 454 599 598 450 453 574 600 449
8 599 417 425 598 574 416 424 600
8 435 458 443 436 437 459 444 438
8 437 459 444 438 433 446 445 434
8 433 437 459 446 432 429 460 447
8 432 429 460 447 431 428 461 448
8 430 457 458 435 429 460 459 437
8 839 838 527 525 848 849 535 534
8 525 527 444 443 534 535 463 462
8 444 463 535 527 445 464 536 528
8 527 535 849 838 528 536 850 837
8 443 462 463 444 458 466 465 459
8 459 465 463 444 446 467 464 445
8 464 536 528 445 467 537 529 446
8 536 850 837 528 537 851 836 529
8 446 467 537 529 447 468 538 530
8 529 537 851 836 530 538 852 840
8 459 465 467 446 460 469 468 447
8 458 466 465 459 457 470 469 460
8 447 468 538 530 448 471 539 531
8 530 538 852 840 531 539 853 841
8 460 469 468 447 461 472 471 448
8 422 423 421 420 601 604 603 602
8 601 604 603 602 476 474 473 475
8 419 423 422 418 595 604 601 597
8 595 604 601 597 456 474 476 455
8 455 476 601 597 454 477 605 599
8 597 601 422 418 599 605 414 417
8 476 475 602 601 477 478 606 605
8 601 602 420 422 605 606 415 414
8 454 477 605 599 453 479 607 574
8 599 605 414 417 574 607 413 416
8 927 510 511 842 859 508 509 858
8 510 453 449 511 508 481 480 509
8 439 431 516 517 483 484 541 540
8 517 516 833 826 540 541 856 857
8 431 448 531 516 484 485 542 541
8 516 531 841 833 541 542 855 856
8 448 471 539 531 485 486 543 542
8 531 539 853 841 542 543 854 855
8 453 574 600 449 481 609 608 480
8 574 416 424 600 609 487 482 608
8 416 575 590 424 487 572 573 482
8 575 431 439 590 572 484 483 573
8 479 607 574 453 492 610 609 481
8 607 413 416 574 610 489 487 609
8 413 589 575 416 489 611 572 487
8 589 428 431 575 611 488 484 572
8 428 461 448 431 488 490 485 484
8 461 472 471 448 490 491 486 485
8 899 848 534 679 900 849 535 680
8 861 899 679 544 860 900 680 545
8 679 534 462 681 680 535 463 682
8 544 679 681 493 545 680 682 494
8 930 939 805 807 931 938 806 808
8 807 805 790 775 808 806 791 776
8 680 535 463 682 683 536 464 684
8 545 680 682 494 546 683 684 495
8 900 849 535 680 898 850 536 683
8 860 900 680 545 862 898 683 546
8 808 806 791 776 810 809 792 777
8 931 938 806 808 932 940 809 810
8 683 536 464 684 685 537 467 686
8 546 683 684 495 547 685 686 496
8 898 850 536 683 897 851 537 685
8 862 898 683 546 863 897 685 547
8 810 809 792 777 812 811 793 778
8 932 940 809 810 933 941 811 812
8 685 537 467 686 687 538 468 688
8 547 685 686 496 548 687 688 497
8 897 851 537 685 901 852 538 687
8 863 897 685 547 864 901 687 548
8 812 811 793 778 814 813 794 779
8 933 941 811 812 934 942 813 814
8 687 538 468 688 689 539 471 690
8 548 687 688 497 549 689 690 498
8 901 852 538 687 902 853 539 689
8 864 901 687 548 865 902 689 549
8 814 813 794 779 816 815 795 780
8 934 942 813 814 935 943 815 816
8 689 539 471 690 691 543 486 692
8 549 689 690 498 550 691 692 499
8 902 853 539 689 903 854 543 691
8 865 902 689 549 866 903 691 550
8 816 815 795 780 818 817 796 781
8 935 943 815 816 936 944 817 818
8 681 462 466 693 682 463 465 694
8 493 681 693 500 494 682 694 501
8 775 790 797 782 776 791 798 783
8 682 463 465 694 684 464 467 686
8 495 684 682 494 496 686 694 501
8 777 792 791 776 778 793 798 783
8 686 467 465 694 688 468 469 695
8 496 686 694 501 497 688 695 502
8 778 793 798 783 779 794 799 784
8 782 797 800 785 783 798 799 784
8 500 693 696 503 501 694 695 502
8 693 466 470 696 694 465 469 695
8 688 468 469 695 690 471 472 697
8 497 688 695 502 498 690 697 504
8 779 794 799 784 780 795 801 786
8 690 471 472 697 692 486 491 698
8 498 690 697 504 499 692 698 505
8 780 795 801 786 781 796 802 787
8 691 543 486 692 699 542 485 700
8 550 691 692 499 551 699 700 506
8 903 854 543 691 904 855 542 699
8 866 903 691 550 867 904 699 551
8 818 817 796 781 820 819 803 788
8 936 944 817 818 937 945 819 820
8 692 486 491 698 700 485 490 701
8 499 692 698 505 506 700 701 507
8 781 796 802 787 788 803 804 789
8 856 857 540 541 905 906 703 702
8 905 906 703 702 868 870 557 552
8 858 859 508 509 907 908 705 704
8 907 908 705 704 871 869 556 558
8 541 540 483 484 702 703 707 706
8 702 703 707 706 552 557 559 553
8 509 508 481 480 704 705 709 708
8 704 705 709 708 558 556 555 561
8 483 573 572 484 707 711 710 706
8 707 711 710 706 559 612 578 553
8 573 482 487 572 711 713 712 710
8 711 713 712 710 612 560 554 578
8 482 608 609 487 713 715 714 712
8 713 715 714 712 560 613 579 554
8 608 480 481 609 715 708 709 714
8 715 708 709 714 613 561 555 579
8 868 870 557 552 872 874 567 562
8 871 869 556 558 875 873 566 568
8 552 557 559 553 562 567 569 563
8 558 556 555 561 568 566 565 571
8 559 612 578 553 569 614 576 563
8 612 560 554 578 614 570 564 576
8 560 613 579 554 570 615 577 564
8 613 561 555 579 615 571 565 577
8 867 904 699 551 868 905 702 552
8 904 855 542 699 905 856 541 702
8 937 945 819 820 911 872 562 725
8 551 699 700 506 552 702 706 553
8 699 542 485 700 702 541 484 706
8 820 819 803 788 725 562 563 726
8 829 876 616 522 828 879 625 520
8 876 877 617 616 879 880 626 625
8 877 878 618 617 880 881 627 626
8 878 845 533 618 881 844 515 627
8 522 616 619 442 520 625 628 441
8 616 617 620 619 625 626 629 628
8 617 618 621 620 626 627 630 629
8 618 533 452 621 627 515 451 630
8 442 619 622 593 441 628 631 592
8 619 620 623 622 628 629 632 631
8 620 621 624 623 629 630 633 632
8 621 452 594 624 630 451 596 633
8 622 623 427 593 631 632 426 592
8 623 624 594 427 632 633 596 426
8 828 879 625 520 827 882 634 518
8 879 880 626 625 882 883 635 634
8 880 881 627 626 883 884 636 635
8 881 844 515 627 884 843 513 636
8 520 625 628 441 518 634 637 440
8 625 626 629 628 634 635 638 637
8 626 627 630 629 635 636 639 638
8 627 515 451 630 636 513 450 639
8 441 628 631 592 440 637 640 591
8 628 629 632 631 637 638 641 640
8 629 630 633 632 638 639 642 641
8 630 451 596 633 639 450 598 642
8 631 632 426 592 640 641 425 591
8 632 633 596 426 641 642 598 425
8 827 882 634 518 826 885 643 517
8 882 883 635 634 885 886 644 643
8 883 884 636 635 886 887 645 644
8 884 843 513 636 887 842 511 645
8 518 634 637 440 517 643 646 439
8 634 635 638 637 643 644 647 646
8 635 636 639 638 644 645 648 647
8 636 513 450 639 645 511 449 648
8 440 637 640 591 439 646 649 590
8 637 638 641 640 646 647 650 649
8 638 639 642 641 647 648 651 650
8 639 450 598 642 648 449 600 651
8 640 641 425 591 649 650 424 590
8 641 642 598 425 650 651 600 424
8 826 885 643 517 857 888 652 540
8 885 886 644 643 888 889 653 652
8 886 887 645 644 889 890 654 653
8 887 842 511 645 890 858 509 654
8 517 643 646 439 540 652 655 483
8 643 644 647 646 652 653 656 655
8 644 645 648 647 653 654 657 656
8 645 511 449 648 654 509 480 657
8 439 646 649 590 483 655 658 573
8 646 647 650 649 655 656 659 658
8 647 648 651 650 656 657 660 659
8 648 449 600 651 657 480 608 660
8 649 650 424 590 658 659 482 573
8 650 651 600 424 659 660 608 482
8 857 888 652 540 906 929 716 703
8 906 929 716 703 870 891 661 557
8 888 889 653 652 929 909 717 716
8 929 909 717 716 891 892 662 661
8 889 890 654 653 909 910 718 717
8 909 910 718 717 892 893 663 662
8 890 858 509 654 910 907 704 718
8 910 907 704 718 893 871 558 663
8 540 652 655 483 703 716 719 707
8 703 716 719 707 557 661 664 559
8 652 653 656 655 716 717 720 719
8 716 717 720 719 661 662 665 664
8 653 654 657 656 717 718 721 720
8 717 718 721 720 662 663 666 665
8 654 509 480 657 718 704 708 721
8 718 704 708 721 663 558 561 666
8 483 655 658 573 707 719 722 711
8 707 719 722 711 559 664 667 612
8 655 656 659 658 719 720 723 722
8 719 720 723 722 664 665 668 667
8 656 657 660 659 720 721 724 723
8 720 721 724 723 665 666 669 668
8 657 480 608 660 721 708 715 724
8 721 708 715 724 666 561 613 669
8 658 659 482 573 722 723 713 711
8 722 723 713 711 667 668 560 612
8 659 660 608 482 723 724 715 713
8 723 724 715 713 668 669 613 560
8 870 891 661 557 874 894 670 567
8 891 892 662 661 894 895 671 670
8 892 893 663 662 895 896 672 671
8 893 871 558 663 896 875 568 672
8 557 661 664 559 567 670 673 569
8 661 662 665 664 670 671 674 673
8 662 663 666 665 671 672 675 674
8 663 558 561 666 672 568 571 675
8 559 664 667 612 569 673 676 614
8 664 665 668 667 673 674 677 676
8 665 666 669 668 674 675 678 677
8 666 561 613 669 675 571 615 678
8 667 668 560 612 676 677 570 614
8 668 669 613 560 677 678 615 570
8 911 872 562 725 913 874 567 732
8 725 562 563 726 732 567 569 733
8 563 569 614 576 726 733 734 727
8 576 614 570 564 727 734 735 728
8 564 570 615 577 728 735 736 729
8 577 615 571 565 729 736 737 730
8 565 571 568 566 730 737 738 731
8 566 568 875 873 731 738 914 912
8 874 894 670 567 913 915 739 732
8 894 895 671 670 915 916 740 739
8 895 896 672 671 916 917 741 740
8 896 875 568 672 917 914 738 741
8 567 670 673 569 732 739 742 733
8 670 671 674 673 739 740 743 742
8 671 672 675 674 740 741 744 743
8 672 568 571 675 741 738 737 744
8 569 673 676 614 733 742 745 734
8 673 674 677 676 742 743 746 745
8 674 675 678 677 743 744 747 746
8 675 571 615 678 744 737 736 747
8 676 677 570 614 745 746 735 734
8 677 678 615 570 746 747 736 735
8 911 913 732 725 918 920 755 748
8 725 732 733 726 748 755 756 749
8 726 733 734 727 749 756 757 750
8 727 734 735 728 750 757 758 751
8 728 735 736 729 751 758 759 752
8 729 736 737 730 752 759 760 753
8 730 737 738 731 753 760 761 754
8 731 738 914 912 754 761 921 919
8 913 915 739 732 920 922 762 755
8 732 739 742 733 755 762 763 756
8 733 742 745 734 756 763 764 757
8 734 745 746 735 757 764 765 758
8 735 746 747 736 758 765 766 759
8 736 747 744 737 759 766 767 760
8 737 744 741 738 760 767 768 761
8 738 741 917 914 761 768 923 921
8 915 916 740 739 922 924 769 762
8 916 917 741 740 924 923 768 769
8 739 740 743 742 762 769 770 763
8 740 741 744 743 769 768 767 770
8 742 743 746 745 763 770 765 764
8 743 744 747 746 770 767 766 765
8 925 924 769 771 921 923 768 761
8 926 925 771 772 919 921 761 754
8 771 769 770 773 761 768 767 760
8 772 771 773 774 754 761 760 753
8 773 770 765 758 760 767 766 759
8 774 773 758 751 753 760 759 752
8 763 764 757 756 770 765 758 773
8 762 763 756 755 769 770 773 771
8 922 762 755 920 924 769 771 925
8 756 757 750 749 773 758 751 774
8 755 756 749 748 771 773 774 772
8 920 755 748 918 925 771 772 926
8 819 551 506 803 562 552 553 563
8 945 867 551 819 872 868 552 562
8 796 499 505 802 803 506 507 804
8 817 550 499 796 819 551 506 803
8 944 866 550 817 945 867 551 819
8 795 498 504 801 796 499 505 802
8 815 549 498 795 817 550 499 796
8 943 865 549 815 944 866 550 817
8 794 497 502 799 795 498 504 801
8 813 548 497 794 815 549 498 795
8 942 864 548 813 943 865 549 815
8 793 496 501 798 794 497 502 799
8 811 547 496 793 813 548 497 794
8 941 863 547 811 942 864 548 813
8 792 495 494 791 793 496 501 798
8 809 546 495 792 811 547 496 793
8 940 862 546 809 941 863 547 811
8 806 545 494 791 809 546 495 792
8 938 860 545 806 940 862 546 809
8 797 500 503 800 798 501 502 799
8 790 493 500 797 791 494 501 798
8 805 544 493 790 806 545 494 791
8 939 861 544 805 938 860 545 806
8 789 788 803 804 727 726 563 576
8 804 803 506 507 576 563 553 578
8 610 609 481 492 822 714 709 821
8 489 487 609 610 823 712 714 822
8 611 572 487 489 824 710 712 823
8 488 484 572 611 825 706 710 824
8 490 485 484 488 701 700 706 825
8 507 506 700 701 578 553 706 710

CELL_TYPES 740
12
12
12
12
12
12
12
12
12
12
12
12
12
12
12
12
12
12
12
12
12
12
12
12
12
12
12
12
12
12
12
12
12
12
12
12
12
12
12
12
12
12
12
12
12
12
12
12
12
12
12
12
12
12
12
12
12
12
12
12
12
12
12
12
12
12
12
12
12
12
12
12
12
12
12
12
12
12
12
12
12
12
12
12
12
12
12
12
12
12
12
12
12
12
12
12
12
12
12
12
12
12
12
12
12
12
12
12
12
12
12
12
12
12
12
12
12
12
12
12
12
12
12
12
12
12
12
12
12
12
12
12
12
12
12
12
12
12
12
12
12
12
12
12
12
12
12
12
12
12
12
12
12
12
12
12
12
12
12
12
12
12
12
12
12
12
12
12
12
12
12
12
12
12
12
12
12
12
12
12
12
12
12
12
12
12
12
12
12
12
12
12
12
12
12
12
12
12
12
12
12
12
12
12
12
12
12
12
12
12
12
12
12
12
12
12
12
12
12
12
12
12
12
12
12
12
12
12
12
12
12
12
12
12
12
12
12
12
12
12
12
12
12
12
12
12
12
12
12
12
12
12
12
12
12
12
12
12
12
12
12
12
12
12
12
12
12
12
12
12
12
12
12
12
12
12
12
12
12
12
12
12
12
12
12
12
12
12
12
12
12
12
12
12
12
12
12
12
12
12
12
12
12
12
12
12
12
12
12
12
12
12
12
12
12
12
12
12
12
12
12
12
12
12
12
12
12
12
12
12
12
12
12
12
12
12
12
12
12
12
12
12
12
12
12
12
12
12
12
12
12
12
12
12
12
12
12
12
12
12
12
12
12
12
12
12
12
12
12
12
12
12
12
12
12
12
12
12
12
12
12
12
12
12
12
12
12
12
12
12
12
12
12
12
12
12
12
12
12
12
12
12
12
12
12
12
12
12
12
12
12
12
12
12
12
12
12
12
12
12
12
12
12
12
12
12
12
12
12
12
12
12
12
12
12
12
12
12
12
12
12
12
12
12
12
12
12
12
12
12
12
12
12
12
12
12
12
12
12
12
12
12
12
12
12
12
12
12
12
12
12
12
12
12
12
12
12
12
12
12
12
12
12
12
12
12
12
12
12
12
12
12
12
12
12
12
12
12
12
12
12
12
12
12
12
12
12
12
12
12
12
12
12
12
12
12
12
12
12
12
12
12
12
12
12
12
12
12
12
12
12
12
12
12
12
12
12
12
12
12
12
12
12
12
12
12
12
12
12
12
12
12
12
12
12
12
12
12
12
12
12
12
12
12
12
12
12
12
12
12
12
12
12
12
12
12
12
12
12
12
12
12
12
12
12
12
12
12
12
12
12
12
12
12
12
12
12
12
12
12
12
12
12
12
12
12
12
12
12
12
12
12
12
12
12
12
12
12
12
12
12
12
12
12
12
12
12
12
12
12
12
12
12
12
12
12
12
12
12
12
12
12
12
12
12
12
12
12
12
12
12
12
12
12
12
12
12
12
12
12
12
12
12
12
12
12
12
12
12
12
12
12
12
12
12
12
12
12
12
12
12
12
12
12
12
12
12
12
12
12
12
12
12
12
12
12
12
12
12
12
12
12
12
12
12
12
12
12
12
12
12
12
12
12
12
12
12
12
12
12
12
12
12
12
12
12
12
12
12
12
12
12
12
12
12
12
12
12
12
12
