ply
format ascii 1.0
element vertex 88
property double x
property double y
property double z
element face 172
property list uchar int vertex_indices
end_header
0.1368600081 -0.006381845097 0.02455773456
0.1367208754 -0.006121417049 0.02596335068
0.1343182861 -0.006121417049 0.02575315135
0.1344971157 -0.006336458979 0.02444352036
0.1366679271 -0.004146304822 0.02633501779
0.1367393349 -0.005158644853 0.02489229812
0.1344090057 -0.00503759575 0.02476594826
0.1342702777 -0.004088399003 0.02609014268
0.1319156968 -0.006121417049 0.02554295202
0.132090952 -0.006381928021 0.02435785875
0.1318114233 -0.004853521519 0.02452919265
0.1318578953 -0.003770239119 0.02579481677
0.1365106761 -0.006121417049 0.02836594
0.1341080867 -0.006121417049 0.02815574067
0.1370336055 -0.002774904659 0.02789126842
0.1342118143 -0.003085745919 0.02764465301
0.1317054974 -0.006121417049 0.02794554134
0.1318959312 -0.002703847717 0.02728163149
0.124770845 -0.005852286972 0.02516214872
0.1244977295 -0.006121417049 0.02731494336
0.1222068928 -0.00601918852 0.02717926643
0.1230304585 -0.005354043209 0.02538558942
0.1256091205 -0.001677860738 0.02663500607
0.1239596628 -0.00348637594 0.02475394431
0.1226218145 -0.003317950421 0.02519758383
0.1233118345 -0.001516790752 0.02633143038
0.1206472857 -0.00421188785 0.02723033974
0.1214524401 -0.004719177565 0.02638838306
0.1211102712 -0.002083111291 0.02563149719
0.120070548 -0.0009376821146 0.02657777852
0.1363004767 -0.006121417049 0.03076852932
0.1338978874 -0.006121417049 0.03055832999
0.1369571539 -0.002262344003 0.02935143465
0.1341800467 -0.002448398924 0.02906948768
0.1314952981 -0.006121417049 0.03034813066
0.1318445148 -0.002233861764 0.02861327865
0.1293029081 -0.006121417049 0.02773534201
0.1295131074 -0.006121417049 0.0253327527
0.129281924 -0.003252479546 0.02550177915
0.1295269789 -0.002387625959 0.02715306131
0.1290927088 -0.006121417049 0.03013793133
0.1294393163 -0.001913601222 0.02824456939
0.1269003188 -0.006121417049 0.02752514269
0.1258837783 -0.006157617791 0.02475262096
0.1262582323 -0.004197136669 0.02453130127
0.1272871152 -0.001949796654 0.02676417065
0.1266901195 -0.006121417049 0.029927732
0.1268746568 -0.001402200682 0.02808559802
0.1242875301 -0.006121417049 0.02971753268
0.1252523557 -0.001014591733 0.02796102924
0.121807472 -0.00646414348 0.02866675735
0.122344502 -0.0005684769741 0.02758292427
0.1199862989 -0.004363216704 0.02838268247
0.1190649131 -0.0005328634303 0.0273373921
0.1360902774 -0.006121417049 0.03317111864
0.1336876881 -0.006121417049 0.03296091931
0.1360902774 -0.003709650229 0.03317111864
0.1336876881 -0.003709650229 0.03296091931
0.1309711554 -0.00474530967 0.03445222962
0.1308818779 -0.004007359279 0.03395241772
0.1366580031 -0.001586144654 0.03314045383
0.1368269498 -0.001536317171 0.03062162707
0.1340738972 -0.001515446519 0.03063405011
0.1338979799 -0.001424906116 0.03233765145
0.1311644366 -0.001576018923 0.03017120121
0.1303772862 -0.001274420711 0.03353581273
0.1289934693 -0.005783506144 0.03325446765
0.1288236393 -0.003446655296 0.03318533187
0.1284759123 -0.001354709936 0.03335111365
0.1290344894 -0.001434983956 0.03019010133
0.1264602312 -0.005303283051 0.03311730214
0.1264667199 -0.003428746819 0.03293521635
0.1263602493 -0.001119717242 0.03317503932
0.126710219 -0.001001167123 0.02990849264
0.1245279613 -0.006325667458 0.03303238489
0.1241057601 -0.003329128194 0.03271592781
0.1241762475 -0.0007912171701 0.03302625025
0.1249185975 -0.0006604777169 0.02973528436
0.1230923873 -0.005142929824 0.03292660791
0.1217422979 -0.003523462895 0.0327484685
0.1215687331 -0.0004791735265 0.03298014863
0.1217440326 -0.0001290172365 0.02971620197
0.1357306042 -0.00312453536 0.0356350297
0.1336978035 -0.003829903742 0.03530615616
0.1368372975 -0.002388994896 0.03534655789
0.134066494 -0.001559875546 0.03479607974
0.1319855712 -0.004085829708 0.03446887434
0.1322603957 -0.001386533703 0.03436623673
3 0 1 2
3 0 2 3
3 4 5 6
3 4 6 7
3 5 0 3
3 5 3 6
3 0 5 4
3 0 4 1
3 3 2 8
3 3 8 9
3 7 6 10
3 7 10 11
3 6 3 9
3 6 9 10
3 9 8 11
3 9 11 10
3 1 12 13
3 1 13 2
3 14 4 7
3 14 7 15
3 1 4 14
3 1 14 12
3 2 13 16
3 2 16 8
3 15 7 11
3 15 11 17
3 18 19 20
3 18 20 21
3 22 23 24
3 22 24 25
3 23 18 21
3 23 21 24
3 21 20 26
3 21 26 27
3 25 24 28
3 25 28 29
3 24 21 27
3 24 27 28
3 27 26 29
3 27 29 28
3 12 30 31
3 12 31 13
3 32 14 15
3 32 15 33
3 12 14 32
3 12 32 30
3 13 31 34
3 13 34 16
3 33 15 17
3 33 17 35
3 8 16 36
3 8 36 37
3 17 11 38
3 17 38 39
3 11 8 37
3 11 37 38
3 16 34 40
3 16 40 36
3 35 17 39
3 35 39 41
3 37 36 42
3 37 42 43
3 39 38 44
3 39 44 45
3 38 37 43
3 38 43 44
3 36 40 46
3 36 46 42
3 41 39 45
3 41 45 47
3 43 42 19
3 43 19 18
3 45 44 23
3 45 23 22
3 44 43 18
3 44 18 23
3 42 46 48
3 42 48 19
3 47 45 22
3 47 22 49
3 19 48 50
3 19 50 20
3 49 22 25
3 49 25 51
3 20 50 52
3 20 52 26
3 50 51 53
3 50 53 52
3 51 25 29
3 51 29 53
3 26 52 53
3 26 53 29
3 30 54 55
3 30 55 31
3 54 56 57
3 54 57 55
3 30 32 56
3 30 56 54
3 31 55 58
3 31 58 34
3 55 57 59
3 55 59 58
3 60 61 62
3 60 62 63
3 61 32 33
3 61 33 62
3 32 61 60
3 32 60 56
3 63 62 64
3 63 64 65
3 62 33 35
3 62 35 64
3 34 58 66
3 34 66 40
3 58 59 67
3 58 67 66
3 59 65 68
3 59 68 67
3 65 64 69
3 65 69 68
3 64 35 41
3 64 41 69
3 40 66 70
3 40 70 46
3 66 67 71
3 66 71 70
3 67 68 72
3 67 72 71
3 68 69 73
3 68 73 72
3 69 41 47
3 69 47 73
3 46 70 74
3 46 74 48
3 70 71 75
3 70 75 74
3 71 72 76
3 71 76 75
3 72 73 77
3 72 77 76
3 73 47 49
3 73 49 77
3 48 74 78
3 48 78 50
3 74 75 79
3 74 79 78
3 50 78 79
3 50 79 51
3 75 76 80
3 75 80 79
3 76 77 81
3 76 81 80
3 77 49 51
3 77 51 81
3 51 79 80
3 51 80 81
3 56 82 83
3 56 83 57
3 82 84 85
3 82 85 83
3 84 60 63
3 84 63 85
3 56 60 84
3 56 84 82
3 57 83 86
3 57 86 59
3 83 85 87
3 83 87 86
3 85 63 65
3 85 65 87
3 59 86 87
3 59 87 65
