ply
format ascii 1.0
element vertex 46
property double x
property double y
property double z
element face 88
property list uchar int vertex_indices
end_header
0.1302199988 0.003886370708 0.03660248307
0.1302343739 0.003914063044 0.035661555
0.1263571769 0.005917510152 0.03405743115
0.1260595215 0.005937417049 0.03713549996
0.1288997872 0.003159978013 0.03563876615
0.1263471238 0.003526410502 0.03451971693
0.1294534656 0.002970402826 0.03768622778
0.1272956032 0.002494516716 0.03543753864
0.1279854969 0.001661058297 0.03787148098
0.1260859183 0.001006570138 0.03731445896
0.1255859964 0.001542140488 0.03520408096
0.130665326 0.003636232629 0.0376687096
0.1309145625 0.003282877169 0.03993385295
0.128922369 0.002665767787 0.03930278001
0.1317748451 0.004221988004 0.04005939962
0.1316407719 0.003979763655 0.03727855455
0.1282519115 0.005937417049 0.03974828861
0.1258493221 0.005937417049 0.03953808928
0.1276498247 0.001690743308 0.03937719817
0.1263472534 0.0006885479193 0.03977316907
0.1245195394 0.005780619655 0.03375629323
0.1236569322 0.005937417049 0.03692530063
0.1237953303 0.003584877881 0.03394898871
0.1258493221 0.003525650229 0.03953808928
0.1234467328 0.005937417049 0.03932788995
0.1234467328 0.003525650229 0.03932788995
0.1246531326 0.0004283334617 0.03645470646
0.1237459814 0.0008270786471 0.03480343061
0.1252842916 0.0005640419797 0.03810403745
0.1231856805 0.004948746496 0.03356385125
0.1212543428 0.005937417049 0.0367151013
0.1218012455 0.003537100118 0.03335357002
0.1212543428 0.003525650229 0.0367151013
0.1210441435 0.005937417049 0.03911769062
0.1210441435 0.003525650229 0.03911769062
0.1216023683 0.0002082497416 0.0348100448
0.1215965957 0.0004889790466 0.03406252487
0.1233359146 0.0004073438149 0.03581864716
0.1302996423 0.003783055021 0.04190761489
0.1288745705 0.002311873526 0.04202274888
0.1313654602 0.004748450631 0.04267808624
0.1280417121 0.005937417049 0.04215087793
0.1256391228 0.005937417049 0.0419406786
0.1256391228 0.003525650229 0.0419406786
0.1285134936 0.0009253805319 0.041764319
0.1271857859 0.000904452763 0.04064084133
3 0 1 2
3 0 2 3
3 1 4 5
3 1 5 2
3 4 1 0
3 4 0 6
3 7 8 9
3 7 9 10
3 4 7 10
3 4 10 5
3 7 4 6
3 7 6 8
3 11 12 13
3 11 13 6
3 14 15 0
3 14 0 16
3 15 11 6
3 15 6 0
3 11 15 14
3 11 14 12
3 16 0 3
3 16 3 17
3 8 18 19
3 8 19 9
3 8 6 13
3 8 13 18
3 3 2 20
3 3 20 21
3 2 5 22
3 2 22 20
3 23 17 24
3 23 24 25
3 17 3 21
3 17 21 24
3 10 9 26
3 10 26 27
3 5 10 27
3 5 27 22
3 9 19 28
3 9 28 26
3 19 23 25
3 19 25 28
3 21 20 29
3 21 29 30
3 20 22 31
3 20 31 29
3 31 32 30
3 31 30 29
3 25 24 33
3 25 33 34
3 24 21 30
3 24 30 33
3 32 34 33
3 32 33 30
3 27 26 35
3 27 35 36
3 22 27 36
3 22 36 31
3 36 35 32
3 36 32 31
3 26 28 37
3 26 37 35
3 28 25 34
3 28 34 37
3 35 37 34
3 35 34 32
3 12 38 39
3 12 39 13
3 38 40 41
3 38 41 39
3 40 14 16
3 40 16 41
3 12 14 40
3 12 40 38
3 39 41 42
3 39 42 43
3 41 16 17
3 41 17 42
3 23 43 42
3 23 42 17
3 18 44 45
3 18 45 19
3 44 39 43
3 44 43 45
3 18 13 39
3 18 39 44
3 19 45 43
3 19 43 23
