ply
format ascii 1.0
element vertex 88
property double x
property double y
property double z
element face 172
property list uchar int vertex_indices
end_header
0.1362195997 -0.01447155165 0.04258012067
0.1359218735 -0.01434705137 0.04571373123
0.1351315208 -0.01578198188 0.04517877363
0.1351653258 -0.01579307076 0.04272820788
0.1368706396 -0.01254182179 0.04307251895
0.1352494801 -0.01335671751 0.04278147591
0.1367207515 -0.01248542221 0.04521305147
0.1350392808 -0.01335671751 0.04518406523
0.1358783155 -0.01477492865 0.04733337747
0.1349882034 -0.01565752586 0.04698442111
0.1368236504 -0.01306023907 0.04767260056
0.1348290814 -0.01335671751 0.04758665455
0.1375536879 -0.01067223047 0.04300106319
0.1352494801 -0.01094495069 0.04278147591
0.137989451 -0.01134116992 0.04492007535
0.1350392808 -0.01094495069 0.04518406523
0.1385628516 -0.01146696363 0.04708966552
0.138331679 -0.01211825457 0.04859100345
0.1394427563 -0.01025342925 0.04569349952
0.1392418548 -0.01041258817 0.04810488066
0.134678598 -0.009818305848 0.0485389023
0.137979441 -0.01240810542 0.0501484748
0.1372441748 -0.01332314794 0.05013860765
0.1389421384 -0.01056829404 0.05024502138
0.1379603346 -0.01236765572 0.05203086885
0.1372049549 -0.01336428407 0.05331126965
0.1380153618 -0.01104859206 0.05153581876
0.1363251357 -0.01064671278 0.05231913268
0.1389667454 -0.009658799098 0.04360382654
0.1402658581 -0.00866758284 0.04282517769
0.1376520694 -0.008533183868 0.04299167524
0.1402226103 -0.008879916409 0.04559749755
0.14021193 -0.008654054384 0.04808519415
0.1352494801 -0.008533183868 0.04278147591
0.1341547012 -0.007563152173 0.04625647712
0.1348780661 -0.008359818814 0.04755278426
0.1392024801 -0.008646396927 0.04991073636
0.1346188821 -0.01335671751 0.04998924387
0.1347057141 -0.01060929957 0.04988787859
0.1364400216 -0.009523417762 0.05075819589
0.1371489711 -0.008485055884 0.05002546747
0.1358249948 -0.008698991954 0.04916495238
0.1383315148 -0.009532703081 0.05082555928
0.1375533648 -0.009482299628 0.051100661
0.1344086828 -0.01335671751 0.05239183319
0.1341647589 -0.01115560666 0.05213083087
0.1365135615 -0.01330295523 0.05494358248
0.1353716485 -0.01223329698 0.05489977736
0.1361139064 -0.01155568187 0.05329502787
0.1341676709 -0.01150812091 0.0538888592
0.1417830075 -0.00754038181 0.04325986615
0.1413609122 -0.007814650364 0.04463670575
0.1428910449 -0.006615476162 0.04354683229
0.1400546587 -0.006121417049 0.04320187457
0.1426508219 -0.005797662237 0.04582491729
0.141441036 -0.007507418887 0.04651915649
0.1416523559 -0.00593359561 0.04657466934
0.1394476204 -0.006060279972 0.04780575977
0.1376520694 -0.006121417049 0.04299167524
0.1352494801 -0.006121417049 0.04278147591
0.1342848401 -0.006233482102 0.04592151622
0.1353194334 -0.006336040558 0.04752287297
0.1388286029 -0.006862860554 0.04894476008
0.1368725879 -0.006875215014 0.04918450771
0.137197154 -0.005691300922 0.04807537047
0.1359848158 -0.007034697238 0.04908213739
0.1440496105 -0.005523789922 0.04331094239
0.1434430432 -0.005354906053 0.04498405946
0.1437697941 -0.003593392225 0.04515160024
0.1420818377 -0.003873522358 0.04612172624
0.1445541374 -0.003218771449 0.04322578401
0.142457248 -0.003709650229 0.0434120739
0.1395285932 -0.002891699751 0.04363381945
0.1404540197 -0.00496755765 0.04659845789
0.1390553382 -0.005112809873 0.04700678055
0.1400806364 -0.00377631033 0.0453905167
0.137740841 -0.003649413386 0.0429512976
0.1376409409 -0.004011590352 0.04529596098
0.1375128473 -0.004670817101 0.04694717003
0.1354638718 -0.004032778609 0.04267037528
0.1354871846 -0.004474554102 0.04490845117
0.1355574036 -0.004929730605 0.0467054256
0.143134387 -0.002491753993 0.04504559724
0.1421834067 -0.002302518839 0.04511308537
0.1440197689 -0.001759630186 0.04288287467
0.1424543629 -0.001117456129 0.04340732226
0.1409462423 -0.002441618732 0.04469980573
0.1405629205 -0.001328308624 0.04277054645
3 0 1 2
3 0 2 3
3 4 0 3
3 4 3 5
3 0 4 6
3 0 6 1
3 3 2 7
3 3 7 5
3 1 8 9
3 1 9 2
3 8 10 11
3 8 11 9
3 1 6 10
3 1 10 8
3 2 9 11
3 2 11 7
3 12 4 5
3 12 5 13
3 4 12 14
3 4 14 6
3 5 7 15
3 5 15 13
3 16 17 10
3 16 10 6
3 18 16 6
3 18 6 14
3 16 18 19
3 16 19 17
3 7 11 20
3 7 20 15
3 17 21 22
3 17 22 10
3 17 19 23
3 17 23 21
3 21 24 25
3 21 25 22
3 24 26 27
3 24 27 25
3 21 23 26
3 21 26 24
3 28 18 14
3 28 14 12
3 29 28 12
3 29 12 30
3 28 29 31
3 28 31 18
3 18 31 32
3 18 32 19
3 30 12 13
3 30 13 33
3 13 15 34
3 13 34 33
3 15 20 35
3 15 35 34
3 19 32 36
3 19 36 23
3 10 22 37
3 10 37 11
3 11 37 38
3 11 38 20
3 39 40 41
3 39 41 38
3 20 38 41
3 20 41 35
3 26 42 43
3 26 43 27
3 42 36 40
3 42 40 43
3 23 36 42
3 23 42 26
3 39 27 43
3 39 43 40
3 22 25 44
3 22 44 37
3 27 39 38
3 27 38 45
3 37 44 45
3 37 45 38
3 25 46 47
3 25 47 44
3 46 48 49
3 46 49 47
3 48 27 45
3 48 45 49
3 25 27 48
3 25 48 46
3 44 47 49
3 44 49 45
3 50 51 31
3 50 31 29
3 52 50 29
3 52 29 53
3 50 52 54
3 50 54 51
3 51 55 32
3 51 32 31
3 55 56 57
3 55 57 32
3 51 54 56
3 51 56 55
3 53 29 30
3 53 30 58
3 58 30 33
3 58 33 59
3 33 34 60
3 33 60 59
3 34 35 61
3 34 61 60
3 36 62 63
3 36 63 40
3 62 57 64
3 62 64 63
3 32 57 62
3 32 62 36
3 40 63 65
3 40 65 41
3 63 64 61
3 63 61 65
3 35 41 65
3 35 65 61
3 66 67 54
3 66 54 52
3 67 68 69
3 67 69 54
3 70 66 52
3 70 52 71
3 66 70 68
3 66 68 67
3 71 52 53
3 71 53 72
3 56 73 74
3 56 74 57
3 73 69 75
3 73 75 74
3 54 69 73
3 54 73 56
3 75 72 76
3 75 76 77
3 72 53 58
3 72 58 76
3 57 74 78
3 57 78 64
3 74 75 77
3 74 77 78
3 77 76 79
3 77 79 80
3 76 58 59
3 76 59 79
3 59 60 80
3 59 80 79
3 64 78 81
3 64 81 61
3 78 77 80
3 78 80 81
3 60 61 81
3 60 81 80
3 68 82 83
3 68 83 69
3 82 84 85
3 82 85 83
3 84 70 71
3 84 71 85
3 70 84 82
3 70 82 68
3 69 83 86
3 69 86 75
3 83 85 87
3 83 87 86
3 85 71 72
3 85 72 87
3 72 75 86
3 72 86 87
