ply
format ascii 1.0
comment Created by Blender 2.69 (sub 0) - www.blender.org, source file: ''
element vertex 326
property float x
property float y
property float z
element face 411
comment property list uchar uint vertex_indices
end_header
0.132312 -0.002147 0.092475
0.131577 -0.002143 0.092392
0.132454 -0.000872 0.091774
0.132572 -0.003102 0.093434
0.133431 -0.001846 0.092799
0.130583 -0.000857 0.091947
0.130583 0.000857 0.091947
0.132454 0.000872 0.091774
0.129451 -0.000038 0.092460
0.129887 -0.001873 0.092743
0.128948 -0.000824 0.093722
0.130575 -0.002981 0.093545
0.133784 -0.000267 0.092050
0.134627 -0.001031 0.093516
0.131577 0.002143 0.092392
0.128948 0.000824 0.093722
0.129887 0.001873 0.092743
0.130575 0.002981 0.093545
0.132312 0.002147 0.092475
0.133431 0.001846 0.092799
0.134627 0.001031 0.093516
0.132572 0.003102 0.093434
0.132463 -0.003441 0.094044
0.131542 -0.003692 0.094639
0.132439 -0.003962 0.095728
0.132871 -0.003439 0.094682
0.129215 -0.002119 0.094475
0.131224 -0.003932 0.095681
0.130218 -0.003102 0.094781
0.129219 -0.002611 0.095667
0.133820 -0.002255 0.093525
0.134638 -0.002926 0.095781
0.135013 -0.001391 0.094920
0.128624 -0.000977 0.095548
0.128624 0.000977 0.095548
0.135496 0.000000 0.094562
0.135731 -0.000924 0.095751
0.129215 0.002119 0.094475
0.133820 0.002255 0.093525
0.135013 0.001391 0.094920
0.135731 0.000924 0.095751
0.131542 0.003692 0.094639
0.129219 0.002611 0.095667
0.130218 0.003102 0.094781
0.131224 0.003932 0.095681
0.132463 0.003441 0.094044
0.132871 0.003439 0.094682
0.134638 0.002926 0.095781
0.132439 0.003962 0.095728
0.134738 -0.006986 0.095588
0.134271 -0.005826 0.096660
0.134888 -0.005053 0.095854
0.135879 -0.005876 0.096466
0.134441 -0.008119 0.096639
0.134203 -0.006538 0.097914
0.136151 -0.007184 0.095664
0.136126 -0.007020 0.097441
0.132567 -0.004288 0.097551
0.130876 -0.004277 0.097761
0.129988 -0.003302 0.096657
0.135577 -0.004001 0.096532
0.136022 -0.004958 0.097712
0.128627 -0.001601 0.096793
0.128873 -0.002781 0.097616
0.135676 -0.002008 0.096484
0.136108 -0.003014 0.097579
0.128126 0.000000 0.096581
0.128198 -0.000520 0.097661
0.136091 0.000984 0.097585
0.136091 -0.000984 0.097585
0.128627 0.001601 0.096793
0.128198 0.000520 0.097661
0.135676 0.002008 0.096484
0.128873 0.002781 0.097616
0.129988 0.003302 0.096657
0.134888 0.005053 0.095854
0.135577 0.004001 0.096532
0.136108 0.003014 0.097579
0.130876 0.004277 0.097761
0.132567 0.004288 0.097551
0.134271 0.005826 0.096660
0.134738 0.006986 0.095588
0.135879 0.005876 0.096466
0.136022 0.004958 0.097712
0.134203 0.006538 0.097914
0.134441 0.008119 0.096639
0.136151 0.007184 0.095664
0.136126 0.007020 0.097441
0.133749 -0.009779 0.097784
0.133413 -0.009482 0.099783
0.133518 -0.006787 0.100152
0.132577 -0.004867 0.099581
0.135808 -0.004947 0.099446
0.135718 -0.007022 0.099380
0.130743 -0.004443 0.099546
0.129763 -0.003782 0.098578
0.136045 -0.002928 0.099493
0.128638 -0.002917 0.099554
0.128436 -0.001759 0.098664
0.136193 -0.000992 0.099501
0.128065 -0.000647 0.099634
0.128065 0.000647 0.099634
0.136193 0.000992 0.099501
0.128436 0.001759 0.098664
0.136045 0.002928 0.099493
0.128638 0.002917 0.099554
0.129763 0.003782 0.098578
0.135808 0.004947 0.099446
0.130743 0.004443 0.099546
0.132577 0.004867 0.099581
0.133518 0.006787 0.100152
0.135718 0.007022 0.099380
0.133413 0.009482 0.099783
0.133749 0.009779 0.097784
0.132808 -0.008965 0.101732
0.132672 -0.006982 0.101596
0.131963 -0.005090 0.101056
0.135542 -0.004744 0.101370
0.135375 -0.006980 0.101334
0.130911 -0.004683 0.101638
0.129749 -0.003711 0.100551
0.135896 -0.002904 0.101488
0.128572 -0.002983 0.101540
0.128237 -0.001847 0.100630
0.135991 -0.000991 0.101482
0.127703 -0.000651 0.101804
0.127703 0.000651 0.101804
0.135991 0.000991 0.101482
0.128237 0.001847 0.100630
0.135896 0.002904 0.101488
0.128572 0.002983 0.101540
0.129749 0.003711 0.100551
0.135542 0.004744 0.101370
0.130911 0.004683 0.101638
0.131963 0.005090 0.101056
0.135375 0.006980 0.101334
0.132672 0.006982 0.101596
0.132808 0.008965 0.101732
0.131907 -0.007961 0.102787
0.131000 -0.006942 0.103953
0.131692 -0.005847 0.102601
0.135235 -0.004670 0.103285
0.135045 -0.006976 0.103203
0.130485 -0.005062 0.103465
0.129661 -0.003864 0.102563
0.135688 -0.002783 0.103372
0.128249 -0.002989 0.102921
0.127460 -0.002578 0.103932
0.127877 -0.001904 0.102638
0.129452 -0.004490 0.104226
0.135701 -0.001015 0.103387
0.127198 -0.000806 0.103739
0.127198 0.000806 0.103739
0.135701 0.001015 0.103387
0.127877 0.001904 0.102638
0.135688 0.002783 0.103372
0.127460 0.002578 0.103932
0.128249 0.002989 0.102921
0.129661 0.003864 0.102563
0.129452 0.004490 0.104226
0.135235 0.004670 0.103285
0.130485 0.005062 0.103465
0.131692 0.005847 0.102601
0.135045 0.006976 0.103203
0.131907 0.007961 0.102787
0.131000 0.006942 0.103953
0.129808 -0.005799 0.104779
0.134803 -0.005988 0.104371
0.134620 -0.006994 0.105548
0.135018 -0.008341 0.104354
0.128634 -0.004957 0.105601
0.128083 -0.003461 0.104728
0.135293 -0.002909 0.105272
0.134882 -0.004634 0.105246
0.135356 -0.000960 0.105280
0.135356 0.000960 0.105280
0.135293 0.002909 0.105272
0.128083 0.003461 0.104728
0.134882 0.004634 0.105246
0.128634 0.004957 0.105601
0.129808 0.005799 0.104779
0.134803 0.005988 0.104371
0.135018 0.008341 0.104354
0.134620 0.006994 0.105548
0.134738 -0.005038 0.105570
0.134293 -0.004925 0.107456
0.134093 -0.007099 0.107346
0.134571 -0.008097 0.106313
0.134850 -0.003845 0.106415
0.134945 -0.001020 0.106955
0.134883 -0.002944 0.107179
0.134945 0.001020 0.106955
0.134883 0.002944 0.107179
0.134850 0.003845 0.106415
0.134738 0.005038 0.105570
0.134093 0.007099 0.107346
0.134293 0.004925 0.107456
0.134571 0.008097 0.106313
0.134422 -0.009048 0.107502
0.133416 -0.007250 0.109085
0.133779 -0.009171 0.109229
0.133736 -0.004778 0.109258
0.134733 -0.003001 0.107604
0.134073 -0.002996 0.109355
0.134714 -0.000998 0.107594
0.134075 -0.001006 0.109363
0.134714 0.000998 0.107594
0.134075 0.001006 0.109363
0.134733 0.003001 0.107604
0.134073 0.002996 0.109355
0.133736 0.004778 0.109258
0.133416 0.007250 0.109085
0.134422 0.009048 0.107502
0.133779 0.009171 0.109229
0.133072 -0.008133 0.110303
0.133145 -0.009385 0.110856
0.133064 -0.005866 0.110370
0.132393 -0.006955 0.111482
0.133413 -0.002990 0.111106
0.133163 -0.004624 0.111064
0.133427 -0.000991 0.111112
0.133427 0.000991 0.111112
0.133413 0.002990 0.111106
0.133163 0.004624 0.111064
0.133064 0.005866 0.110370
0.133072 0.008133 0.110303
0.132393 0.006955 0.111482
0.133145 0.009385 0.110856
0.132668 -0.008972 0.111593
0.131707 -0.006772 0.113135
0.131919 -0.009201 0.113163
0.132507 -0.005718 0.112040
0.132911 -0.003871 0.112152
0.132059 -0.004901 0.113240
0.132909 -0.002010 0.112138
0.132199 -0.003005 0.113317
0.132896 0.000000 0.112156
0.132200 -0.000993 0.113331
0.132909 0.002010 0.112138
0.132200 0.000993 0.113331
0.132911 0.003871 0.112152
0.132199 0.003005 0.113317
0.132507 0.005718 0.112040
0.132059 0.004901 0.113240
0.132668 0.008972 0.111593
0.131919 0.009201 0.113163
0.131707 0.006772 0.113135
0.130967 -0.008185 0.114295
0.131207 -0.005930 0.114329
0.130394 -0.006969 0.115449
0.131306 -0.002975 0.114816
0.131205 -0.004731 0.114732
0.131336 -0.000976 0.114833
0.131336 0.000976 0.114833
0.131306 0.002975 0.114816
0.131205 0.004731 0.114732
0.131207 0.005930 0.114329
0.130967 0.008185 0.114295
0.130394 0.006969 0.115449
0.130610 -0.008979 0.115566
0.129563 -0.006867 0.116879
0.129878 -0.009299 0.117046
0.130656 -0.005013 0.115602
0.129747 -0.004891 0.117001
0.130590 -0.003973 0.115893
0.130629 -0.001974 0.115919
0.129845 -0.002984 0.117055
0.130668 0.000000 0.115935
0.129875 -0.000985 0.117075
0.130629 0.001974 0.115919
0.129875 0.000985 0.117075
0.130590 0.003973 0.115893
0.129845 0.002984 0.117055
0.130656 0.005013 0.115602
0.129563 0.006867 0.116879
0.129747 0.004891 0.117001
0.130610 0.008979 0.115566
0.129878 0.009299 0.117046
0.128750 -0.007909 0.118072
0.128302 -0.009253 0.118980
0.129325 -0.010113 0.118385
0.128972 -0.005962 0.118063
0.128130 -0.006922 0.119013
0.129045 -0.003985 0.118119
0.128127 -0.004972 0.119188
0.129080 -0.001986 0.118148
0.128182 -0.003000 0.119202
0.129120 0.000000 0.118147
0.128182 -0.001000 0.119201
0.129080 0.001986 0.118148
0.128182 0.001000 0.119201
0.129045 0.003985 0.118119
0.128182 0.003000 0.119202
0.128972 0.005962 0.118063
0.128127 0.004972 0.119188
0.128750 0.007909 0.118072
0.128130 0.006922 0.119013
0.129325 0.010113 0.118385
0.128302 0.009253 0.118980
0.128597 -0.010965 0.119617
0.127308 -0.010248 0.119869
0.126247 -0.011327 0.120660
0.127527 -0.012034 0.120448
0.127060 -0.007914 0.119739
0.125814 -0.008918 0.120457
0.127156 -0.005930 0.119893
0.125941 -0.006893 0.120550
0.127240 -0.003978 0.119995
0.126044 -0.004965 0.120661
0.127275 -0.001981 0.120053
0.126030 -0.002938 0.120775
0.127285 0.000000 0.120142
0.126106 -0.000947 0.120885
0.127275 0.001981 0.120053
0.126106 0.000947 0.120885
0.127240 0.003978 0.119995
0.126030 0.002938 0.120775
0.127156 0.005930 0.119893
0.126044 0.004965 0.120661
0.127060 0.007914 0.119739
0.125941 0.006893 0.120550
0.128597 0.010965 0.119617
0.127308 0.010248 0.119869
0.125814 0.008918 0.120457
0.127527 0.012034 0.120448
0.126247 0.011327 0.120660
3 0 1 2
3 0 3 1
3 0 4 3
3 0 2 4
4 5 6 7 2
3 5 8 6
3 5 2 1
4 5 9 10 8
4 5 1 11 9
3 2 7 12
4 2 12 13 4
3 6 14 7
4 6 8 15 16
4 6 16 17 14
3 7 14 18
3 7 18 19
4 7 19 20 12
3 18 14 21
3 18 21 19
3 22 23 3
3 22 24 23
3 22 25 24
3 22 3 25
3 11 3 23
3 11 1 3
4 11 26 10 9
4 11 23 27 28
4 11 28 29 26
3 3 30 25
3 3 4 30
3 30 31 25
3 30 4 13
3 30 32 31
3 30 13 32
4 10 33 34 15
3 10 26 33
3 10 15 8
3 13 12 20
3 13 20 35
4 13 35 36 32
3 15 34 37
4 15 37 17 16
3 20 19 38
3 20 38 39
4 20 39 40 35
3 17 21 14
3 17 41 21
4 17 37 42 43
4 17 43 44 41
3 21 41 45
3 21 38 19
3 21 46 38
3 21 45 46
3 38 46 47
3 38 47 39
3 45 41 48
3 45 48 46
3 49 50 51
3 49 51 52
4 49 53 54 50
3 55 52 56
4 27 24 57 58
3 27 58 59
3 27 23 24
4 27 59 29 28
3 24 51 50
3 24 50 57
3 24 25 51
3 51 25 31
3 51 31 60
4 51 60 61 52
3 29 62 33
3 29 63 62
3 29 59 63
3 29 33 26
4 31 32 36 64
4 31 64 65 60
3 33 66 34
4 33 62 67 66
4 36 40 68 69
3 36 69 64
3 36 35 40
3 34 70 42
3 34 42 37
4 34 66 71 70
3 40 72 68
4 40 39 47 72
3 42 70 73
3 42 73 74
4 42 74 44 43
3 47 46 75
3 47 75 76
4 47 76 77 72
4 44 78 79 48
3 44 74 78
3 44 48 41
3 48 75 46
3 48 80 75
3 48 79 80
3 75 80 81
3 75 81 82
4 75 82 83 76
4 81 80 84 85
3 86 87 82
4 88 89 90 54
3 88 54 53
4 54 90 91 57
3 54 57 50
4 56 61 92 93
3 56 52 61
4 58 57 91 94
3 58 94 95
4 58 95 63 59
4 61 65 96 92
3 61 60 65
3 63 97 98
3 63 95 97
4 63 98 67 62
4 65 69 99 96
3 65 64 69
4 67 100 101 71
3 67 98 100
3 67 71 66
4 69 68 102 99
3 71 101 103
4 71 103 73 70
4 68 77 104 102
3 68 72 77
3 73 103 105
3 73 105 106
4 73 106 78 74
4 77 83 107 104
3 77 76 83
4 78 108 109 79
3 78 106 108
4 79 109 110 84
3 79 84 80
4 83 87 111 107
3 83 82 87
4 84 110 112 113
3 84 113 85
4 89 114 115 90
3 90 116 91
3 90 115 116
4 93 92 117 118
3 94 119 120
3 94 91 116
3 94 116 119
4 94 120 97 95
4 92 96 121 117
3 97 122 123
3 97 120 122
4 97 123 100 98
4 96 99 124 121
4 100 125 126 101
3 100 123 125
4 99 102 127 124
3 101 126 128
4 101 128 105 103
4 102 104 129 127
3 105 128 130
3 105 130 131
4 105 131 108 106
4 104 107 132 129
3 108 131 133
3 108 134 109
3 108 133 134
3 109 134 110
4 107 111 135 132
4 110 136 137 112
3 110 134 136
3 114 138 115
4 115 138 139 140
4 115 140 119 116
4 118 117 141 142
3 119 143 144
3 119 140 143
4 119 144 122 120
4 117 121 145 141
4 122 146 147 148
4 122 144 149 146
4 122 148 125 123
4 121 124 150 145
4 125 151 152 126
3 125 148 151
4 124 127 153 150
3 126 152 154
4 126 154 130 128
4 127 129 155 153
4 130 154 156 157
4 130 158 133 131
4 130 157 159 158
4 129 132 160 155
3 133 158 161
3 133 161 162
4 133 162 136 134
4 132 135 163 160
3 136 164 137
4 136 162 165 164
3 139 166 143
3 139 143 140
3 142 141 167
4 142 167 168 169
3 149 170 171
3 149 143 166
3 149 166 170
3 149 144 143
4 149 171 147 146
4 141 145 172 173
3 141 173 167
3 147 151 148
4 145 150 174 172
4 150 153 175 174
3 152 156 154
4 153 155 176 175
4 156 177 159 157
4 155 160 178 176
3 159 177 179
3 159 161 158
3 159 180 161
3 159 179 180
3 161 180 165
3 161 165 162
3 160 163 181
3 160 181 178
4 163 182 183 181
4 168 184 185 186
3 168 186 187
3 168 167 184
3 184 167 173
3 184 173 188
3 184 188 185
3 173 172 188
4 172 174 189 190
3 172 190 188
4 174 175 191 189
4 175 176 192 191
3 176 178 193
3 176 193 192
4 194 183 195 196
3 194 193 178
3 194 196 193
3 194 178 181
3 194 181 183
3 183 197 195
4 198 186 199 200
3 198 187 186
4 186 185 201 199
4 185 202 203 201
3 185 188 202
4 202 204 205 203
4 202 190 189 204
3 202 188 190
4 204 206 207 205
4 204 189 191 206
4 206 208 209 207
4 206 191 192 208
4 208 196 210 209
3 208 192 193
3 208 193 196
4 196 195 211 210
4 195 212 213 211
3 195 197 212
3 200 199 214
3 200 214 215
3 199 201 216
4 199 216 217 214
4 201 203 218 219
3 201 219 216
4 203 205 220 218
4 205 207 221 220
4 207 209 222 221
4 209 210 223 222
3 210 211 224
3 210 224 223
3 211 213 225
4 211 225 226 224
3 213 227 225
4 228 217 229 230
3 228 215 214
3 228 214 217
3 217 231 229
4 217 216 219 231
3 219 218 232
4 219 232 233 231
3 218 220 234
4 218 234 235 232
3 220 221 236
4 220 236 237 234
3 221 222 238
4 221 238 239 236
3 222 223 240
4 222 240 241 238
4 223 242 243 240
4 223 224 226 242
4 226 244 245 246
3 226 246 242
3 226 225 244
3 244 225 227
3 230 229 247
3 229 233 248
3 229 231 233
4 229 248 249 247
4 233 235 250 251
3 233 251 248
3 233 232 235
4 235 237 252 250
3 235 234 237
4 237 239 253 252
3 237 236 239
4 239 241 254 253
3 239 238 241
4 241 243 255 254
3 241 240 243
3 243 246 256
3 243 256 255
3 243 242 246
3 246 245 257
4 246 257 258 256
4 259 249 260 261
3 259 247 249
4 249 262 263 260
3 249 248 262
3 262 248 251
3 262 251 264
3 262 264 263
3 251 250 264
3 250 252 265
4 250 265 266 264
3 252 253 267
4 252 267 268 265
3 253 254 269
4 253 269 270 267
3 254 255 271
4 254 271 272 269
4 273 258 274 275
3 273 271 255
3 273 275 271
3 273 255 256
3 273 256 258
4 258 276 277 274
3 258 257 276
3 261 260 278
4 261 278 279 280
3 260 263 281
4 260 281 282 278
3 263 266 283
3 263 264 266
4 263 283 284 281
3 266 268 285
3 266 265 268
4 266 285 286 283
3 268 270 287
3 268 267 270
4 268 287 288 285
3 270 272 289
3 270 269 272
4 270 289 290 287
3 272 275 291
3 272 271 275
4 272 291 292 289
3 275 274 293
4 275 293 294 291
3 274 277 295
4 274 295 296 293
4 277 297 298 295
3 299 279 300
3 299 280 279
4 299 300 301 302
3 279 282 303
3 279 278 282
4 279 303 304 300
3 282 284 305
3 282 281 284
4 282 305 306 303
3 284 286 307
3 284 283 286
4 284 307 308 305
3 286 288 309
3 286 285 288
4 286 309 310 307
3 288 290 311
3 288 287 290
4 288 311 312 309
3 290 292 313
3 290 289 292
4 290 313 314 311
3 292 294 315
3 292 291 294
4 292 315 316 313
3 294 296 317
3 294 293 296
4 294 317 318 315
3 296 298 319
3 296 295 298
4 296 319 320 317
3 298 321 322
3 298 297 321
4 298 322 323 319
4 321 324 325 322
3 301 300 304
3 304 303 306
3 306 305 308
3 308 307 310
3 310 309 312
3 312 311 314
3 314 313 316
3 316 315 318
3 318 317 320
3 320 319 323
3 323 322 325
