ply
format ascii 1.0
comment VTK generated PLY File
obj_info vtkPolyData points and polygons: vtk4.0
element vertex 1147
property float x
property float y
property float z
element face 2132
property list uchar int vertex_indices
end_header
0.140674 0.001363 0.121718 
0.140878 0.000985 0.119655 
0.140836 0.002165 0.119774 
0.140678 0 0.121652 
0.140884 0 0.119636 
0.14068 0.003608 0.119931 
0.140524 0.003241 0.121933 
0.140382 0.002527 0.123677 
0.140459 0.00107 0.123511 
0.140453 0 0.123463 
0.140999 0.001193 0.117214 
0.14093 0.002537 0.117325 
0.141014 0 0.11718 
0.140742 0.00412 0.117529 
0.139972 0.005507 0.122212 
0.14031 0.005319 0.120209 
0.139635 0.007304 0.120444 
0.140062 0.004184 0.123799 
0.140342 0.005969 0.117824 
0.139643 0.008082 0.118186 
0.138617 0.010366 0.118573 
0.138588 0.009557 0.12078 
0.140836 -0.002165 0.119774 
0.140878 -0.000985 0.119655 
0.140674 -0.001363 0.121718 
0.14068 -0.003608 0.119931 
0.140742 -0.00412 0.117529 
0.14093 -0.002537 0.117325 
0.140999 -0.001193 0.117214 
0.140524 -0.003241 0.121933 
0.140459 -0.00107 0.123511 
0.140382 -0.002527 0.123677 
0.139635 -0.007304 0.120444 
0.14031 -0.005319 0.120209 
0.139972 -0.005507 0.122212 
0.138588 -0.009557 0.12078 
0.138617 -0.010366 0.118573 
0.139643 -0.008082 0.118186 
0.140342 -0.005969 0.117824 
0.140062 -0.004184 0.123799 
0.163824 0 0.005237 
0.16335 0.003232 0.005363 
0.163112 0.003552 0.008622 
0.163522 0 0.008533 
0.163112 -0.003552 0.008622 
0.16335 -0.003232 0.005363 
0.162623 0.00388 0.012366 
0.162937 0 0.012321 
0.162623 -0.00388 0.012366 
0.162182 0.006384 0.00567 
0.16199 0.007037 0.008864 
0.161656 0.007713 0.012493 
0.162036 0.004311 0.016433 
0.162302 0 0.016428 
0.162036 -0.004311 0.016433 
0.161182 0.008553 0.016438 
0.161356 0.004796 0.02062 
0.161588 0 0.020655 
0.161356 -0.004796 0.02062 
0.160586 0.009484 0.020511 
0.160598 0.005251 0.024679 
0.160798 0 0.024752 
0.160598 -0.005251 0.024679 
0.159912 0.010354 0.024477 
0.159827 0.005594 0.028388 
0.159991 0 0.028489 
0.159827 -0.005594 0.028388 
0.159232 0.011008 0.02813 
0.159091 0.00578 0.031684 
0.159222 0 0.031795 
0.159091 -0.00578 0.031684 
0.158601 0.011355 0.031404 
0.158349 0.005794 0.034627 
0.158432 0 0.034739 
0.158349 -0.005794 0.034627 
0.158002 0.011399 0.034399 
0.157599 0.005707 0.037254 
0.157628 0 0.037258 
0.157599 -0.005707 0.037254 
0.157391 0.011264 0.037244 
0.156928 0.005635 0.039915 
0.156949 0 0.039829 
0.156928 -0.005635 0.039915 
0.156759 0.011097 0.040095 
0.156251 0.005518 0.042849 
0.156283 0 0.042791 
0.156251 -0.005518 0.042849 
0.156067 0.010872 0.043028 
0.155461 0.005353 0.045856 
0.155486 0 0.045829 
0.155461 -0.005353 0.045856 
0.155285 0.010577 0.045967 
0.154601 0.005203 0.048786 
0.154628 0 0.048767 
0.154601 -0.005203 0.048786 
0.154436 0.010289 0.048849 
0.153689 0.005066 0.051681 
0.153715 0 0.051697 
0.153689 -0.005066 0.051681 
0.153542 0.01002 0.051666 
0.152724 0.004926 0.054502 
0.152733 0 0.054536 
0.152724 -0.004926 0.054502 
0.152621 0.009763 0.05444 
0.151768 0.004823 0.057274 
0.151772 0 0.057277 
0.151768 -0.004823 0.057274 
0.151688 0.00956 0.057265 
0.150818 0.004759 0.060119 
0.150834 0 0.060096 
0.150818 -0.004759 0.060119 
0.150717 0.009423 0.060202 
0.149829 0.004697 0.062943 
0.149857 0 0.062898 
0.149829 -0.004697 0.062943 
0.149688 0.00932 0.063116 
0.148869 0.004652 0.065613 
0.148909 0 0.065538 
0.148869 -0.004652 0.065613 
0.14868 0.009247 0.06585 
0.148018 0.004622 0.068213 
0.148078 0 0.068143 
0.148018 -0.004622 0.068213 
0.147785 0.009185 0.068436 
0.147268 0.004564 0.070789 
0.14733 0 0.07075 
0.147268 -0.004564 0.070789 
0.14703 0.009098 0.07096 
0.146603 0.004501 0.073316 
0.146648 0 0.07326 
0.146603 -0.004501 0.073316 
0.146387 0.009013 0.073508 
0.146018 0.004513 0.075879 
0.146079 0 0.075785 
0.146018 -0.004513 0.075879 
0.145769 0.009025 0.076147 
0.145412 0.004577 0.07848 
0.145509 0 0.078383 
0.145412 -0.004577 0.07848 
0.145064 0.009144 0.078781 
0.144757 0.004647 0.080953 
0.144887 0 0.080862 
0.144757 -0.004647 0.080953 
0.144302 0.009266 0.081232 
0.144162 0.004701 0.083193 
0.144321 0 0.083105 
0.144162 -0.004701 0.083193 
0.143644 0.009336 0.083442 
0.160377 0.00932 0.006171 
0.160197 0.0103 0.009279 
0.159968 0.011336 0.01273 
0.15959 0.012561 0.016471 
0.159078 0.013895 0.020361 
0.158502 0.015137 0.024197 
0.157949 0.016064 0.027795 
0.157475 0.016556 0.031067 
0.157097 0.016662 0.034143 
0.156709 0.016527 0.037237 
0.15615 0.016309 0.040344 
0.155446 0.015997 0.043325 
0.154689 0.015592 0.046193 
0.153887 0.015182 0.048997 
0.153063 0.014788 0.051705 
0.152233 0.014417 0.054405 
0.15136 0.014121 0.057284 
0.150377 0.013916 0.060386 
0.149273 0.013787 0.063479 
0.14818 0.013697 0.066309 
0.147227 0.013625 0.068881 
0.146462 0.013548 0.071345 
0.145833 0.013493 0.073895 
0.145152 0.013541 0.076622 
0.144275 0.013707 0.079299 
0.14336 0.013817 0.08169 
0.142637 0.013841 0.083836 
0.158076 0.011864 0.006914 
0.157858 0.013125 0.009938 
0.157616 0.01448 0.013189 
0.157228 0.016026 0.016684 
0.156704 0.017695 0.020345 
0.156147 0.019265 0.024016 
0.155668 0.020482 0.027563 
0.155321 0.021147 0.030855 
0.155123 0.021409 0.033989 
0.154949 0.021452 0.037287 
0.15447 0.021268 0.040655 
0.15381 0.020866 0.043696 
0.153167 0.020359 0.046513 
0.152508 0.019837 0.049252 
0.151868 0.019319 0.051841 
0.151234 0.018841 0.054445 
0.150488 0.018475 0.057381 
0.149505 0.018229 0.060728 
0.148287 0.018055 0.064094 
0.147089 0.017936 0.067067 
0.146084 0.017874 0.069655 
0.145301 0.017856 0.072065 
0.144635 0.017911 0.074588 
0.143807 0.018054 0.077356 
0.142711 0.01819 0.079997 
0.14169 0.018186 0.082278 
0.140954 0.018099 0.084366 
0.155479 0.013992 0.007907 
0.155184 0.015466 0.010871 
0.15484 0.017039 0.013959 
0.15434 0.01877 0.017236 
0.153692 0.020602 0.020675 
0.153008 0.022335 0.024172 
0.152414 0.02374 0.027653 
0.15202 0.02457 0.030975 
0.151789 0.025011 0.034157 
0.151557 0.025272 0.037486 
0.151116 0.025214 0.040879 
0.150624 0.024864 0.043969 
0.1502 0.024396 0.046825 
0.149814 0.023873 0.049548 
0.149507 0.023339 0.052072 
0.149198 0.022864 0.054631 
0.148638 0.022497 0.057643 
0.147636 0.022213 0.061244 
0.146318 0.021939 0.064923 
0.145054 0.021777 0.068133 
0.144026 0.021757 0.070825 
0.143211 0.021844 0.07322 
0.142406 0.022018 0.075659 
0.141371 0.022184 0.078228 
0.140213 0.022195 0.080649 
0.139225 0.022054 0.082866 
0.138544 0.021819 0.084977 
0.152688 0.0158 0.009115 
0.1523 0.01743 0.012048 
0.151821 0.019123 0.01502 
0.15117 0.020896 0.018118 
0.150354 0.022678 0.021343 
0.149475 0.024314 0.024656 
0.148679 0.025628 0.028017 
0.148109 0.026485 0.031326 
0.147698 0.026988 0.034545 
0.14729 0.027281 0.037768 
0.146853 0.027367 0.040992 
0.146435 0.027268 0.044119 
0.146103 0.027029 0.0471 
0.145922 0.026673 0.049877 
0.145897 0.026288 0.052429 
0.145863 0.025996 0.055032 
0.145482 0.025737 0.058125 
0.144528 0.025349 0.061813 
0.14323 0.024976 0.065776 
0.141942 0.024801 0.069425 
0.140932 0.024875 0.072294 
0.140134 0.025082 0.074564 
0.139274 0.025298 0.076734 
0.138253 0.025434 0.078921 
0.137218 0.02541 0.081103 
0.136331 0.025178 0.083344 
0.135753 0.024746 0.085568 
0.149717 0.017365 0.010485 
0.149234 0.019121 0.013412 
0.148614 0.020859 0.016286 
0.147793 0.022546 0.019191 
0.146799 0.024115 0.022173 
0.145745 0.025472 0.02527 
0.144794 0.026536 0.028467 
0.144069 0.027285 0.031698 
0.143508 0.027758 0.034895 
0.143004 0.02805 0.038033 
0.142527 0.02826 0.041165 
0.142043 0.028386 0.044334 
0.141623 0.028369 0.047454 
0.141423 0.02817 0.05035 
0.141445 0.027881 0.052974 
0.141453 0.027665 0.05559 
0.141113 0.027508 0.058664 
0.140449 0.027211 0.062219 
0.139398 0.026946 0.066275 
0.138212 0.026845 0.070332 
0.137326 0.027062 0.07332 
0.136704 0.027439 0.075373 
0.135967 0.027715 0.077345 
0.135105 0.027903 0.079316 
0.13421 0.027949 0.081384 
0.133448 0.027659 0.083715 
0.133035 0.02696 0.086103 
0.146531 0.018681 0.011901 
0.145957 0.020554 0.014833 
0.145173 0.022238 0.017558 
0.144149 0.023708 0.020186 
0.142984 0.025 0.022917 
0.141796 0.026012 0.025827 
0.140746 0.026776 0.028873 
0.139937 0.027386 0.032019 
0.139293 0.027835 0.035195 
0.138746 0.028156 0.038314 
0.138248 0.028485 0.041461 
0.137715 0.028784 0.044701 
0.137206 0.028931 0.047934 
0.136923 0.028826 0.050931 
0.13684 0.028528 0.053622 
0.13673 0.028204 0.056192 
0.136311 0.027977 0.059051 
0.135675 0.027914 0.062496 
0.135163 0.028061 0.066304 
0.134592 0.028383 0.069976 
0.134016 0.02881 0.073028 
0.133474 0.029214 0.075453 
0.132865 0.029539 0.077565 
0.13216 0.029807 0.079564 
0.131393 0.029951 0.081634 
0.130751 0.030027 0.084032 
0.130589 0.029032 0.086622 
0.143039 0.019467 0.013032 
0.142314 0.02124 0.015803 
0.141324 0.022741 0.018286 
0.140152 0.024145 0.020708 
0.138877 0.025216 0.023326 
0.13762 0.025832 0.026207 
0.136532 0.026358 0.029182 
0.135706 0.026902 0.032281 
0.135058 0.027399 0.03546 
0.134536 0.027841 0.038637 
0.134083 0.028309 0.041848 
0.133643 0.02876 0.045113 
0.133266 0.029062 0.048318 
0.133076 0.029111 0.051295 
0.132996 0.028915 0.054027 
0.132776 0.028589 0.056644 
0.132025 0.028272 0.059454 
0.13077 0.026542 0.063479 
0.130483 0.027724 0.066601 
0.130145 0.028924 0.069776 
0.12984 0.030071 0.072709 
0.129584 0.03101 0.075354 
0.129352 0.031961 0.077679 
0.128974 0.032465 0.079755 
0.128724 0.032423 0.082019 
0.12824 0.032473 0.084512 
0.128439 0.030191 0.087241 
0.126594 0.032394 0.085159 
0.126696 0.03071 0.087987 
0.112043 0.026089 0.084793 
0.111828 0.026743 0.08832 
0.114524 0.027696 0.088842 
0.114389 0.027679 0.085503 
0.11711 0.02871 0.089406 
0.116957 0.029313 0.086386 
0.112104 0.026482 0.092013 
0.114786 0.027291 0.09221 
0.117353 0.028053 0.09244 
0.119436 0.029976 0.089764 
0.119484 0.030911 0.086876 
0.119655 0.028651 0.092525 
0.1215 0.030385 0.089769 
0.121438 0.032126 0.087113 
0.1217 0.029299 0.092343 
0.123338 0.030791 0.089388 
0.123176 0.032254 0.08659 
0.123543 0.029623 0.091909 
0.125037 0.030858 0.088752 
0.124904 0.032326 0.085909 
0.125267 0.029615 0.091306 
0.126961 0.029394 0.090608 
0.128707 0.028884 0.089888 
0.130735 0.027936 0.089161 
0.133005 0.026139 0.088499 
0.135532 0.024201 0.087851 
0.13816 0.021521 0.087177 
0.140485 0.017978 0.086522 
0.14214 0.013816 0.085994 
0.143148 0.009349 0.085613 
0.14368 0.004717 0.085368 
0.143846 0 0.085283 
0.14368 -0.004717 0.085368 
0.11232 0.026068 0.095434 
0.114986 0.026756 0.095422 
0.117541 0.027332 0.095397 
0.119843 0.027724 0.095265 
0.121912 0.028051 0.094924 
0.123798 0.028177 0.094422 
0.125575 0.028119 0.093811 
0.127315 0.027866 0.093133 
0.129085 0.027381 0.092426 
0.131083 0.026549 0.091677 
0.133257 0.025322 0.090957 
0.135625 0.023572 0.090256 
0.138075 0.021093 0.089553 
0.140276 0.017726 0.088871 
0.141851 0.013658 0.088292 
0.142798 0.009246 0.087844 
0.143296 0.004665 0.087541 
0.143449 0 0.08743 
0.143296 -0.004665 0.087541 
0.112487 0.025523 0.098636 
0.115145 0.026148 0.098461 
0.117697 0.026651 0.098238 
0.120024 0.027014 0.097922 
0.122139 0.027245 0.097473 
0.124091 0.027318 0.096913 
0.125939 0.027222 0.096281 
0.127743 0.026944 0.095602 
0.129561 0.026456 0.094902 
0.131566 0.025653 0.094157 
0.133694 0.024472 0.093431 
0.13595 0.02277 0.092726 
0.138222 0.020357 0.092035 
0.140223 0.01711 0.091353 
0.141648 0.013216 0.090701 
0.142516 0.008971 0.090141 
0.142981 0.004536 0.089744 
0.143127 0 0.089591 
0.142981 -0.004536 0.089744 
0.112616 0.024884 0.101652 
0.115276 0.025501 0.101344 
0.117839 0.025996 0.100967 
0.120201 0.026348 0.100514 
0.122378 0.026549 0.099974 
0.124406 0.026591 0.099362 
0.126334 0.026463 0.0987 
0.128211 0.02615 0.09801 
0.130086 0.025621 0.097306 
0.132111 0.024773 0.096566 
0.134212 0.023532 0.095842 
0.136365 0.021757 0.09514 
0.138432 0.01931 0.094451 
0.140177 0.016163 0.093754 
0.141432 0.012509 0.09306 
0.142237 0.008524 0.092436 
0.142685 0.00432 0.091973 
0.142828 0 0.091782 
0.142685 -0.00432 0.091973 
0.112711 0.024171 0.104499 
0.115385 0.024814 0.104085 
0.11797 0.025335 0.10359 
0.120377 0.025703 0.103031 
0.122619 0.025906 0.102412 
0.124725 0.025934 0.101746 
0.126732 0.025776 0.10105 
0.128679 0.025414 0.100339 
0.13061 0.024814 0.099623 
0.13265 0.023868 0.09888 
0.13471 0.022508 0.098152 
0.136733 0.020624 0.097437 
0.138578 0.018155 0.096726 
0.140096 0.015129 0.096006 
0.141208 0.011699 0.095305 
0.14195 0.007973 0.09468 
0.142375 0.004041 0.094192 
0.14251 0 0.093943 
0.142375 -0.004041 0.094192 
0.112766 0.023396 0.107182 
0.115463 0.024089 0.106681 
0.118079 0.024658 0.106093 
0.120536 0.025063 0.105448 
0.122844 0.025286 0.104759 
0.125024 0.02531 0.104041 
0.127106 0.025122 0.10331 
0.12912 0.024699 0.102575 
0.131097 0.024007 0.101845 
0.133137 0.022939 0.101093 
0.135134 0.021448 0.100352 
0.137012 0.019473 0.09962 
0.138659 0.017013 0.098891 
0.139997 0.014108 0.098168 
0.14099 0.010877 0.097486 
0.141667 0.007398 0.09689 
0.142061 0.003744 0.096426 
0.142186 0 0.09618 
0.142061 -0.003744 0.096426 
0.112766 0.022565 0.109696 
0.115492 0.023327 0.109121 
0.118145 0.023964 0.108457 
0.120655 0.024424 0.10774 
0.123029 0.024679 0.106992 
0.125283 0.024706 0.10623 
0.127438 0.024487 0.105467 
0.129513 0.023996 0.104713 
0.131529 0.023201 0.103969 
0.133555 0.022007 0.103209 
0.135476 0.020398 0.10246 
0.137217 0.018359 0.101719 
0.138702 0.015925 0.10099 
0.139898 0.013132 0.100283 
0.14079 0.010081 0.099639 
0.141402 0.006835 0.099096 
0.141761 0.003452 0.0987 
0.141879 0 0.098539 
0.141761 -0.003452 0.0987 
0.112689 0.021687 0.112031 
0.115449 0.022535 0.111391 
0.118145 0.023255 0.110667 
0.120712 0.023785 0.109893 
0.123156 0.024084 0.109097 
0.125486 0.024121 0.108301 
0.127714 0.023871 0.107517 
0.129851 0.023309 0.106752 
0.131901 0.022408 0.106004 
0.133908 0.021094 0.105246 
0.135755 0.019381 0.104498 
0.137379 0.017297 0.103763 
0.138734 0.014894 0.103051 
0.139815 0.012203 0.102376 
0.140617 0.009316 0.101781 
0.141166 0.006289 0.101301 
0.141485 0.003168 0.100977 
0.14159 0 0.100858 
0.141485 -0.003168 0.100977 
0.112521 0.020766 0.114184 
0.115318 0.021713 0.113494 
0.118062 0.022533 0.112726 
0.120693 0.023149 0.111908 
0.123212 0.023505 0.111077 
0.125624 0.023561 0.110257 
0.127932 0.023284 0.109464 
0.130135 0.02265 0.108701 
0.13222 0.021641 0.107963 
0.134212 0.02021 0.107221 
0.135996 0.018404 0.106492 
0.137526 0.016281 0.105778 
0.138777 0.013906 0.105096 
0.139763 0.011306 0.104461 
0.140484 0.008572 0.103918 
0.140969 0.005753 0.103498 
0.141246 0.002886 0.103231 
0.141336 0 0.103138 
0.141246 -0.002886 0.103231 
0.11227 0.019797 0.11619 
0.115105 0.020857 0.115461 
0.117897 0.021792 0.114658 
0.120593 0.022513 0.113805 
0.123193 0.022946 0.112945 
0.125697 0.023033 0.112112 
0.128095 0.022733 0.111323 
0.130372 0.022024 0.110578 
0.132502 0.020904 0.109866 
0.134487 0.019355 0.10916 
0.136225 0.017458 0.108466 
0.137681 0.015295 0.107789 
0.13885 0.012941 0.107145 
0.139755 0.010422 0.106552 
0.140401 0.007831 0.106056 
0.140823 0.005215 0.105686 
0.141056 0.002602 0.105461 
0.14113 0 0.105387 
0.141056 -0.002602 0.105461 
0.111948 0.018777 0.118081 
0.11482 0.019954 0.117329 
0.117656 0.02102 0.116503 
0.120416 0.021869 0.115621 
0.123103 0.022402 0.114736 
0.125707 0.022537 0.113895 
0.128209 0.022222 0.11312 
0.130574 0.021436 0.112409 
0.13276 0.020195 0.111744 
0.134751 0.018521 0.111091 
0.136458 0.016527 0.110449 
0.137861 0.014317 0.109821 
0.138967 0.011977 0.109222 
0.139804 0.009533 0.108671 
0.140382 0.007081 0.108213 
0.140742 0.004665 0.107877 
0.140929 0.002307 0.10768 
0.140985 0 0.107618 
0.140929 -0.002307 0.10768 
0.11157 0.017698 0.11989 
0.114478 0.018989 0.119137 
0.117353 0.020194 0.118305 
0.120172 0.021195 0.117405 
0.122946 0.021858 0.1165 
0.125661 0.022065 0.115653 
0.128281 0.021744 0.114899 
0.130749 0.020876 0.114235 
0.133 0.019504 0.113631 
0.135008 0.017694 0.113047 
0.1367 0.015594 0.112471 
0.138071 0.01333 0.111902 
0.13913 0.010998 0.111354 
0.139913 0.008629 0.110846 
0.140433 0.00632 0.110421 
0.140737 0.004108 0.110108 
0.140881 0.002007 0.109921 
0.140919 0 0.10986 
0.140881 -0.002007 0.109921 
0.111152 0.016562 0.121644 
0.114099 0.017945 0.120918 
0.117008 0.019283 0.12011 
0.119877 0.020451 0.119219 
0.122731 0.021275 0.11831 
0.125561 0.021588 0.117461 
0.128312 0.021278 0.116728 
0.130893 0.020326 0.116115 
0.133216 0.018813 0.115578 
0.135248 0.01686 0.115066 
0.13694 0.01465 0.11456 
0.138295 0.012327 0.114054 
0.139327 0.010003 0.113562 
0.140071 0.007712 0.113102 
0.140544 0.005556 0.112716 
0.140806 0.003561 0.112431 
0.140922 0.001725 0.112258 
0.140951 0 0.112199 
0.140922 -0.001725 0.112258 
0.110713 0.015382 0.123363 
0.113706 0.01682 0.122694 
0.11665 0.018255 0.121952 
0.119558 0.019573 0.121124 
0.122472 0.020576 0.120256 
0.125406 0.021033 0.119422 
0.128288 0.020763 0.118708 
0.130983 0.019736 0.118133 
0.133375 0.01809 0.117642 
0.135434 0.016007 0.117181 
0.13714 0.013696 0.116731 
0.138498 0.011321 0.116284 
0.139519 0.00901 0.115848 
0.140236 0.006805 0.115438 
0.140671 0.004806 0.115098 
0.140897 0.003028 0.114854 
0.140992 0.001451 0.11471 
0.141016 0 0.114663 
0.140992 -0.001451 0.11471 
0.110272 0.014202 0.125054 
0.113323 0.01564 0.124469 
0.116316 0.017102 0.123841 
0.119263 0.018492 0.123147 
0.122205 0.019626 0.1224 
0.125195 0.02024 0.121643 
0.128178 0.020055 0.120954 
0.130967 0.019001 0.120379 
0.133415 0.01728 0.119872 
0.135505 0.015129 0.119407 
0.137238 0.012765 0.118978 
0.109881 0.013057 0.126773 
0.112973 0.014472 0.126244 
0.116008 0.015896 0.125706 
0.118985 0.017271 0.12512 
0.121935 0.018447 0.124468 
0.124943 0.019157 0.12379 
0.128 0.019064 0.123131 
0.130856 0.018037 0.122549 
0.133338 0.016339 0.122025 
0.135444 0.014226 0.121562 
0.137192 0.011906 0.121152 
0.140111 0.001236 0.130879 
0.140173 0.000864 0.130844 
0.140222 0.00131 0.128812 
0.140107 0.001901 0.128905 
0.140193 0.001647 0.126977 
0.140049 0.002504 0.127125 
0.140213 0.000435 0.130802 
0.140293 0.00065 0.128724 
0.140258 0.000777 0.126846 
0.140247 0.002012 0.125317 
0.140048 0.003223 0.125468 
0.140299 0.000875 0.125161 
0.140227 0 0.130787 
0.140316 0 0.128691 
0.140271 0 0.126793 
0.140294 0 0.125105 
0.140213 -0.000435 0.130802 
0.140293 -0.00065 0.128724 
0.140258 -0.000777 0.126846 
0.140299 -0.000875 0.125161 
0.16199 -0.007037 0.008864 
0.162182 -0.006384 0.00567 
0.161656 -0.007713 0.012493 
0.161182 -0.008553 0.016438 
0.160586 -0.009484 0.020511 
0.159912 -0.010354 0.024477 
0.159232 -0.011008 0.02813 
0.158601 -0.011355 0.031404 
0.158002 -0.011399 0.034399 
0.157391 -0.011264 0.037244 
0.156759 -0.011097 0.040095 
0.156067 -0.010872 0.043028 
0.155285 -0.010577 0.045967 
0.154436 -0.010289 0.048849 
0.153542 -0.01002 0.051666 
0.152621 -0.009763 0.05444 
0.151688 -0.00956 0.057265 
0.150717 -0.009423 0.060202 
0.149688 -0.00932 0.063116 
0.14868 -0.009247 0.06585 
0.147785 -0.009185 0.068436 
0.14703 -0.009098 0.07096 
0.146387 -0.009013 0.073508 
0.145769 -0.009025 0.076147 
0.145064 -0.009144 0.078781 
0.144302 -0.009266 0.081232 
0.143644 -0.009336 0.083442 
0.160197 -0.0103 0.009279 
0.160377 -0.00932 0.006171 
0.159968 -0.011336 0.01273 
0.15959 -0.012561 0.016471 
0.159078 -0.013895 0.020361 
0.158502 -0.015137 0.024197 
0.157949 -0.016064 0.027795 
0.157475 -0.016556 0.031067 
0.157097 -0.016662 0.034143 
0.156709 -0.016527 0.037237 
0.15615 -0.016309 0.040344 
0.155446 -0.015997 0.043325 
0.154689 -0.015592 0.046193 
0.153887 -0.015182 0.048997 
0.153063 -0.014788 0.051705 
0.152233 -0.014417 0.054405 
0.15136 -0.014121 0.057284 
0.150377 -0.013916 0.060386 
0.149273 -0.013787 0.063479 
0.14818 -0.013697 0.066309 
0.147227 -0.013625 0.068881 
0.146462 -0.013548 0.071345 
0.145833 -0.013493 0.073895 
0.145152 -0.013541 0.076622 
0.144275 -0.013707 0.079299 
0.14336 -0.013817 0.08169 
0.142637 -0.013841 0.083836 
0.157858 -0.013125 0.009938 
0.158076 -0.011864 0.006914 
0.157616 -0.01448 0.013189 
0.157228 -0.016026 0.016684 
0.156704 -0.017695 0.020345 
0.156147 -0.019265 0.024016 
0.155668 -0.020482 0.027563 
0.155321 -0.021147 0.030855 
0.155123 -0.021409 0.033989 
0.154949 -0.021452 0.037287 
0.15447 -0.021268 0.040655 
0.15381 -0.020866 0.043696 
0.153167 -0.020359 0.046513 
0.152508 -0.019837 0.049252 
0.151868 -0.019319 0.051841 
0.151234 -0.018841 0.054445 
0.150488 -0.018475 0.057381 
0.149505 -0.018229 0.060728 
0.148287 -0.018055 0.064094 
0.147089 -0.017936 0.067067 
0.146084 -0.017874 0.069655 
0.145301 -0.017856 0.072065 
0.144635 -0.017911 0.074588 
0.143807 -0.018054 0.077356 
0.142711 -0.01819 0.079997 
0.14169 -0.018186 0.082278 
0.140954 -0.018099 0.084366 
0.155184 -0.015466 0.010871 
0.155479 -0.013992 0.007907 
0.15484 -0.017039 0.013959 
0.15434 -0.01877 0.017236 
0.153692 -0.020602 0.020675 
0.153008 -0.022335 0.024172 
0.152414 -0.02374 0.027653 
0.15202 -0.02457 0.030975 
0.151789 -0.025011 0.034157 
0.151557 -0.025272 0.037486 
0.151116 -0.025214 0.040879 
0.150624 -0.024864 0.043969 
0.1502 -0.024396 0.046825 
0.149814 -0.023873 0.049548 
0.149507 -0.023339 0.052072 
0.149198 -0.022864 0.054631 
0.148638 -0.022497 0.057643 
0.147636 -0.022213 0.061244 
0.146318 -0.021939 0.064923 
0.145054 -0.021777 0.068133 
0.144026 -0.021757 0.070825 
0.143211 -0.021844 0.07322 
0.142406 -0.022018 0.075659 
0.141371 -0.022184 0.078228 
0.140213 -0.022195 0.080649 
0.139225 -0.022054 0.082866 
0.138544 -0.021819 0.084977 
0.1523 -0.01743 0.012048 
0.152688 -0.0158 0.009115 
0.151821 -0.019123 0.01502 
0.15117 -0.020896 0.018118 
0.150354 -0.022678 0.021343 
0.149475 -0.024314 0.024656 
0.148679 -0.025628 0.028017 
0.148109 -0.026485 0.031326 
0.147698 -0.026988 0.034545 
0.14729 -0.027281 0.037768 
0.146853 -0.027367 0.040992 
0.146435 -0.027268 0.044119 
0.146103 -0.027029 0.0471 
0.145922 -0.026673 0.049877 
0.145897 -0.026288 0.052429 
0.145863 -0.025996 0.055032 
0.145482 -0.025737 0.058125 
0.144528 -0.025349 0.061813 
0.14323 -0.024976 0.065776 
0.141942 -0.024801 0.069425 
0.140932 -0.024875 0.072294 
0.140134 -0.025082 0.074564 
0.139274 -0.025298 0.076734 
0.138253 -0.025434 0.078921 
0.137218 -0.02541 0.081103 
0.136331 -0.025178 0.083344 
0.135753 -0.024746 0.085568 
0.149234 -0.019121 0.013412 
0.149717 -0.017365 0.010485 
0.148614 -0.020859 0.016286 
0.147793 -0.022546 0.019191 
0.146799 -0.024115 0.022173 
0.145745 -0.025472 0.02527 
0.144794 -0.026536 0.028467 
0.144069 -0.027285 0.031698 
0.143508 -0.027758 0.034895 
0.143004 -0.02805 0.038033 
0.142527 -0.02826 0.041165 
0.142043 -0.028386 0.044334 
0.141623 -0.028369 0.047454 
0.141423 -0.02817 0.05035 
0.141445 -0.027881 0.052974 
0.141453 -0.027665 0.05559 
0.141113 -0.027508 0.058664 
0.140449 -0.027211 0.062219 
0.139398 -0.026946 0.066275 
0.138212 -0.026845 0.070332 
0.137326 -0.027062 0.07332 
0.136704 -0.027439 0.075373 
0.135967 -0.027715 0.077345 
0.135105 -0.027903 0.079316 
0.13421 -0.027949 0.081384 
0.133448 -0.027659 0.083715 
0.133035 -0.02696 0.086103 
0.145957 -0.020554 0.014833 
0.146531 -0.018681 0.011901 
0.145173 -0.022238 0.017558 
0.144149 -0.023708 0.020186 
0.142984 -0.025 0.022917 
0.141796 -0.026012 0.025827 
0.140746 -0.026776 0.028873 
0.139937 -0.027386 0.032019 
0.139293 -0.027835 0.035195 
0.138746 -0.028156 0.038314 
0.138248 -0.028485 0.041461 
0.137715 -0.028784 0.044701 
0.137206 -0.028931 0.047934 
0.136923 -0.028826 0.050931 
0.13684 -0.028528 0.053622 
0.13673 -0.028204 0.056192 
0.136311 -0.027977 0.059051 
0.135675 -0.027914 0.062496 
0.135163 -0.028061 0.066304 
0.134592 -0.028383 0.069976 
0.134016 -0.02881 0.073028 
0.133474 -0.029214 0.075453 
0.132865 -0.029539 0.077565 
0.13216 -0.029807 0.079564 
0.131393 -0.029951 0.081634 
0.130751 -0.030027 0.084032 
0.130589 -0.029032 0.086622 
0.142314 -0.02124 0.015803 
0.143039 -0.019467 0.013032 
0.141324 -0.022741 0.018286 
0.140152 -0.024145 0.020708 
0.138877 -0.025216 0.023326 
0.13762 -0.025832 0.026207 
0.136532 -0.026358 0.029182 
0.135706 -0.026902 0.032281 
0.135058 -0.027399 0.03546 
0.134536 -0.027841 0.038637 
0.134083 -0.028309 0.041848 
0.133643 -0.02876 0.045113 
0.133266 -0.029062 0.048318 
0.133076 -0.029111 0.051295 
0.132996 -0.028915 0.054027 
0.132776 -0.028589 0.056644 
0.132025 -0.028272 0.059454 
0.13077 -0.026542 0.063479 
0.130483 -0.027724 0.066601 
0.130145 -0.028924 0.069776 
0.12984 -0.030071 0.072709 
0.129584 -0.03101 0.075354 
0.129352 -0.031961 0.077679 
0.128974 -0.032465 0.079755 
0.128724 -0.032423 0.082019 
0.12824 -0.032473 0.084512 
0.128439 -0.030191 0.087241 
0.126696 -0.03071 0.087987 
0.126594 -0.032394 0.085159 
0.114389 -0.027679 0.085503 
0.114524 -0.027696 0.088842 
0.111828 -0.026743 0.08832 
0.112043 -0.026089 0.084793 
0.116957 -0.029313 0.086386 
0.11711 -0.02871 0.089406 
0.114786 -0.027291 0.09221 
0.112104 -0.026482 0.092013 
0.117353 -0.028053 0.09244 
0.119484 -0.030911 0.086876 
0.119436 -0.029976 0.089764 
0.119655 -0.028651 0.092525 
0.121438 -0.032126 0.087113 
0.1215 -0.030385 0.089769 
0.1217 -0.029299 0.092343 
0.123176 -0.032254 0.08659 
0.123338 -0.030791 0.089388 
0.123543 -0.029623 0.091909 
0.124904 -0.032326 0.085909 
0.125037 -0.030858 0.088752 
0.125267 -0.029615 0.091306 
0.126961 -0.029394 0.090608 
0.128707 -0.028884 0.089888 
0.130735 -0.027936 0.089161 
0.133005 -0.026139 0.088499 
0.135532 -0.024201 0.087851 
0.13816 -0.021521 0.087177 
0.140485 -0.017978 0.086522 
0.14214 -0.013816 0.085994 
0.143148 -0.009349 0.085613 
0.114986 -0.026756 0.095422 
0.11232 -0.026068 0.095434 
0.117541 -0.027332 0.095397 
0.119843 -0.027724 0.095265 
0.121912 -0.028051 0.094924 
0.123798 -0.028177 0.094422 
0.125575 -0.028119 0.093811 
0.127315 -0.027866 0.093133 
0.129085 -0.027381 0.092426 
0.131083 -0.026549 0.091677 
0.133257 -0.025322 0.090957 
0.135625 -0.023572 0.090256 
0.138075 -0.021093 0.089553 
0.140276 -0.017726 0.088871 
0.141851 -0.013658 0.088292 
0.142798 -0.009246 0.087844 
0.115145 -0.026148 0.098461 
0.112487 -0.025523 0.098636 
0.117697 -0.026651 0.098238 
0.120024 -0.027014 0.097922 
0.122139 -0.027245 0.097473 
0.124091 -0.027318 0.096913 
0.125939 -0.027222 0.096281 
0.127743 -0.026944 0.095602 
0.129561 -0.026456 0.094902 
0.131566 -0.025653 0.094157 
0.133694 -0.024472 0.093431 
0.13595 -0.02277 0.092726 
0.138222 -0.020357 0.092035 
0.140223 -0.01711 0.091353 
0.141648 -0.013216 0.090701 
0.142516 -0.008971 0.090141 
0.115276 -0.025501 0.101344 
0.112616 -0.024884 0.101652 
0.117839 -0.025996 0.100967 
0.120201 -0.026348 0.100514 
0.122378 -0.026549 0.099974 
0.124406 -0.026591 0.099362 
0.126334 -0.026463 0.0987 
0.128211 -0.02615 0.09801 
0.130086 -0.025621 0.097306 
0.132111 -0.024773 0.096566 
0.134212 -0.023532 0.095842 
0.136365 -0.021757 0.09514 
0.138432 -0.01931 0.094451 
0.140177 -0.016163 0.093754 
0.141432 -0.012509 0.09306 
0.142237 -0.008524 0.092436 
0.115385 -0.024814 0.104085 
0.112711 -0.024171 0.104499 
0.11797 -0.025335 0.10359 
0.120377 -0.025703 0.103031 
0.122619 -0.025906 0.102412 
0.124725 -0.025934 0.101746 
0.126732 -0.025776 0.10105 
0.128679 -0.025414 0.100339 
0.13061 -0.024814 0.099623 
0.13265 -0.023868 0.09888 
0.13471 -0.022508 0.098152 
0.136733 -0.020624 0.097437 
0.138578 -0.018155 0.096726 
0.140096 -0.015129 0.096006 
0.141208 -0.011699 0.095305 
0.14195 -0.007973 0.09468 
0.115463 -0.024089 0.106681 
0.112766 -0.023396 0.107182 
0.118079 -0.024658 0.106093 
0.120536 -0.025063 0.105448 
0.122844 -0.025286 0.104759 
0.125024 -0.02531 0.104041 
0.127106 -0.025122 0.10331 
0.12912 -0.024699 0.102575 
0.131097 -0.024007 0.101845 
0.133137 -0.022939 0.101093 
0.135134 -0.021448 0.100352 
0.137012 -0.019473 0.09962 
0.138659 -0.017013 0.098891 
0.139997 -0.014108 0.098168 
0.14099 -0.010877 0.097486 
0.141667 -0.007398 0.09689 
0.115492 -0.023327 0.109121 
0.112766 -0.022565 0.109696 
0.118145 -0.023964 0.108457 
0.120655 -0.024424 0.10774 
0.123029 -0.024679 0.106992 
0.125283 -0.024706 0.10623 
0.127438 -0.024487 0.105467 
0.129513 -0.023996 0.104713 
0.131529 -0.023201 0.103969 
0.133555 -0.022007 0.103209 
0.135476 -0.020398 0.10246 
0.137217 -0.018359 0.101719 
0.138702 -0.015925 0.10099 
0.139898 -0.013132 0.100283 
0.14079 -0.010081 0.099639 
0.141402 -0.006835 0.099096 
0.115449 -0.022535 0.111391 
0.112689 -0.021687 0.112031 
0.118145 -0.023255 0.110667 
0.120712 -0.023785 0.109893 
0.123156 -0.024084 0.109097 
0.125486 -0.024121 0.108301 
0.127714 -0.023871 0.107517 
0.129851 -0.023309 0.106752 
0.131901 -0.022408 0.106004 
0.133908 -0.021094 0.105246 
0.135755 -0.019381 0.104498 
0.137379 -0.017297 0.103763 
0.138734 -0.014894 0.103051 
0.139815 -0.012203 0.102376 
0.140617 -0.009316 0.101781 
0.141166 -0.006289 0.101301 
0.115318 -0.021713 0.113494 
0.112521 -0.020766 0.114184 
0.118062 -0.022533 0.112726 
0.120693 -0.023149 0.111908 
0.123212 -0.023505 0.111077 
0.125624 -0.023561 0.110257 
0.127932 -0.023284 0.109464 
0.130135 -0.02265 0.108701 
0.13222 -0.021641 0.107963 
0.134212 -0.02021 0.107221 
0.135996 -0.018404 0.106492 
0.137526 -0.016281 0.105778 
0.138777 -0.013906 0.105096 
0.139763 -0.011306 0.104461 
0.140484 -0.008572 0.103918 
0.140969 -0.005753 0.103498 
0.115105 -0.020857 0.115461 
0.11227 -0.019797 0.11619 
0.117897 -0.021792 0.114658 
0.120593 -0.022513 0.113805 
0.123193 -0.022946 0.112945 
0.125697 -0.023033 0.112112 
0.128095 -0.022733 0.111323 
0.130372 -0.022024 0.110578 
0.132502 -0.020904 0.109866 
0.134487 -0.019355 0.10916 
0.136225 -0.017458 0.108466 
0.137681 -0.015295 0.107789 
0.13885 -0.012941 0.107145 
0.139755 -0.010422 0.106552 
0.140401 -0.007831 0.106056 
0.140823 -0.005215 0.105686 
0.11482 -0.019954 0.117329 
0.111948 -0.018777 0.118081 
0.117656 -0.02102 0.116503 
0.120416 -0.021869 0.115621 
0.123103 -0.022402 0.114736 
0.125707 -0.022537 0.113895 
0.128209 -0.022222 0.11312 
0.130574 -0.021436 0.112409 
0.13276 -0.020195 0.111744 
0.134751 -0.018521 0.111091 
0.136458 -0.016527 0.110449 
0.137861 -0.014317 0.109821 
0.138967 -0.011977 0.109222 
0.139804 -0.009533 0.108671 
0.140382 -0.007081 0.108213 
0.140742 -0.004665 0.107877 
0.114478 -0.018989 0.119137 
0.11157 -0.017698 0.11989 
0.117353 -0.020194 0.118305 
0.120172 -0.021195 0.117405 
0.122946 -0.021858 0.1165 
0.125661 -0.022065 0.115653 
0.128281 -0.021744 0.114899 
0.130749 -0.020876 0.114235 
0.133 -0.019504 0.113631 
0.135008 -0.017694 0.113047 
0.1367 -0.015594 0.112471 
0.138071 -0.01333 0.111902 
0.13913 -0.010998 0.111354 
0.139913 -0.008629 0.110846 
0.140433 -0.00632 0.110421 
0.140737 -0.004108 0.110108 
0.114099 -0.017945 0.120918 
0.111152 -0.016562 0.121644 
0.117008 -0.019283 0.12011 
0.119877 -0.020451 0.119219 
0.122731 -0.021275 0.11831 
0.125561 -0.021588 0.117461 
0.128312 -0.021278 0.116728 
0.130893 -0.020326 0.116115 
0.133216 -0.018813 0.115578 
0.135248 -0.01686 0.115066 
0.13694 -0.01465 0.11456 
0.138295 -0.012327 0.114054 
0.139327 -0.010003 0.113562 
0.140071 -0.007712 0.113102 
0.140544 -0.005556 0.112716 
0.140806 -0.003561 0.112431 
0.113706 -0.01682 0.122694 
0.110713 -0.015382 0.123363 
0.11665 -0.018255 0.121952 
0.119558 -0.019573 0.121124 
0.122472 -0.020576 0.120256 
0.125406 -0.021033 0.119422 
0.128288 -0.020763 0.118708 
0.130983 -0.019736 0.118133 
0.133375 -0.01809 0.117642 
0.135434 -0.016007 0.117181 
0.13714 -0.013696 0.116731 
0.138498 -0.011321 0.116284 
0.139519 -0.00901 0.115848 
0.140236 -0.006805 0.115438 
0.140671 -0.004806 0.115098 
0.140897 -0.003028 0.114854 
0.113323 -0.01564 0.124469 
0.110272 -0.014202 0.125054 
0.116316 -0.017102 0.123841 
0.119263 -0.018492 0.123147 
0.122205 -0.019626 0.1224 
0.125195 -0.02024 0.121643 
0.128178 -0.020055 0.120954 
0.130967 -0.019001 0.120379 
0.133415 -0.01728 0.119872 
0.135505 -0.015129 0.119407 
0.137238 -0.012765 0.118978 
0.112973 -0.014472 0.126244 
0.109881 -0.013057 0.126773 
0.116008 -0.015896 0.125706 
0.118985 -0.017271 0.12512 
0.121935 -0.018447 0.124468 
0.124943 -0.019157 0.12379 
0.128 -0.019064 0.123131 
0.130856 -0.018037 0.122549 
0.133338 -0.016339 0.122025 
0.135444 -0.014226 0.121562 
0.137192 -0.011906 0.121152 
0.140107 -0.001901 0.128905 
0.140222 -0.00131 0.128812 
0.140173 -0.000864 0.130844 
0.140111 -0.001236 0.130879 
0.140049 -0.002504 0.127125 
0.140193 -0.001647 0.126977 
0.140048 -0.003223 0.125468 
0.140247 -0.002012 0.125317 
3 0 1 2 
3 0 3 4 
3 4 1 0 
3 0 2 5 
3 5 6 0 
3 0 6 7 
3 7 8 0 
3 0 8 9 
3 9 3 0 
3 1 10 11 
3 11 2 1 
3 1 4 12 
3 12 10 1 
3 2 11 13 
3 13 5 2 
3 14 15 16 
3 14 6 5 
3 5 15 14 
3 14 17 7 
3 7 6 14 
3 15 18 19 
3 19 16 15 
3 15 5 13 
3 13 18 15 
3 16 19 20 
3 20 21 16 
3 22 23 24 
3 22 25 26 
3 26 27 22 
3 22 27 28 
3 28 23 22 
3 22 24 29 
3 29 25 22 
3 24 23 4 
3 4 3 24 
3 24 30 31 
3 31 29 24 
3 24 3 9 
3 9 30 24 
3 23 28 12 
3 12 4 23 
3 32 33 34 
3 32 35 36 
3 36 37 32 
3 32 37 38 
3 38 33 32 
3 34 33 25 
3 25 29 34 
3 34 29 31 
3 31 39 34 
3 33 38 26 
3 26 25 33 
3 40 41 42 
3 42 43 40 
3 40 43 44 
3 44 45 40 
3 43 42 46 
3 46 47 43 
3 43 47 48 
3 48 44 43 
3 42 41 49 
3 49 50 42 
3 42 50 51 
3 51 46 42 
3 47 46 52 
3 52 53 47 
3 47 53 54 
3 54 48 47 
3 46 51 55 
3 55 52 46 
3 53 52 56 
3 56 57 53 
3 53 57 58 
3 58 54 53 
3 52 55 59 
3 59 56 52 
3 57 56 60 
3 60 61 57 
3 57 61 62 
3 62 58 57 
3 56 59 63 
3 63 60 56 
3 61 60 64 
3 64 65 61 
3 61 65 66 
3 66 62 61 
3 60 63 67 
3 67 64 60 
3 65 64 68 
3 68 69 65 
3 65 69 70 
3 70 66 65 
3 64 67 71 
3 71 68 64 
3 69 68 72 
3 72 73 69 
3 69 73 74 
3 74 70 69 
3 68 71 75 
3 75 72 68 
3 73 72 76 
3 76 77 73 
3 73 77 78 
3 78 74 73 
3 72 75 79 
3 79 76 72 
3 77 76 80 
3 80 81 77 
3 77 81 82 
3 82 78 77 
3 76 79 83 
3 83 80 76 
3 81 80 84 
3 84 85 81 
3 81 85 86 
3 86 82 81 
3 80 83 87 
3 87 84 80 
3 85 84 88 
3 88 89 85 
3 85 89 90 
3 90 86 85 
3 84 87 91 
3 91 88 84 
3 89 88 92 
3 92 93 89 
3 89 93 94 
3 94 90 89 
3 88 91 95 
3 95 92 88 
3 93 92 96 
3 96 97 93 
3 93 97 98 
3 98 94 93 
3 92 95 99 
3 99 96 92 
3 97 96 100 
3 100 101 97 
3 97 101 102 
3 102 98 97 
3 96 99 103 
3 103 100 96 
3 101 100 104 
3 104 105 101 
3 101 105 106 
3 106 102 101 
3 100 103 107 
3 107 104 100 
3 105 104 108 
3 108 109 105 
3 105 109 110 
3 110 106 105 
3 104 107 111 
3 111 108 104 
3 109 108 112 
3 112 113 109 
3 109 113 114 
3 114 110 109 
3 108 111 115 
3 115 112 108 
3 113 112 116 
3 116 117 113 
3 113 117 118 
3 118 114 113 
3 112 115 119 
3 119 116 112 
3 117 116 120 
3 120 121 117 
3 117 121 122 
3 122 118 117 
3 116 119 123 
3 123 120 116 
3 121 120 124 
3 124 125 121 
3 121 125 126 
3 126 122 121 
3 120 123 127 
3 127 124 120 
3 125 124 128 
3 128 129 125 
3 125 129 130 
3 130 126 125 
3 124 127 131 
3 131 128 124 
3 129 128 132 
3 132 133 129 
3 129 133 134 
3 134 130 129 
3 128 131 135 
3 135 132 128 
3 133 132 136 
3 136 137 133 
3 133 137 138 
3 138 134 133 
3 132 135 139 
3 139 136 132 
3 137 136 140 
3 140 141 137 
3 137 141 142 
3 142 138 137 
3 136 139 143 
3 143 140 136 
3 141 140 144 
3 144 145 141 
3 141 145 146 
3 146 142 141 
3 140 143 147 
3 147 144 140 
3 50 49 148 
3 148 149 50 
3 50 149 150 
3 150 51 50 
3 51 150 151 
3 151 55 51 
3 55 151 152 
3 152 59 55 
3 59 152 153 
3 153 63 59 
3 63 153 154 
3 154 67 63 
3 67 154 155 
3 155 71 67 
3 71 155 156 
3 156 75 71 
3 75 156 157 
3 157 79 75 
3 79 157 158 
3 158 83 79 
3 83 158 159 
3 159 87 83 
3 87 159 160 
3 160 91 87 
3 91 160 161 
3 161 95 91 
3 95 161 162 
3 162 99 95 
3 99 162 163 
3 163 103 99 
3 103 163 164 
3 164 107 103 
3 107 164 165 
3 165 111 107 
3 111 165 166 
3 166 115 111 
3 115 166 167 
3 167 119 115 
3 119 167 168 
3 168 123 119 
3 123 168 169 
3 169 127 123 
3 127 169 170 
3 170 131 127 
3 131 170 171 
3 171 135 131 
3 135 171 172 
3 172 139 135 
3 139 172 173 
3 173 143 139 
3 143 173 174 
3 174 147 143 
3 149 148 175 
3 175 176 149 
3 149 176 177 
3 177 150 149 
3 150 177 178 
3 178 151 150 
3 151 178 179 
3 179 152 151 
3 152 179 180 
3 180 153 152 
3 153 180 181 
3 181 154 153 
3 154 181 182 
3 182 155 154 
3 155 182 183 
3 183 156 155 
3 156 183 184 
3 184 157 156 
3 157 184 185 
3 185 158 157 
3 158 185 186 
3 186 159 158 
3 159 186 187 
3 187 160 159 
3 160 187 188 
3 188 161 160 
3 161 188 189 
3 189 162 161 
3 162 189 190 
3 190 163 162 
3 163 190 191 
3 191 164 163 
3 164 191 192 
3 192 165 164 
3 165 192 193 
3 193 166 165 
3 166 193 194 
3 194 167 166 
3 167 194 195 
3 195 168 167 
3 168 195 196 
3 196 169 168 
3 169 196 197 
3 197 170 169 
3 170 197 198 
3 198 171 170 
3 171 198 199 
3 199 172 171 
3 172 199 200 
3 200 173 172 
3 173 200 201 
3 201 174 173 
3 176 175 202 
3 202 203 176 
3 176 203 204 
3 204 177 176 
3 177 204 205 
3 205 178 177 
3 178 205 206 
3 206 179 178 
3 179 206 207 
3 207 180 179 
3 180 207 208 
3 208 181 180 
3 181 208 209 
3 209 182 181 
3 182 209 210 
3 210 183 182 
3 183 210 211 
3 211 184 183 
3 184 211 212 
3 212 185 184 
3 185 212 213 
3 213 186 185 
3 186 213 214 
3 214 187 186 
3 187 214 215 
3 215 188 187 
3 188 215 216 
3 216 189 188 
3 189 216 217 
3 217 190 189 
3 190 217 218 
3 218 191 190 
3 191 218 219 
3 219 192 191 
3 192 219 220 
3 220 193 192 
3 193 220 221 
3 221 194 193 
3 194 221 222 
3 222 195 194 
3 195 222 223 
3 223 196 195 
3 196 223 224 
3 224 197 196 
3 197 224 225 
3 225 198 197 
3 198 225 226 
3 226 199 198 
3 199 226 227 
3 227 200 199 
3 200 227 228 
3 228 201 200 
3 203 202 229 
3 229 230 203 
3 203 230 231 
3 231 204 203 
3 204 231 232 
3 232 205 204 
3 205 232 233 
3 233 206 205 
3 206 233 234 
3 234 207 206 
3 207 234 235 
3 235 208 207 
3 208 235 236 
3 236 209 208 
3 209 236 237 
3 237 210 209 
3 210 237 238 
3 238 211 210 
3 211 238 239 
3 239 212 211 
3 212 239 240 
3 240 213 212 
3 213 240 241 
3 241 214 213 
3 214 241 242 
3 242 215 214 
3 215 242 243 
3 243 216 215 
3 216 243 244 
3 244 217 216 
3 217 244 245 
3 245 218 217 
3 218 245 246 
3 246 219 218 
3 219 246 247 
3 247 220 219 
3 220 247 248 
3 248 221 220 
3 221 248 249 
3 249 222 221 
3 222 249 250 
3 250 223 222 
3 223 250 251 
3 251 224 223 
3 224 251 252 
3 252 225 224 
3 225 252 253 
3 253 226 225 
3 226 253 254 
3 254 227 226 
3 227 254 255 
3 255 228 227 
3 230 229 256 
3 256 257 230 
3 230 257 258 
3 258 231 230 
3 231 258 259 
3 259 232 231 
3 232 259 260 
3 260 233 232 
3 233 260 261 
3 261 234 233 
3 234 261 262 
3 262 235 234 
3 235 262 263 
3 263 236 235 
3 236 263 264 
3 264 237 236 
3 237 264 265 
3 265 238 237 
3 238 265 266 
3 266 239 238 
3 239 266 267 
3 267 240 239 
3 240 267 268 
3 268 241 240 
3 241 268 269 
3 269 242 241 
3 242 269 270 
3 270 243 242 
3 243 270 271 
3 271 244 243 
3 244 271 272 
3 272 245 244 
3 245 272 273 
3 273 246 245 
3 246 273 274 
3 274 247 246 
3 247 274 275 
3 275 248 247 
3 248 275 276 
3 276 249 248 
3 249 276 277 
3 277 250 249 
3 250 277 278 
3 278 251 250 
3 251 278 279 
3 279 252 251 
3 252 279 280 
3 280 253 252 
3 253 280 281 
3 281 254 253 
3 254 281 282 
3 282 255 254 
3 257 256 283 
3 283 284 257 
3 257 284 285 
3 285 258 257 
3 258 285 286 
3 286 259 258 
3 259 286 287 
3 287 260 259 
3 260 287 288 
3 288 261 260 
3 261 288 289 
3 289 262 261 
3 262 289 290 
3 290 263 262 
3 263 290 291 
3 291 264 263 
3 264 291 292 
3 292 265 264 
3 265 292 293 
3 293 266 265 
3 266 293 294 
3 294 267 266 
3 267 294 295 
3 295 268 267 
3 268 295 296 
3 296 269 268 
3 269 296 297 
3 297 270 269 
3 270 297 298 
3 298 271 270 
3 271 298 299 
3 299 272 271 
3 272 299 300 
3 300 273 272 
3 273 300 301 
3 301 274 273 
3 274 301 302 
3 302 275 274 
3 275 302 303 
3 303 276 275 
3 276 303 304 
3 304 277 276 
3 277 304 305 
3 305 278 277 
3 278 305 306 
3 306 279 278 
3 279 306 307 
3 307 280 279 
3 280 307 308 
3 308 281 280 
3 281 308 309 
3 309 282 281 
3 284 283 310 
3 310 311 284 
3 284 311 312 
3 312 285 284 
3 285 312 313 
3 313 286 285 
3 286 313 314 
3 314 287 286 
3 287 314 315 
3 315 288 287 
3 288 315 316 
3 316 289 288 
3 289 316 317 
3 317 290 289 
3 290 317 318 
3 318 291 290 
3 291 318 319 
3 319 292 291 
3 292 319 320 
3 320 293 292 
3 293 320 321 
3 321 294 293 
3 294 321 322 
3 322 295 294 
3 295 322 323 
3 323 296 295 
3 296 323 324 
3 324 297 296 
3 297 324 325 
3 325 298 297 
3 298 325 326 
3 326 299 298 
3 299 326 327 
3 327 300 299 
3 300 327 328 
3 328 301 300 
3 301 328 329 
3 329 302 301 
3 302 329 330 
3 330 303 302 
3 303 330 331 
3 331 304 303 
3 304 331 332 
3 332 305 304 
3 305 332 333 
3 333 306 305 
3 306 333 334 
3 334 307 306 
3 307 334 335 
3 335 308 307 
3 308 335 336 
3 336 309 308 
3 335 337 338 
3 338 336 335 
3 339 340 341 
3 341 342 339 
3 342 341 343 
3 343 344 342 
3 341 340 345 
3 345 346 341 
3 341 346 347 
3 347 343 341 
3 344 343 348 
3 348 349 344 
3 343 347 350 
3 350 348 343 
3 349 348 351 
3 351 352 349 
3 348 350 353 
3 353 351 348 
3 352 351 354 
3 354 355 352 
3 351 353 356 
3 356 354 351 
3 355 354 357 
3 357 358 355 
3 354 356 359 
3 359 357 354 
3 358 357 338 
3 338 337 358 
3 357 359 360 
3 360 338 357 
3 338 360 361 
3 361 336 338 
3 336 361 362 
3 362 309 336 
3 309 362 363 
3 363 282 309 
3 282 363 364 
3 364 255 282 
3 255 364 365 
3 365 228 255 
3 228 365 366 
3 366 201 228 
3 201 366 367 
3 367 174 201 
3 174 367 368 
3 368 147 174 
3 147 368 369 
3 369 144 147 
3 144 369 370 
3 370 145 144 
3 145 370 371 
3 371 146 145 
3 346 345 372 
3 372 373 346 
3 346 373 374 
3 374 347 346 
3 347 374 375 
3 375 350 347 
3 350 375 376 
3 376 353 350 
3 353 376 377 
3 377 356 353 
3 356 377 378 
3 378 359 356 
3 359 378 379 
3 379 360 359 
3 360 379 380 
3 380 361 360 
3 361 380 381 
3 381 362 361 
3 362 381 382 
3 382 363 362 
3 363 382 383 
3 383 364 363 
3 364 383 384 
3 384 365 364 
3 365 384 385 
3 385 366 365 
3 366 385 386 
3 386 367 366 
3 367 386 387 
3 387 368 367 
3 368 387 388 
3 388 369 368 
3 369 388 389 
3 389 370 369 
3 370 389 390 
3 390 371 370 
3 373 372 391 
3 391 392 373 
3 373 392 393 
3 393 374 373 
3 374 393 394 
3 394 375 374 
3 375 394 395 
3 395 376 375 
3 376 395 396 
3 396 377 376 
3 377 396 397 
3 397 378 377 
3 378 397 398 
3 398 379 378 
3 379 398 399 
3 399 380 379 
3 380 399 400 
3 400 381 380 
3 381 400 401 
3 401 382 381 
3 382 401 402 
3 402 383 382 
3 383 402 403 
3 403 384 383 
3 384 403 404 
3 404 385 384 
3 385 404 405 
3 405 386 385 
3 386 405 406 
3 406 387 386 
3 387 406 407 
3 407 388 387 
3 388 407 408 
3 408 389 388 
3 389 408 409 
3 409 390 389 
3 392 391 410 
3 410 411 392 
3 392 411 412 
3 412 393 392 
3 393 412 413 
3 413 394 393 
3 394 413 414 
3 414 395 394 
3 395 414 415 
3 415 396 395 
3 396 415 416 
3 416 397 396 
3 397 416 417 
3 417 398 397 
3 398 417 418 
3 418 399 398 
3 399 418 419 
3 419 400 399 
3 400 419 420 
3 420 401 400 
3 401 420 421 
3 421 402 401 
3 402 421 422 
3 422 403 402 
3 403 422 423 
3 423 404 403 
3 404 423 424 
3 424 405 404 
3 405 424 425 
3 425 406 405 
3 406 425 426 
3 426 407 406 
3 407 426 427 
3 427 408 407 
3 408 427 428 
3 428 409 408 
3 411 410 429 
3 429 430 411 
3 411 430 431 
3 431 412 411 
3 412 431 432 
3 432 413 412 
3 413 432 433 
3 433 414 413 
3 414 433 434 
3 434 415 414 
3 415 434 435 
3 435 416 415 
3 416 435 436 
3 436 417 416 
3 417 436 437 
3 437 418 417 
3 418 437 438 
3 438 419 418 
3 419 438 439 
3 439 420 419 
3 420 439 440 
3 440 421 420 
3 421 440 441 
3 441 422 421 
3 422 441 442 
3 442 423 422 
3 423 442 443 
3 443 424 423 
3 424 443 444 
3 444 425 424 
3 425 444 445 
3 445 426 425 
3 426 445 446 
3 446 427 426 
3 427 446 447 
3 447 428 427 
3 430 429 448 
3 448 449 430 
3 430 449 450 
3 450 431 430 
3 431 450 451 
3 451 432 431 
3 432 451 452 
3 452 433 432 
3 433 452 453 
3 453 434 433 
3 434 453 454 
3 454 435 434 
3 435 454 455 
3 455 436 435 
3 436 455 456 
3 456 437 436 
3 437 456 457 
3 457 438 437 
3 438 457 458 
3 458 439 438 
3 439 458 459 
3 459 440 439 
3 440 459 460 
3 460 441 440 
3 441 460 461 
3 461 442 441 
3 442 461 462 
3 462 443 442 
3 443 462 463 
3 463 444 443 
3 444 463 464 
3 464 445 444 
3 445 464 465 
3 465 446 445 
3 446 465 466 
3 466 447 446 
3 449 448 467 
3 467 468 449 
3 449 468 469 
3 469 450 449 
3 450 469 470 
3 470 451 450 
3 451 470 471 
3 471 452 451 
3 452 471 472 
3 472 453 452 
3 453 472 473 
3 473 454 453 
3 454 473 474 
3 474 455 454 
3 455 474 475 
3 475 456 455 
3 456 475 476 
3 476 457 456 
3 457 476 477 
3 477 458 457 
3 458 477 478 
3 478 459 458 
3 459 478 479 
3 479 460 459 
3 460 479 480 
3 480 461 460 
3 461 480 481 
3 481 462 461 
3 462 481 482 
3 482 463 462 
3 463 482 483 
3 483 464 463 
3 464 483 484 
3 484 465 464 
3 465 484 485 
3 485 466 465 
3 468 467 486 
3 486 487 468 
3 468 487 488 
3 488 469 468 
3 469 488 489 
3 489 470 469 
3 470 489 490 
3 490 471 470 
3 471 490 491 
3 491 472 471 
3 472 491 492 
3 492 473 472 
3 473 492 493 
3 493 474 473 
3 474 493 494 
3 494 475 474 
3 475 494 495 
3 495 476 475 
3 476 495 496 
3 496 477 476 
3 477 496 497 
3 497 478 477 
3 478 497 498 
3 498 479 478 
3 479 498 499 
3 499 480 479 
3 480 499 500 
3 500 481 480 
3 481 500 501 
3 501 482 481 
3 482 501 502 
3 502 483 482 
3 483 502 503 
3 503 484 483 
3 484 503 504 
3 504 485 484 
3 487 486 505 
3 505 506 487 
3 487 506 507 
3 507 488 487 
3 488 507 508 
3 508 489 488 
3 489 508 509 
3 509 490 489 
3 490 509 510 
3 510 491 490 
3 491 510 511 
3 511 492 491 
3 492 511 512 
3 512 493 492 
3 493 512 513 
3 513 494 493 
3 494 513 514 
3 514 495 494 
3 495 514 515 
3 515 496 495 
3 496 515 516 
3 516 497 496 
3 497 516 517 
3 517 498 497 
3 498 517 518 
3 518 499 498 
3 499 518 519 
3 519 500 499 
3 500 519 520 
3 520 501 500 
3 501 520 521 
3 521 502 501 
3 502 521 522 
3 522 503 502 
3 503 522 523 
3 523 504 503 
3 506 505 524 
3 524 525 506 
3 506 525 526 
3 526 507 506 
3 507 526 527 
3 527 508 507 
3 508 527 528 
3 528 509 508 
3 509 528 529 
3 529 510 509 
3 510 529 530 
3 530 511 510 
3 511 530 531 
3 531 512 511 
3 512 531 532 
3 532 513 512 
3 513 532 533 
3 533 514 513 
3 514 533 534 
3 534 515 514 
3 515 534 535 
3 535 516 515 
3 516 535 536 
3 536 517 516 
3 517 536 537 
3 537 518 517 
3 518 537 538 
3 538 519 518 
3 519 538 539 
3 539 520 519 
3 520 539 540 
3 540 521 520 
3 521 540 541 
3 541 522 521 
3 522 541 542 
3 542 523 522 
3 525 524 543 
3 543 544 525 
3 525 544 545 
3 545 526 525 
3 526 545 546 
3 546 527 526 
3 527 546 547 
3 547 528 527 
3 528 547 548 
3 548 529 528 
3 529 548 549 
3 549 530 529 
3 530 549 550 
3 550 531 530 
3 531 550 551 
3 551 532 531 
3 532 551 552 
3 552 533 532 
3 533 552 553 
3 553 534 533 
3 534 553 554 
3 554 535 534 
3 535 554 555 
3 555 536 535 
3 536 555 556 
3 556 537 536 
3 537 556 557 
3 557 538 537 
3 538 557 558 
3 558 539 538 
3 539 558 559 
3 559 540 539 
3 540 559 560 
3 560 541 540 
3 541 560 561 
3 561 542 541 
3 544 543 562 
3 562 563 544 
3 544 563 564 
3 564 545 544 
3 545 564 565 
3 565 546 545 
3 546 565 566 
3 566 547 546 
3 547 566 567 
3 567 548 547 
3 548 567 568 
3 568 549 548 
3 549 568 569 
3 569 550 549 
3 550 569 570 
3 570 551 550 
3 551 570 571 
3 571 552 551 
3 552 571 572 
3 572 553 552 
3 553 572 573 
3 573 554 553 
3 554 573 574 
3 574 555 554 
3 555 574 575 
3 575 556 555 
3 556 575 576 
3 576 557 556 
3 557 576 577 
3 577 558 557 
3 558 577 578 
3 578 559 558 
3 559 578 579 
3 579 560 559 
3 560 579 580 
3 580 561 560 
3 563 562 581 
3 581 582 563 
3 563 582 583 
3 583 564 563 
3 564 583 584 
3 584 565 564 
3 565 584 585 
3 585 566 565 
3 566 585 586 
3 586 567 566 
3 567 586 587 
3 587 568 567 
3 568 587 588 
3 588 569 568 
3 569 588 589 
3 589 570 569 
3 570 589 590 
3 590 571 570 
3 571 590 591 
3 591 572 571 
3 572 591 592 
3 592 573 572 
3 573 592 593 
3 593 574 573 
3 574 593 594 
3 594 575 574 
3 575 594 595 
3 595 576 575 
3 576 595 596 
3 596 577 576 
3 577 596 597 
3 597 578 577 
3 578 597 598 
3 598 579 578 
3 579 598 599 
3 599 580 579 
3 582 581 600 
3 600 601 582 
3 582 601 602 
3 602 583 582 
3 583 602 603 
3 603 584 583 
3 584 603 604 
3 604 585 584 
3 585 604 605 
3 605 586 585 
3 586 605 606 
3 606 587 586 
3 587 606 607 
3 607 588 587 
3 588 607 608 
3 608 589 588 
3 589 608 609 
3 609 590 589 
3 590 609 610 
3 610 591 590 
3 591 610 611 
3 611 592 591 
3 592 611 612 
3 612 593 592 
3 593 612 613 
3 613 594 593 
3 594 613 614 
3 614 595 594 
3 595 614 615 
3 615 596 595 
3 596 615 616 
3 616 597 596 
3 597 616 617 
3 617 598 597 
3 598 617 618 
3 618 599 598 
3 601 600 619 
3 619 620 601 
3 601 620 621 
3 621 602 601 
3 602 621 622 
3 622 603 602 
3 603 622 623 
3 623 604 603 
3 604 623 624 
3 624 605 604 
3 605 624 625 
3 625 606 605 
3 606 625 626 
3 626 607 606 
3 607 626 627 
3 627 608 607 
3 608 627 628 
3 628 609 608 
3 609 628 629 
3 629 610 609 
3 610 629 20 
3 20 611 610 
3 611 20 19 
3 19 612 611 
3 612 19 18 
3 18 613 612 
3 613 18 13 
3 13 614 613 
3 614 13 11 
3 11 615 614 
3 615 11 10 
3 10 616 615 
3 616 10 12 
3 12 617 616 
3 617 12 28 
3 28 618 617 
3 620 619 630 
3 630 631 620 
3 620 631 632 
3 632 621 620 
3 621 632 633 
3 633 622 621 
3 622 633 634 
3 634 623 622 
3 623 634 635 
3 635 624 623 
3 624 635 636 
3 636 625 624 
3 625 636 637 
3 637 626 625 
3 626 637 638 
3 638 627 626 
3 627 638 639 
3 639 628 627 
3 628 639 640 
3 640 629 628 
3 629 640 21 
3 21 20 629 
3 641 642 643 
3 643 644 641 
3 644 643 645 
3 645 646 644 
3 643 642 647 
3 647 648 643 
3 643 648 649 
3 649 645 643 
3 646 645 650 
3 650 651 646 
3 645 649 652 
3 652 650 645 
3 651 650 7 
3 7 17 651 
3 650 652 8 
3 8 7 650 
3 648 647 653 
3 653 654 648 
3 648 654 655 
3 655 649 648 
3 649 655 656 
3 656 652 649 
3 652 656 9 
3 9 8 652 
3 654 653 657 
3 657 658 654 
3 654 658 659 
3 659 655 654 
3 655 659 660 
3 660 656 655 
3 656 660 30 
3 30 9 656 
3 44 661 662 
3 662 45 44 
3 44 48 663 
3 663 661 44 
3 48 54 664 
3 664 663 48 
3 54 58 665 
3 665 664 54 
3 58 62 666 
3 666 665 58 
3 62 66 667 
3 667 666 62 
3 66 70 668 
3 668 667 66 
3 70 74 669 
3 669 668 70 
3 74 78 670 
3 670 669 74 
3 78 82 671 
3 671 670 78 
3 82 86 672 
3 672 671 82 
3 86 90 673 
3 673 672 86 
3 90 94 674 
3 674 673 90 
3 94 98 675 
3 675 674 94 
3 98 102 676 
3 676 675 98 
3 102 106 677 
3 677 676 102 
3 106 110 678 
3 678 677 106 
3 110 114 679 
3 679 678 110 
3 114 118 680 
3 680 679 114 
3 118 122 681 
3 681 680 118 
3 122 126 682 
3 682 681 122 
3 126 130 683 
3 683 682 126 
3 130 134 684 
3 684 683 130 
3 134 138 685 
3 685 684 134 
3 138 142 686 
3 686 685 138 
3 142 146 687 
3 687 686 142 
3 661 688 689 
3 689 662 661 
3 661 663 690 
3 690 688 661 
3 663 664 691 
3 691 690 663 
3 664 665 692 
3 692 691 664 
3 665 666 693 
3 693 692 665 
3 666 667 694 
3 694 693 666 
3 667 668 695 
3 695 694 667 
3 668 669 696 
3 696 695 668 
3 669 670 697 
3 697 696 669 
3 670 671 698 
3 698 697 670 
3 671 672 699 
3 699 698 671 
3 672 673 700 
3 700 699 672 
3 673 674 701 
3 701 700 673 
3 674 675 702 
3 702 701 674 
3 675 676 703 
3 703 702 675 
3 676 677 704 
3 704 703 676 
3 677 678 705 
3 705 704 677 
3 678 679 706 
3 706 705 678 
3 679 680 707 
3 707 706 679 
3 680 681 708 
3 708 707 680 
3 681 682 709 
3 709 708 681 
3 682 683 710 
3 710 709 682 
3 683 684 711 
3 711 710 683 
3 684 685 712 
3 712 711 684 
3 685 686 713 
3 713 712 685 
3 686 687 714 
3 714 713 686 
3 688 715 716 
3 716 689 688 
3 688 690 717 
3 717 715 688 
3 690 691 718 
3 718 717 690 
3 691 692 719 
3 719 718 691 
3 692 693 720 
3 720 719 692 
3 693 694 721 
3 721 720 693 
3 694 695 722 
3 722 721 694 
3 695 696 723 
3 723 722 695 
3 696 697 724 
3 724 723 696 
3 697 698 725 
3 725 724 697 
3 698 699 726 
3 726 725 698 
3 699 700 727 
3 727 726 699 
3 700 701 728 
3 728 727 700 
3 701 702 729 
3 729 728 701 
3 702 703 730 
3 730 729 702 
3 703 704 731 
3 731 730 703 
3 704 705 732 
3 732 731 704 
3 705 706 733 
3 733 732 705 
3 706 707 734 
3 734 733 706 
3 707 708 735 
3 735 734 707 
3 708 709 736 
3 736 735 708 
3 709 710 737 
3 737 736 709 
3 710 711 738 
3 738 737 710 
3 711 712 739 
3 739 738 711 
3 712 713 740 
3 740 739 712 
3 713 714 741 
3 741 740 713 
3 715 742 743 
3 743 716 715 
3 715 717 744 
3 744 742 715 
3 717 718 745 
3 745 744 717 
3 718 719 746 
3 746 745 718 
3 719 720 747 
3 747 746 719 
3 720 721 748 
3 748 747 720 
3 721 722 749 
3 749 748 721 
3 722 723 750 
3 750 749 722 
3 723 724 751 
3 751 750 723 
3 724 725 752 
3 752 751 724 
3 725 726 753 
3 753 752 725 
3 726 727 754 
3 754 753 726 
3 727 728 755 
3 755 754 727 
3 728 729 756 
3 756 755 728 
3 729 730 757 
3 757 756 729 
3 730 731 758 
3 758 757 730 
3 731 732 759 
3 759 758 731 
3 732 733 760 
3 760 759 732 
3 733 734 761 
3 761 760 733 
3 734 735 762 
3 762 761 734 
3 735 736 763 
3 763 762 735 
3 736 737 764 
3 764 763 736 
3 737 738 765 
3 765 764 737 
3 738 739 766 
3 766 765 738 
3 739 740 767 
3 767 766 739 
3 740 741 768 
3 768 767 740 
3 742 769 770 
3 770 743 742 
3 742 744 771 
3 771 769 742 
3 744 745 772 
3 772 771 744 
3 745 746 773 
3 773 772 745 
3 746 747 774 
3 774 773 746 
3 747 748 775 
3 775 774 747 
3 748 749 776 
3 776 775 748 
3 749 750 777 
3 777 776 749 
3 750 751 778 
3 778 777 750 
3 751 752 779 
3 779 778 751 
3 752 753 780 
3 780 779 752 
3 753 754 781 
3 781 780 753 
3 754 755 782 
3 782 781 754 
3 755 756 783 
3 783 782 755 
3 756 757 784 
3 784 783 756 
3 757 758 785 
3 785 784 757 
3 758 759 786 
3 786 785 758 
3 759 760 787 
3 787 786 759 
3 760 761 788 
3 788 787 760 
3 761 762 789 
3 789 788 761 
3 762 763 790 
3 790 789 762 
3 763 764 791 
3 791 790 763 
3 764 765 792 
3 792 791 764 
3 765 766 793 
3 793 792 765 
3 766 767 794 
3 794 793 766 
3 767 768 795 
3 795 794 767 
3 769 796 797 
3 797 770 769 
3 769 771 798 
3 798 796 769 
3 771 772 799 
3 799 798 771 
3 772 773 800 
3 800 799 772 
3 773 774 801 
3 801 800 773 
3 774 775 802 
3 802 801 774 
3 775 776 803 
3 803 802 775 
3 776 777 804 
3 804 803 776 
3 777 778 805 
3 805 804 777 
3 778 779 806 
3 806 805 778 
3 779 780 807 
3 807 806 779 
3 780 781 808 
3 808 807 780 
3 781 782 809 
3 809 808 781 
3 782 783 810 
3 810 809 782 
3 783 784 811 
3 811 810 783 
3 784 785 812 
3 812 811 784 
3 785 786 813 
3 813 812 785 
3 786 787 814 
3 814 813 786 
3 787 788 815 
3 815 814 787 
3 788 789 816 
3 816 815 788 
3 789 790 817 
3 817 816 789 
3 790 791 818 
3 818 817 790 
3 791 792 819 
3 819 818 791 
3 792 793 820 
3 820 819 792 
3 793 794 821 
3 821 820 793 
3 794 795 822 
3 822 821 794 
3 796 823 824 
3 824 797 796 
3 796 798 825 
3 825 823 796 
3 798 799 826 
3 826 825 798 
3 799 800 827 
3 827 826 799 
3 800 801 828 
3 828 827 800 
3 801 802 829 
3 829 828 801 
3 802 803 830 
3 830 829 802 
3 803 804 831 
3 831 830 803 
3 804 805 832 
3 832 831 804 
3 805 806 833 
3 833 832 805 
3 806 807 834 
3 834 833 806 
3 807 808 835 
3 835 834 807 
3 808 809 836 
3 836 835 808 
3 809 810 837 
3 837 836 809 
3 810 811 838 
3 838 837 810 
3 811 812 839 
3 839 838 811 
3 812 813 840 
3 840 839 812 
3 813 814 841 
3 841 840 813 
3 814 815 842 
3 842 841 814 
3 815 816 843 
3 843 842 815 
3 816 817 844 
3 844 843 816 
3 817 818 845 
3 845 844 817 
3 818 819 846 
3 846 845 818 
3 819 820 847 
3 847 846 819 
3 820 821 848 
3 848 847 820 
3 821 822 849 
3 849 848 821 
3 823 850 851 
3 851 824 823 
3 823 825 852 
3 852 850 823 
3 825 826 853 
3 853 852 825 
3 826 827 854 
3 854 853 826 
3 827 828 855 
3 855 854 827 
3 828 829 856 
3 856 855 828 
3 829 830 857 
3 857 856 829 
3 830 831 858 
3 858 857 830 
3 831 832 859 
3 859 858 831 
3 832 833 860 
3 860 859 832 
3 833 834 861 
3 861 860 833 
3 834 835 862 
3 862 861 834 
3 835 836 863 
3 863 862 835 
3 836 837 864 
3 864 863 836 
3 837 838 865 
3 865 864 837 
3 838 839 866 
3 866 865 838 
3 839 840 867 
3 867 866 839 
3 840 841 868 
3 868 867 840 
3 841 842 869 
3 869 868 841 
3 842 843 870 
3 870 869 842 
3 843 844 871 
3 871 870 843 
3 844 845 872 
3 872 871 844 
3 845 846 873 
3 873 872 845 
3 846 847 874 
3 874 873 846 
3 847 848 875 
3 875 874 847 
3 848 849 876 
3 876 875 848 
3 875 876 877 
3 877 878 875 
3 879 880 881 
3 881 882 879 
3 879 883 884 
3 884 880 879 
3 880 885 886 
3 886 881 880 
3 880 884 887 
3 887 885 880 
3 883 888 889 
3 889 884 883 
3 884 889 890 
3 890 887 884 
3 888 891 892 
3 892 889 888 
3 889 892 893 
3 893 890 889 
3 891 894 895 
3 895 892 891 
3 892 895 896 
3 896 893 892 
3 894 897 898 
3 898 895 894 
3 895 898 899 
3 899 896 895 
3 897 878 877 
3 877 898 897 
3 898 877 900 
3 900 899 898 
3 877 876 901 
3 901 900 877 
3 876 849 902 
3 902 901 876 
3 849 822 903 
3 903 902 849 
3 822 795 904 
3 904 903 822 
3 795 768 905 
3 905 904 795 
3 768 741 906 
3 906 905 768 
3 741 714 907 
3 907 906 741 
3 714 687 908 
3 908 907 714 
3 687 146 371 
3 371 908 687 
3 885 909 910 
3 910 886 885 
3 885 887 911 
3 911 909 885 
3 887 890 912 
3 912 911 887 
3 890 893 913 
3 913 912 890 
3 893 896 914 
3 914 913 893 
3 896 899 915 
3 915 914 896 
3 899 900 916 
3 916 915 899 
3 900 901 917 
3 917 916 900 
3 901 902 918 
3 918 917 901 
3 902 903 919 
3 919 918 902 
3 903 904 920 
3 920 919 903 
3 904 905 921 
3 921 920 904 
3 905 906 922 
3 922 921 905 
3 906 907 923 
3 923 922 906 
3 907 908 924 
3 924 923 907 
3 908 371 390 
3 390 924 908 
3 909 925 926 
3 926 910 909 
3 909 911 927 
3 927 925 909 
3 911 912 928 
3 928 927 911 
3 912 913 929 
3 929 928 912 
3 913 914 930 
3 930 929 913 
3 914 915 931 
3 931 930 914 
3 915 916 932 
3 932 931 915 
3 916 917 933 
3 933 932 916 
3 917 918 934 
3 934 933 917 
3 918 919 935 
3 935 934 918 
3 919 920 936 
3 936 935 919 
3 920 921 937 
3 937 936 920 
3 921 922 938 
3 938 937 921 
3 922 923 939 
3 939 938 922 
3 923 924 940 
3 940 939 923 
3 924 390 409 
3 409 940 924 
3 925 941 942 
3 942 926 925 
3 925 927 943 
3 943 941 925 
3 927 928 944 
3 944 943 927 
3 928 929 945 
3 945 944 928 
3 929 930 946 
3 946 945 929 
3 930 931 947 
3 947 946 930 
3 931 932 948 
3 948 947 931 
3 932 933 949 
3 949 948 932 
3 933 934 950 
3 950 949 933 
3 934 935 951 
3 951 950 934 
3 935 936 952 
3 952 951 935 
3 936 937 953 
3 953 952 936 
3 937 938 954 
3 954 953 937 
3 938 939 955 
3 955 954 938 
3 939 940 956 
3 956 955 939 
3 940 409 428 
3 428 956 940 
3 941 957 958 
3 958 942 941 
3 941 943 959 
3 959 957 941 
3 943 944 960 
3 960 959 943 
3 944 945 961 
3 961 960 944 
3 945 946 962 
3 962 961 945 
3 946 947 963 
3 963 962 946 
3 947 948 964 
3 964 963 947 
3 948 949 965 
3 965 964 948 
3 949 950 966 
3 966 965 949 
3 950 951 967 
3 967 966 950 
3 951 952 968 
3 968 967 951 
3 952 953 969 
3 969 968 952 
3 953 954 970 
3 970 969 953 
3 954 955 971 
3 971 970 954 
3 955 956 972 
3 972 971 955 
3 956 428 447 
3 447 972 956 
3 957 973 974 
3 974 958 957 
3 957 959 975 
3 975 973 957 
3 959 960 976 
3 976 975 959 
3 960 961 977 
3 977 976 960 
3 961 962 978 
3 978 977 961 
3 962 963 979 
3 979 978 962 
3 963 964 980 
3 980 979 963 
3 964 965 981 
3 981 980 964 
3 965 966 982 
3 982 981 965 
3 966 967 983 
3 983 982 966 
3 967 968 984 
3 984 983 967 
3 968 969 985 
3 985 984 968 
3 969 970 986 
3 986 985 969 
3 970 971 987 
3 987 986 970 
3 971 972 988 
3 988 987 971 
3 972 447 466 
3 466 988 972 
3 973 989 990 
3 990 974 973 
3 973 975 991 
3 991 989 973 
3 975 976 992 
3 992 991 975 
3 976 977 993 
3 993 992 976 
3 977 978 994 
3 994 993 977 
3 978 979 995 
3 995 994 978 
3 979 980 996 
3 996 995 979 
3 980 981 997 
3 997 996 980 
3 981 982 998 
3 998 997 981 
3 982 983 999 
3 999 998 982 
3 983 984 1000 
3 1000 999 983 
3 984 985 1001 
3 1001 1000 984 
3 985 986 1002 
3 1002 1001 985 
3 986 987 1003 
3 1003 1002 986 
3 987 988 1004 
3 1004 1003 987 
3 988 466 485 
3 485 1004 988 
3 989 1005 1006 
3 1006 990 989 
3 989 991 1007 
3 1007 1005 989 
3 991 992 1008 
3 1008 1007 991 
3 992 993 1009 
3 1009 1008 992 
3 993 994 1010 
3 1010 1009 993 
3 994 995 1011 
3 1011 1010 994 
3 995 996 1012 
3 1012 1011 995 
3 996 997 1013 
3 1013 1012 996 
3 997 998 1014 
3 1014 1013 997 
3 998 999 1015 
3 1015 1014 998 
3 999 1000 1016 
3 1016 1015 999 
3 1000 1001 1017 
3 1017 1016 1000 
3 1001 1002 1018 
3 1018 1017 1001 
3 1002 1003 1019 
3 1019 1018 1002 
3 1003 1004 1020 
3 1020 1019 1003 
3 1004 485 504 
3 504 1020 1004 
3 1005 1021 1022 
3 1022 1006 1005 
3 1005 1007 1023 
3 1023 1021 1005 
3 1007 1008 1024 
3 1024 1023 1007 
3 1008 1009 1025 
3 1025 1024 1008 
3 1009 1010 1026 
3 1026 1025 1009 
3 1010 1011 1027 
3 1027 1026 1010 
3 1011 1012 1028 
3 1028 1027 1011 
3 1012 1013 1029 
3 1029 1028 1012 
3 1013 1014 1030 
3 1030 1029 1013 
3 1014 1015 1031 
3 1031 1030 1014 
3 1015 1016 1032 
3 1032 1031 1015 
3 1016 1017 1033 
3 1033 1032 1016 
3 1017 1018 1034 
3 1034 1033 1017 
3 1018 1019 1035 
3 1035 1034 1018 
3 1019 1020 1036 
3 1036 1035 1019 
3 1020 504 523 
3 523 1036 1020 
3 1021 1037 1038 
3 1038 1022 1021 
3 1021 1023 1039 
3 1039 1037 1021 
3 1023 1024 1040 
3 1040 1039 1023 
3 1024 1025 1041 
3 1041 1040 1024 
3 1025 1026 1042 
3 1042 1041 1025 
3 1026 1027 1043 
3 1043 1042 1026 
3 1027 1028 1044 
3 1044 1043 1027 
3 1028 1029 1045 
3 1045 1044 1028 
3 1029 1030 1046 
3 1046 1045 1029 
3 1030 1031 1047 
3 1047 1046 1030 
3 1031 1032 1048 
3 1048 1047 1031 
3 1032 1033 1049 
3 1049 1048 1032 
3 1033 1034 1050 
3 1050 1049 1033 
3 1034 1035 1051 
3 1051 1050 1034 
3 1035 1036 1052 
3 1052 1051 1035 
3 1036 523 542 
3 542 1052 1036 
3 1037 1053 1054 
3 1054 1038 1037 
3 1037 1039 1055 
3 1055 1053 1037 
3 1039 1040 1056 
3 1056 1055 1039 
3 1040 1041 1057 
3 1057 1056 1040 
3 1041 1042 1058 
3 1058 1057 1041 
3 1042 1043 1059 
3 1059 1058 1042 
3 1043 1044 1060 
3 1060 1059 1043 
3 1044 1045 1061 
3 1061 1060 1044 
3 1045 1046 1062 
3 1062 1061 1045 
3 1046 1047 1063 
3 1063 1062 1046 
3 1047 1048 1064 
3 1064 1063 1047 
3 1048 1049 1065 
3 1065 1064 1048 
3 1049 1050 1066 
3 1066 1065 1049 
3 1050 1051 1067 
3 1067 1066 1050 
3 1051 1052 1068 
3 1068 1067 1051 
3 1052 542 561 
3 561 1068 1052 
3 1053 1069 1070 
3 1070 1054 1053 
3 1053 1055 1071 
3 1071 1069 1053 
3 1055 1056 1072 
3 1072 1071 1055 
3 1056 1057 1073 
3 1073 1072 1056 
3 1057 1058 1074 
3 1074 1073 1057 
3 1058 1059 1075 
3 1075 1074 1058 
3 1059 1060 1076 
3 1076 1075 1059 
3 1060 1061 1077 
3 1077 1076 1060 
3 1061 1062 1078 
3 1078 1077 1061 
3 1062 1063 1079 
3 1079 1078 1062 
3 1063 1064 1080 
3 1080 1079 1063 
3 1064 1065 1081 
3 1081 1080 1064 
3 1065 1066 1082 
3 1082 1081 1065 
3 1066 1067 1083 
3 1083 1082 1066 
3 1067 1068 1084 
3 1084 1083 1067 
3 1068 561 580 
3 580 1084 1068 
3 1069 1085 1086 
3 1086 1070 1069 
3 1069 1071 1087 
3 1087 1085 1069 
3 1071 1072 1088 
3 1088 1087 1071 
3 1072 1073 1089 
3 1089 1088 1072 
3 1073 1074 1090 
3 1090 1089 1073 
3 1074 1075 1091 
3 1091 1090 1074 
3 1075 1076 1092 
3 1092 1091 1075 
3 1076 1077 1093 
3 1093 1092 1076 
3 1077 1078 1094 
3 1094 1093 1077 
3 1078 1079 1095 
3 1095 1094 1078 
3 1079 1080 1096 
3 1096 1095 1079 
3 1080 1081 1097 
3 1097 1096 1080 
3 1081 1082 1098 
3 1098 1097 1081 
3 1082 1083 1099 
3 1099 1098 1082 
3 1083 1084 1100 
3 1100 1099 1083 
3 1084 580 599 
3 599 1100 1084 
3 1085 1101 1102 
3 1102 1086 1085 
3 1085 1087 1103 
3 1103 1101 1085 
3 1087 1088 1104 
3 1104 1103 1087 
3 1088 1089 1105 
3 1105 1104 1088 
3 1089 1090 1106 
3 1106 1105 1089 
3 1090 1091 1107 
3 1107 1106 1090 
3 1091 1092 1108 
3 1108 1107 1091 
3 1092 1093 1109 
3 1109 1108 1092 
3 1093 1094 1110 
3 1110 1109 1093 
3 1094 1095 1111 
3 1111 1110 1094 
3 1095 1096 1112 
3 1112 1111 1095 
3 1096 1097 1113 
3 1113 1112 1096 
3 1097 1098 1114 
3 1114 1113 1097 
3 1098 1099 1115 
3 1115 1114 1098 
3 1099 1100 1116 
3 1116 1115 1099 
3 1100 599 618 
3 618 1116 1100 
3 1101 1117 1118 
3 1118 1102 1101 
3 1101 1103 1119 
3 1119 1117 1101 
3 1103 1104 1120 
3 1120 1119 1103 
3 1104 1105 1121 
3 1121 1120 1104 
3 1105 1106 1122 
3 1122 1121 1105 
3 1106 1107 1123 
3 1123 1122 1106 
3 1107 1108 1124 
3 1124 1123 1107 
3 1108 1109 1125 
3 1125 1124 1108 
3 1109 1110 1126 
3 1126 1125 1109 
3 1110 1111 1127 
3 1127 1126 1110 
3 1111 1112 36 
3 36 1127 1111 
3 1112 1113 37 
3 37 36 1112 
3 1113 1114 38 
3 38 37 1113 
3 1114 1115 26 
3 26 38 1114 
3 1115 1116 27 
3 27 26 1115 
3 1116 618 28 
3 28 27 1116 
3 1117 1128 1129 
3 1129 1118 1117 
3 1117 1119 1130 
3 1130 1128 1117 
3 1119 1120 1131 
3 1131 1130 1119 
3 1120 1121 1132 
3 1132 1131 1120 
3 1121 1122 1133 
3 1133 1132 1121 
3 1122 1123 1134 
3 1134 1133 1122 
3 1123 1124 1135 
3 1135 1134 1123 
3 1124 1125 1136 
3 1136 1135 1124 
3 1125 1126 1137 
3 1137 1136 1125 
3 1126 1127 1138 
3 1138 1137 1126 
3 1127 36 35 
3 35 1138 1127 
3 1139 1140 1141 
3 1141 1142 1139 
3 1139 1143 1144 
3 1144 1140 1139 
3 1140 658 657 
3 657 1141 1140 
3 1140 1144 659 
3 659 658 1140 
3 1143 1145 1146 
3 1146 1144 1143 
3 1144 1146 660 
3 660 659 1144 
3 1145 39 31 
3 31 1146 1145 
3 1146 31 30 
3 30 660 1146 
